/* XPM */
static char *result[] = {
/* columns rows colors chars-per-pixel */
"65 65 246 2 ",
"   c #141C2B",
".  c #17222F",
"X  c #1F232C",
"o  c #1B263A",
"O  c #20232C",
"+  c #2A292F",
"@  c #262936",
"#  c #2C2A32",
"$  c #332E31",
"%  c #2E3038",
"&  c #3C3433",
"*  c #373439",
"=  c #443435",
"-  c #4A3837",
";  c #533C3A",
":  c #5A443A",
">  c #644B3C",
",  c #6B533C",
"<  c #2D1A4C",
"1  c #1A2647",
"2  c #1D2B41",
"3  c #1C2C4D",
"4  c #1B354B",
"5  c #1B2652",
"6  c #1D2B54",
"7  c #1E2D5A",
"8  c #1C3253",
"9  c #1D325B",
"0  c #1B3B5D",
"q  c #222C43",
"w  c #272847",
"e  c #242B4D",
"r  c #292C4D",
"t  c #293143",
"y  c #23324B",
"u  c #2B344E",
"i  c #33364C",
"p  c #262557",
"a  c #232D54",
"s  c #2B2D53",
"d  c #232D5A",
"f  c #2B2E5A",
"g  c #332A58",
"h  c #243355",
"j  c #2B3455",
"k  c #243954",
"l  c #2C3A55",
"z  c #24335B",
"x  c #2A355B",
"c  c #253B5C",
"v  c #2B3A5D",
"b  c #323454",
"n  c #323A55",
"m  c #32355B",
"M  c #313B5B",
"N  c #3A385D",
"B  c #1C3765",
"V  c #143B72",
"C  c #272E62",
"Z  c #352E65",
"A  c #243262",
"S  c #2B3562",
"D  c #263B63",
"F  c #2B3C62",
"G  c #27386A",
"H  c #2C3C6A",
"J  c #323363",
"K  c #333C63",
"L  c #3A3768",
"P  c #323D6B",
"I  c #2B3A75",
"U  c #383B75",
"Y  c #433E4A",
"T  c #6E3D47",
"R  c #713E48",
"E  c #473774",
"W  c #2A415C",
"Q  c #33425B",
"!  c #194D72",
"~  c #1B4A74",
"^  c #2D4164",
"/  c #274468",
"(  c #2C436B",
")  c #314264",
"_  c #32446B",
"`  c #3B456A",
"'  c #344A6C",
"]  c #2A4777",
"[  c #324472",
"{  c #334A73",
"}  c #384879",
"|  c #2A5072",
" . c #39527A",
".. c #11657C",
"X. c #4A4443",
"o. c #73424A",
"O. c #75494B",
"+. c #794849",
"@. c #424978",
"#. c #425073",
"$. c #834A4B",
"%. c #874C4D",
"&. c #885649",
"*. c #92564F",
"=. c #8A4B51",
"-. c #9B5453",
";. c #995652",
":. c #A75D56",
">. c #9A654C",
",. c #A7724E",
"<. c #AA6653",
"1. c #B46957",
"2. c #B87655",
"3. c #C6795A",
"4. c #BA8853",
"5. c #CA8F57",
"6. c #CB8659",
"7. c #DA995C",
"8. c #DFA15E",
"9. c #E1A65E",
"0. c #DE9261",
"q. c #E99866",
"w. c #F19D69",
"e. c #F8A66B",
"r. c #FBAC6D",
"t. c #FEB26E",
"y. c #FFBA6E",
"u. c #FFB671",
"i. c #FFBB71",
"p. c #FFC16F",
"a. c #FFC472",
"s. c #FFCA72",
"d. c #2E3B88",
"f. c #503C83",
"g. c #16548B",
"h. c #2A4989",
"j. c #344D82",
"k. c #374884",
"l. c #2B5289",
"z. c #3A5586",
"x. c #33528B",
"c. c #294B93",
"v. c #285598",
"b. c #385997",
"n. c #107487",
"m. c #2F6295",
"M. c #38659B",
"N. c #1C59A7",
"B. c #1250B3",
"V. c #195ABA",
"C. c #275AA7",
"Z. c #385AA6",
"A. c #2757B6",
"S. c #245CB3",
"D. c #3452B3",
"F. c #0766BD",
"G. c #146EB2",
"H. c #1A65B9",
"J. c #2764A9",
"K. c #3963A8",
"L. c #3574A8",
"P. c #2766B8",
"I. c #3766B7",
"U. c #356BB4",
"Y. c #2A75B9",
"T. c #3772B4",
"R. c #444886",
"E. c #554D89",
"W. c #465687",
"Q. c #444B94",
"!. c #465999",
"~. c #476399",
"^. c #55639D",
"/. c #4B54A4",
"(. c #4465A6",
"). c #4273A7",
"_. c #4667B3",
"`. c #124FCB",
"'. c #0B5CC6",
"]. c #135EC3",
"[. c #185CC6",
"{. c #075ED3",
"}. c #244FC1",
"|. c #2758C6",
" X c #0867CA",
".X c #0C62CD",
"XX c #1B63C4",
"oX c #1868C7",
"OX c #1364CB",
"+X c #0979CB",
"@X c #1775C9",
"#X c #0C64D3",
"$X c #0967D8",
"%X c #1569D7",
"&X c #0977D8",
"*X c #1677D6",
"=X c #2769C4",
"-X c #336CC5",
";X c #2874C9",
":X c #3276CF",
">X c #2678D6",
",X c #086AE5",
"<X c #126EEA",
"1X c #0A76E7",
"2X c #1776EA",
"3X c #0879F7",
"4X c #217BE4",
"5X c #128CBC",
"6X c #2F8CBA",
"7X c #34B3BE",
"8X c #4C8CB4",
"9X c #098DCB",
"0X c #1887C9",
"qX c #1897C7",
"wX c #0989D9",
"eX c #1587D5",
"rX c #0994D9",
"tX c #1598DA",
"yX c #2386C7",
"uX c #2B8FD1",
"iX c #07A6DA",
"pX c #17AAD6",
"aX c #07B6DC",
"sX c #28ABD0",
"dX c #0787E9",
"fX c #1589E9",
"gX c #079AE5",
"hX c #1795E4",
"jX c #0D90F2",
"kX c #2287E4",
"lX c #08A7E8",
"zX c #13A7E8",
"xX c #07B9E7",
"cX c #15B8E2",
"vX c #09A7F5",
"bX c #06BDF5",
"nX c #17D2D9",
"mX c #06C6E8",
"MX c #12CFEE",
"NX c #09D6E9",
"BX c #05C5F6",
"VX c #05D6F7",
"CX c #06E6EB",
"ZX c #03E8F7",
"AX c #03F9F7",
"SX c #08FBF2",
/* pixels */
"x i ) A.#X[.C.H c F v v M v M F l F K l n v.,X#XN.] j v K j t $ $ $ t [ H.$X].v.v M K v v M M v K M l H x ) S.#XXXl.W D F M M v s ",
"v v n l.#X$XS._ k c v v v v v H c W G x ) S.{.XXb.K b M v h i > , > * n v.#X].C.F c F S S F F v H D v F x ] OX$X=X .l l D l l ^ x ",
"^ D u Q H.$X[.x.v z D F F F F H l W G z | [.[.I.#.n x D h % O.6.q.2.: @ / V..X|.j.h v H c F v l v H F M F v. X XC.E i W ^ F v ^ x ",
"F ^ l ^ P.%X#XC.l h v F S v S x l W m v l..X#XU. .j z z 2 & ,.u.s.8., O 4 =X,X#Xl.j e v v v v x c F m j D C.+XoXK.@.8 B F v x H f ",
"F F m v !.>X,XH._ e z F F z z d c ^ k J C.#XoXK.{ j x r o & 4.s.i.6.: X @ Z.2X,XJ.K e S H F v d k W M u ] H.&XY.!.M z d d z v F j ",
"F F v k #.U.1X<Xv.v 3 W F x z e ^ ( u P =XOXP.~.) x A 7 1 = 4.s.r.1.- X t #.>X1XF.l.a f K D d a h ^ x e h.1XwXT.E.m 9 C C h W ( z ",
"F S v v g z.fX1XJ.P a k D Z p c ' H r j.*X'.I.!.S r y a o & 5.a.r.<.= O @ n K.2X+XM.Z a F c d d c ' v j Z.dXwX_.#.8 8 d d z c / v ",
"F F F F t K T.jX;XR.s k / x z D ^ 8 c K.<X.XI.(.R._ x e . $ 2.i.t.2.; O q h z.>X1XU.U 8 W v 8 9 F H d K -XvXqX_.(. .Q u e a F W y ",
"F F F F y s W.tXfXK.E t k z a A j 2 ( :X2X{.V.=X_.K.b. .q # >.e.i.7.: X q z M Z.fXeX!.x r m z 9 c u g @.>XBXaXC.D.I.(.W.} A z W j ",
"v S F c h r L Y.lX0X!.Z 6 a p d e 1 { :X2XOXF.'.V.'.=XS.v + $.q.a.9., X q A r ` >XvXY.R.f 5 9 d a 1 f !.eXZXCXiX.X[.'.oXT.x.8 a J ",
"d z v v z p a } hXvXT.R.D 9 G H }  .K.;X,X].].OX$X,X.XF.~ @ $.q.a.8., O 2 d 3 l b.gXzXL.R.6 z x H [ z.D.tXAXSXSXmXrX&X$X'.I.l.9 a ",
"a d c M C B 0 m K.BXpX!.@.W.~.(.(.(.S.OX{.XXU.-X;X2X<X'.V # >.e.i.7.> X @ j 8 8 U :XbXyX!.W.W.~.(.L.Z.|.mXZXyXuXuXhXhX2X$XOXI.] q ",
"t h c F S 6 0 W } kXZXuX/.Z.A.}.V.'.#X XF.=X~. . .M.-XXXV * ,.i.t.2.; X q j d c J z.MXxXI./.U.P.XX].B.wXZXtXZ.R.@.b.Z.-X*X$X{.S.Q ",
"x e a S D h r q @._.bXZXtX+XF.eXeXeX&X X=X^.L 5 j S C h.~ * 4.s.r.1.- O w z B z z R.sXZX9XB.'.'.`.'.iXZXNXT.Q.x w f C S v.<X$XH.c.",
"v.h.( F f s p p _ D.fXZXAXCXCXZXmX5XH.{.=X!.z 5 c ) m r 6 * 4.p.r.<.= O t u j p y R.kXZXCX+X'. XeXzXiXmXmX).} 3 e F ) x S v.$X#XB.",
"#XXXC.b.E.k.l.Q.W.Y.vXAXAXAXMXqXJ.W._.%X;XW.k 6 / ' | l X $ 4.y.t.2.; . m j.z.W. .Q.uXVXSXZXVXNXsXT./.U.tX;XR.8 c / | { f u J.<XB.",
"$X#X&XeXyXpXpXsXsXCXSXCXmXqX~.k.I Z W.*X%XK.K j K D D S o $ >.e.i.5.: X ! C.|.|.N.5XNXAXSXSXnX6Xz.F E b.jX*XQ.J m S D D x w v |.H.",
"XX[.1XmXZXVXlXlXlXlX9X6X_. .s e p w ' ;X%XI._ d v x z z 1 + &.q.a.9., @ n.9X+X9XlXZXZXNXsX).E p 4 1 u z.>X*XK.H s m x B 9 a e / h.",
"l.v.C.tXZXqXD.D.D.Z.b.Q.U s 1 a 9 5 _ _.%X=X .j z F j a o + $.q.a.9., O n.CXsXqXsX6XT.K.@.g 5 p z z h } -X&XJ.) h ^ x z 9 z z z s ",
"c c I *XBX6X/.k.U G J x 6 6 z z 9 7 m b.%XoXz.b 0 H j a 1 + *.e.i.7.> O ..NX6XQ.} U Z J f e a h z z e K U.1XP.#.j D l z d d v D e ",
"k k F ;XbXeXZ.v 2 6 9 a d S S d z a r z.%XOXb.K c D x a o $ ,.y.u.2.: X ~ BXuXk.r 1 a 6 e c v c d d 6 x Z.&XoXz.M x K z 6 h c F d ",
"v c b J.vXdXZ.' s h d a x _ ( z d h 2 { =X%XS.` l D v h o & 4.p.r.1.- X ~ xXeXZ.P p j d d F ( F d x a d x.>X@Xv.K b F D 9 z v H x ",
"v F x m.vX3XXXz.F S z a x _ ' c C h 3 K K.%XP.} j F F v 1 & 4.s.r.<.= X ~ xXwXP.k.d x x 6 D { ( j d d a { P.%XC.K b F F v v v H x ",
"c F W m.zXdX[.x.x D v 6 a ) { ^ A 7 8 l x.#XOX} n c v v o & 4.y.r.2.- X / lXwXS.} j F z 6 c { { j s 7 d P C.%XP._ j F F F v v F x ",
"c v M m.zXdX[.j.l v F z z F ' ^ x d 7 j { F.OXx.m x F x 2 $ >.r.i.5.: X ~ hXwXA._ u c z h k F { F z 7 a v b.%XXX} u D F v F ) H h ",
"F v l J.zX&X[.j.b x v v v c ^ _ v d z z { N.%XC.F v F v 2 # &.q.a.8., O ~ iX*XS.( j F v v v v ) _ z z z j { oX%Xj.u v F v v ' ( a ",
"v v n J.vX&X[.j.j v v F F v v ) F x c x J J.dXJ.K x H x 2 + +.q.a.9., O ! rX XS.[ k v F S v F H H F v v l [ +X$Xv.n v F x ^ ' ^ k ",
"v l Q J.gX&XV.k.j v F F F c F ^ F F v x m J.gXH.P l c v @ + *.e.i.7.> O | wX.XA.H j ^ F F v v F F F F v x [ H.&Xv._ m F v l ^ ( x ",
"v k M J.lX&XA.P s F v v v D F K c F ^ x b v.gXeXk.j c x q $ ,.t.t.6.: X ! wX{.C.F h F v v F v F F F v v l P P.wXG.U j M v l v / x ",
"v x v P.lX+XV.[ j v ^ v v v F F v v D j n v.gXgXl.b S v 2 & 4.a.r.,.- X ! 0X'.v.v k F v v v F c v c v v j K S.rX0XU j v F v c H x ",
"v x M P.gX+XN.H j v F v F F v v v v D l n h.wXvXv.l K c o & 4.s.r.<.= X ~ +X'.c.l x ^ v v F F v F v v F v K N.lXhXk.l x F M v ^ x ",
"F j P G.lX@Xd.F x v c x v v v F F v H c l } eXvXJ.v v c 2 & 4.i.t.1.- @ ~ *XA.] l v v v v x v F v v c D v j v.lXrXc.x v v v v H x ",
"v l H P.xXwXd.n j F v v S v F F v W F x v h.eXgXJ.M x c o $ ,.r.i.6.: X ! 9X[.U l v F v v F F F x l D H l b C.lXrXh.v v F v v F j ",
"F x v C.xXlXC.J l v F F v v F F l v x x K v.gXrXv.v l x @ + &.q.a.8., X ! aX Xk.v S v F v c v v l F H F l S Y.bX0Xk.x c F v v F z ",
"F x x k.pXmX=XU l c v F F v v v W W x j I J.lXeXj.F x v 2 + &.q.a.9., O c lXgXv.K f v v v v F v v c S J j U eXBXP.U v c F F c H j ",
"F F x _ G.xX*Xh.z h v F F F F S x / v j h.@XgXY.} v F x 2 # &.q.a.7.> O y 0XgX Xk.u z c F F F v c / F j D v.tXxXM.L F F v v v ^ x ",
"F S j N D.zXgXP.S e c F F c d z c ^ F x c.wXgXU.@.x z z 1 $ ,.t.y.6.: O t U.dX1Xv.u a v H F v z D / M j G N.lXcX!.) S z h c x ^ j ",
"F F c l E uXvX@Xk.f A F M j d A D W x F N.rXzX(.K c d e o & 4.p.r.1.- X q b.fX1XH.( a x F F d a z F F j I @XbXsXW.c z d 8 z l ^ x ",
"F M D k N U.jXeXb.C 7 F v j 5 B ( ) y ] [.lXsXE.J d S 6 o & 5.s.e.<.= O % ` >X3XoXx.d s K D d a v ^ D j h.fXNX7X@.S A A A z c ^ x ",
"F F c S n  .4XjXP.( e c F c 6 D ( H z k.<XNX7XW.M p p a o $ 4.y.t.1.- O q n b.<X%XM.S e ) D 7 7 / _ h F D.lXCX8Xf.C 6 5 7 A D ( x ",
"F K v F j n K.fX@XW.z h F z f x H A v Z.fXZXsX/.W. .( h o $ ,.r.y.6.: . q u @.-X1XP.j.h l c z z F v u E -XbXSX6X/.x. .v j d x ^ x ",
"F v F v j r R.>X&XU.k.s d A a a d p U I.vXAXNXeX|.A.K.W.e + *.q.a.7.> X 2 a b z.2XOXK.[ 6 c 9 A d a s d.4XVXSXCXqXS.K.K.b.) a v f ",
"c v x l A d j M.2X%X(.) 1 5 5 3 5 k R.>XBXAXSXZXBXhXoXV.D + +.q.s.9., X @ 7 e ` -X1X=XW.F 5 5 6 5 7 Z E.hXAXCXlXlXwXXXOX=XZ.G a s ",
"d A F v B C q _ >XdXU.E.K A ] #.W.W.!.uXAXCXcXzXVXVXmX5X~ + &.w.p.7., O q B a g b.2X<X_.@.x F ` R.k.W.6XMXZX9X[.%XdXdX$X'.XXb.x 3 ",
"d c D v z d v v b.fX&X(.^.M.).(.Z.P.tXCXAX@XI d.A.@XhXiX..# ,.t.y.6.: X q h A z ( P.<XoX(.^.(.(._.6XnXZXSXpXS._._.-XfXfX&X#X=Xx.e ",
"w w r K J 6 0 v f.:XvXG.D.P.V.`.+XaXxXaXaXZ.< w w g d.V.g.* 4.p.r.2.- X t h 9 0 l W.2X,XJ.U.oX&XeXtXwXmXCX;XQ.@.K ` } b.%X%X#XXX} ",
"G x r j 8 3 e 1 H Y.BXiX].}.&XaXmXgX.X+X5XI < 6 h a w C B * 4.s.r.<.= X q y 3 1 q z.4X,XV.H. X&X X X`.F.aXuXR.d e x r r h.%X$X$XN.",
"S.C.b.{ F F m x ` I.bXAXaXxXZXxXeX|.|.tX5XH p f m ' [ b 2 * 4.p.r.1.= X u S J J m W.>X3X%X.X X].[.OXS.oXtXuXR.6 4 W ] } x j.oX#XB.",
"OX.XXXK.(.b.Z.b.Q.yXZXAXSXCXqX_.b.#.~.kXhX] 1 z L ( | D o $ ,.t.y.6.: X / b.b.K.b.K.=X%X{.'.H.P.K.b.#._.fXyX#.f x H _ ' j w c.%XB.",
".X.X.X.XXXH.OXwXzXCXAXZXcXT.f.L x j W.kXlXl.< k W 8 d D o # &.w.p.7.> . ~ G.eXeXeXOXF.F.[.P.K.z.P f n (.4X@Xb.F f F 9 9 c e 6 C.C.",
"H.OX.X{. XF.rXxXMXmXpXyXb.U g a 6 5 } :XvXm.g a W v p a o + +.q.a.9., X n.NXVXlX*X#XOXP.U.b.P d s 3 a W.;X1XK.F f W 9 A z a a H ( ",
"h.l.v.%X<X=XT.L.).!.Q.E Z a 9 d d 3 J T.jXG.C s W H x a o + &.q.a.8.> X ..CXsXZ.K.K.K.b.] z 6 d d a e } -X1XJ._ f l c A z z z c h ",
"j u Q ;X3X>X~.N s x s a p z z B A 3 s b.hX@XI u c c x a 2 $ >.t.y.6.: X g.mX6Xf.H x f s a e z z d d 6 F U.*XH. .x c D d 7 z v D a ",
"l i i P.3X,XM.N 5 5 7 8 z F K d z a r k.*X&Xh.n l D x a o $ ,.p.t.2.= . ~ xXqXx.j e 3 p p v H c h h 6 s b.*XoXb.M l H c a h v H h ",
"H F x J.3X,XA.k.S C A 7 A _ ) x 8 d h ` Y.&XN.n l D v j 1 $ 4.s.t.<.$   V lXrXC._ 7 D z 6 G ' H h 7 z r j.;X%XZ.Q x F v v x v H x ",
"D D x v.2X,XoXb.v c z 7 z _ _ c 6 A 9 n M.1XV.v v G l v o = 4.s.e.,.=   / gXdXP.} z F d a D | ) h 9 7 r [ @X1XZ.Q x H v F v v F x ",
"D H Q v.2X,XXXx.M j j z z F [ ^ k 7 7 j z.&XOX] u k y y % &.3.q.0.2.&.- 8 G.G.g.) u v j a z ' ' v z d a K J.$XS.' u v ^ v v v D j ",
"D / Q v.2X,XH.j.v v x h z D [ ) S 7 d j { H.#Xh.% o . * +.3.3.1.<.1.3.;.X.4 o 2 l k v x h c K ' H h d a M x.OXXXj.i x F c ) ^ ^ z ",
"D D n C.<X,X=Xj.z x v c v H / ) F z z s ( H.F.I % * ; +.2.3.1.:.:.1.3.3.&.: - & % t x c v v v ^ ^ v x z x j.OXoXl.M x F x ) ' ( j ",
"D c n C.,X{.H.] j x v F F F F H H M v j K v.g.i O.;.;.<.1.1.:.-.-.:.3.1.<.<.;.$.- o t x F F v v ^ v x v n ] [.OXv.K x v v v ) ' z ",
"c z n J.$X{.P.h.j c c v F v v F F n v x u ] K o.<.1.:.:.:.:.-.=.%.-.:.:.<.:.1.:.%.; % k v v F v v v v F v _ V.#XC._ v v F x W ( x ",
"v x n H.$XOXXX] u x F v v v v D S n F c * Y +.:.;.=.=.-.-.:.%.+.+.=.-.:.-.=.=.:.:.=.; % t v v F v v ^ v j P S.#XV.[ l l v v c ^ x ",
"W l Q N.OXOXV.I i v / x v v v H D v c 0 $ ; *.:.=.R R $.=.*.$.R T +.=.-.=.T R =.:.:.: + % v F v D c F F x ) C.$XH.] n l F v D D x ",
"Q l / N.$X$Xv.P j v F v D F D v F F l c + = $.-.=.R R R $.$.R R R R R $.R T T =.-.=.; + % c F c v ^ v c x H C.$XOXc.j l ^ F H ^ x ",
"n j [ A.[.].h.) l v v v M F M M K M l x + & o.=.O.o.R o.o.o.o.o.o.T o.o.O.o.o.O.O.o.Y w w b K M v v b v j K v.OXV.x.F D x v K M s "
};
