/* XPM */
static char *ab0c990d56734586dab107774ee867b112MnzkvAgv3acmWO[] = {
/* columns rows colors chars-per-pixel */
"65 65 19 1 ",
"  c None",
". c #31222C",
"X c #5A3C57",
"o c #4E7A7F",
"O c #904B5D",
"+ c #87736F",
"@ c #60B37E",
"# c #DD8B5B",
"$ c #F4B67B",
"% c #3F5D92",
"& c #7BD58F",
"* c #A89B96",
"= c #B4B2B7",
"- c #F2D19D",
"; c #F7D3BC",
": c #F7E5B2",
"> c #97BBF5",
", c #D4D6DA",
"< c gray93",
/* pixels */
"                                     <<<<<<<                     ",
"                                     <<<<<<<                     ",
"                                   ><.......<                    ",
"                                   ><.......<                    ",
"                                  <=.$$:::$$.<<                  ",
"                            <<<<<<.X$:::::::$..<<<<<<<           ",
"                            <<<<<<.O$:::::::$..<<<<<<<           ",
"                          <<....<<.X:::::::::..<......<          ",
"                          <<....<<.X:::::::::..<......<          ",
"                        <<..:::$...+:::::::::...$$::::.<<        ",
"                        <<..:::$...X:::::::::...$$::::.<<        ",
"                       <..::::::$$X+:::::::::XX$:::::::..<       ",
"                     <<.::::::::::$-:::::::::$$::::::::$$.<<     ",
"                     <<.::::::::::$-:::::::::$$::::::::$$.<<     ",
"                     <<.:::::::::::-$:::::::$::::::::::$$.<<     ",
"                     <<.::::::::::::$:::::::$::::::::::$$.<<     ",
"                     <<.$$:::::::::-$:::::::$::::::::::$$.<<     ",
"                     <<.$$:::::::::-$:::::::$::::::::::$$.<<     ",
"                     <<<..$$::::$$:::$$:::$$:::$::::::$..<<<     ",
"                   <<.....XX$-::::##:$$$$$$$:$$:::$$$$X.....<    ",
"                   <<.....XX$-::::#$:$$$$$$$:$$:::$$$$X.....<    ",
"                  <..$$::::::-$$::$####<<;##$##:$$##::::::$$.<<  ",
"                  <..$$::::::-$$::$$###<<;##$##:$$##::::::$$.<<  ",
"                 <.:::::::::::::$$$$#<<,,<;;####:::::::::::::..<<",
"                 <.:::::::::::::$$$##<<,,<;;####:::::::::::::..<<",
"                 <.:::::::::::::::#$<;;<<;<<;##::::::::::::::..<<",
"                 <.:::::::::::::$$#*,<<,,<,,<##::::::::::::::..<<",
"                 <.:::::::::::::$$#$,<<,,<,,<##::::::::::::::..<<",
"                 <.::::::::::::$####O,,<<;<<O###$$::::::::::$..<<",
"                 <.::::::::::::$####O,,<<;<<O###$$::::::::::$..<<",
"          <<<<<<<<<..$$$::::$###$$$$#OO,,<OO#$$$####$$::::$$.<<%%",
"          <<<<<<<<<..$$$::::$$##$$$$#OO,,<OO#$$$####$$::::$$.<<%%",
"        <<........<<<...$$$$$-::::##$##OOO##$$$:::::$$$$$...<%%  ",
"      <<..&&&&&@@@.<<<<<XX::::::$$::$$$:::$$$::$:::::::XX<<<%    ",
"      <<..&&&&&@@@.<<<<<XX::::::$$:-$$$:::$$$::$:::::::XX<<<%    ",
"     <..&&&&&@@ooo@..<<.$$:::::$:::-$:::::::$:::$$:::::$$.<<%    ",
"     <..&&&&&@@ooo@..<<.$$:::::$:::-$:::::::$:::$$:::::$$.<<%    ",
"    <.&&&&@@@&&@@@o..<<.::::::::::$$:::::::::$$::::::::::.<<%    ",
"    <.&&&&@@@&&@@@o..<<.::::::::::$-:::::::::$$::::::::::.<<%    ",
"  <<.&&&@@&&&&&@@@@..<<.::::::::::$$:::::::::$$::::::::::.<<%    ",
"<<..&@&&&&&oo.....@oo..<..::::::$$X+:::::::::XX$:::::::..<%%     ",
"<<..&@&&&&&oo.....@oo..<..::::::$$X+:::::::::XX$:::::::..<%%     ",
"<<...........<<<<<...oo.oo..:::$...X:::::::::...$$::::.<<%       ",
"<<...........<<<<<...oo.oo..:::$...+:::::::::...$$::::.<<%       ",
"<<<<<<<<<<<<<%%%%%<..ooooooo....<<.X:::::::::..<......<%%        ",
"<<<<<<<<<<<<<%%%%%<..ooooooo....<<.X:::::::::..<......<%%        ",
"  %%%%%%%%%%%    <.oo@@@oo...*<<<<.O$:::::::$..<<<<<<<%          ",
"                 <.@@&&@oo@@....<<...$$:::$$.<<%%%%%%%           ",
"                 <.@@&&@oo@@....<<...$$:::$$.<<%%%%%%%           ",
"                 <.&&&&@..ooo@@@oo<<<.......<%%                  ",
"                 <.&&&&@..oooo@@oo<<<.......<%%                  ",
"                 <.&&&&@oo..@@o@@@@o.<<<<<<<%                    ",
"                 <.&&&&@oo..@@o@@@@o.<<<<<<<%                    ",
"                 %<..&&&@@..@@@o&&&@@..<<%>                      ",
"                  <..oo&&&@@.X@&&&@&&&&..<%%                     ",
"                  <..oo&&&@@.o@&&&@&&&&..<%%                     ",
"                  %<<..@&&@@oo.&&&&&@&&&&.,<%                    ",
"                  %<<..@&&@@oX.&&&&&@&&&&.,<%                    ",
"                   %%<<.&&&&@o............,<%                    ",
"                   %%<<.&&&&@o............,<%                    ",
"                     <<.&&&&@X.<<<<<<<<<<<<<%                    ",
"                     <<.&&&&@o.<%%%%%%%%%%%%%                    ",
"                     <<.&&&&@o.<%%%%%%%%%%%%%                    ",
"                     %%%%%%%%%%%                                 ",
"                     %%%%%%%%%%%                                 "
};
