/* XPM */
static char *result[] = {
/* columns rows colors chars-per-pixel */
"65 65 256 2 ",
"   c #11040D",
".  c #2A1214",
"X  c #151F27",
"o  c #291928",
"O  c #32292F",
"+  c #492A36",
"@  c #463A3B",
"#  c #723730",
"$  c #314B36",
"%  c #654938",
"&  c #2C1D54",
"*  c #1C2A4C",
"=  c #1C334E",
"-  c #1D2B54",
";  c #1D2B57",
":  c #1D3258",
">  c #27294A",
",  c #242C4D",
"<  c #27334C",
"1  c #363649",
"2  c #272754",
"3  c #232D53",
"4  c #2A2D53",
"5  c #232D5B",
"6  c #2A2D5B",
"7  c #332D56",
"8  c #243255",
"9  c #2B3554",
"0  c #253956",
"q  c #2C3A55",
"w  c #24335B",
"e  c #2B355B",
"r  c #263A5C",
"t  c #2B3A5D",
"y  c #313554",
"u  c #323A54",
"i  c #35355B",
"p  c #313A5B",
"a  c #1B3365",
"s  c #272D62",
"d  c #233462",
"f  c #2B3562",
"g  c #263B62",
"h  c #2B3C62",
"j  c #26386A",
"k  c #2C3C6A",
"l  c #323B63",
"z  c #353968",
"x  c #2F3771",
"c  c #383D76",
"v  c #48384D",
"b  c #603744",
"n  c #443A70",
"m  c #29425B",
"M  c #374D51",
"N  c #2C4164",
"B  c #274568",
"V  c #2D436B",
"C  c #334265",
"Z  c #33446B",
"A  c #37486A",
"S  c #2C4778",
"D  c #334473",
"F  c #334A74",
"G  c #384878",
"H  c #2E547D",
"J  c #3D5279",
"K  c #3A6A60",
"L  c #514C4E",
"P  c #70514F",
"I  c #467653",
"U  c #6B6556",
"Y  c #434A79",
"T  c #4A5270",
"R  c #655568",
"E  c #775765",
"W  c #4C7071",
"Q  c #71686B",
"!  c #845C3A",
"~  c #8E5352",
"^  c #BB5F41",
"/  c #936C50",
"(  c #B66F4E",
")  c #8B736D",
"_  c #A2696B",
"`  c #D17445",
"'  c #3C895A",
"]  c #4F8C5B",
"[  c #559271",
"{  c #57A96C",
"}  c #63B078",
"|  c #B18658",
" . c #93866E",
".. c #B29472",
"X. c #B4A37B",
"o. c #DB8958",
"O. c #E59259",
"+. c #CE9770",
"@. c #E59969",
"#. c #EEAC74",
"$. c #F6B87B",
"%. c #FFC47C",
"&. c #283D8A",
"*. c #17458E",
"=. c #2B4A87",
"-. c #364A84",
";. c #2A538B",
":. c #375588",
">. c #2B4C97",
",. c #3C4893",
"<. c #2A5699",
"1. c #385997",
"2. c #37639C",
"3. c #1459B2",
"4. c #1B5BB9",
"5. c #275AA8",
"6. c #385AA8",
"7. c #265CB7",
"8. c #3555B7",
"9. c #1964BB",
"0. c #136EBE",
"q. c #2B63AA",
"w. c #3866A8",
"e. c #3475AF",
"r. c #2666B8",
"t. c #3668B5",
"y. c #2575B9",
"u. c #4C4E8D",
"i. c #455689",
"p. c #484B97",
"a. c #445794",
"s. c #536C8C",
"d. c #466599",
"f. c #76768C",
"g. c #4456A6",
"h. c #4F6EA6",
"j. c #4566A8",
"k. c #456BB3",
"l. c #095CC5",
"z. c #0C5ECC",
"x. c #175CC6",
"c. c #0C59D0",
"v. c #265AC4",
"b. c #0A64CA",
"n. c #1563C3",
"m. c #1B64C4",
"M. c #1264CB",
"N. c #1867C9",
"B. c #0B77CB",
"V. c #1978CA",
"C. c #0C64D2",
"Z. c #0867D6",
"A. c #156AD6",
"S. c #0A76DA",
"D. c #1676D8",
"F. c #2667C5",
"G. c #366DC8",
"H. c #2878C7",
"J. c #256DD5",
"K. c #2378D8",
"L. c #076AE4",
"P. c #0B76EA",
"I. c #1777E8",
"U. c #0975F6",
"Y. c #1271F0",
"T. c #2776E6",
"R. c #857A85",
"E. c #93768D",
"W. c #3484B5",
"Q. c #56938B",
"!. c #5DA789",
"~. c #67B88C",
"^. c #6A83A1",
"/. c #7590B5",
"(. c #71D08C",
"). c #7EE495",
"_. c #7AD3A4",
"`. c #0C8ECB",
"'. c #1886C9",
"]. c #0C8AD6",
"[. c #1687D6",
"{. c #0A95DB",
"}. c #1898D5",
"|. c #2787C8",
" X c #288CCF",
".X c #239DDC",
"XX c #06A7DB",
"oX c #11AFD8",
"OX c #0889E8",
"+X c #138EED",
"@X c #0897E7",
"#X c #1498E8",
"$X c #08A6E6",
"%X c #05B8E8",
"&X c #10B3EE",
"*X c #07A9F7",
"=X c #53A3D5",
"-X c #10D2DD",
";X c #06C8E8",
":X c #0DCFEC",
">X c #05D7F6",
",X c #08E8EB",
"<X c #04E9F6",
"1X c #03F9F7",
"2X c #51D1DD",
"3X c #918992",
"4X c #978D97",
"5X c #999BA9",
"6X c #8B97B3",
"7X c #AB9DA4",
"8X c #A7ACB9",
"9X c #B2ACB5",
"0X c #D5B48B",
"qX c #E7B986",
"wX c #F4BE8A",
"eX c #C6B0AC",
"rX c #83DE95",
"tX c #85EE99",
"yX c #8CFAA4",
"uX c #D7CA9D",
"iX c #F5C48A",
"pX c #F6CD8E",
"aX c #F6CB94",
"sX c #F9D49A",
"dX c #FFE69E",
"fX c #DCDBB0",
"gX c #E5D3AE",
"hX c #F6DBA7",
"jX c #F6E1AE",
"kX c #FDE6A9",
"lX c #FFF5AD",
"zX c #F7E5B2",
"xX c #F9E6B3",
"cX c #F7E9B6",
"vX c #FBEBB6",
"bX c #F7EBBA",
"nX c #FDF3BC",
"mX c #FDF7BC",
"MX c #859EC5",
"NX c #90A6C9",
"BX c #AFB5C6",
"VX c #9EB5E3",
"CX c #C4BBC7",
"ZX c #B8C4D5",
"AX c #B1D4EB",
"SX c #C9C7CA",
"DX c #D3CFD4",
"FX c #FEFCC3",
"GX c #FCFAC7",
"HX c #EFE3D9",
"JX c #FFFFD7",
"KX c #D3DCE8",
"LX c #E2E2E3",
"PX c #EFEBE7",
"IX c #EDF8FB",
"UX c #F6F8F9",
/* pixels */
"e 9 S F.C.m.=.g r t t t t t t h q h t q Z 7.L.m.;.t y h h t t h t t p ;.M.c.m.S 0 l h e h p t m z t r h q =.N.C.r.F r h t m u p , ",
"N q t <.Z.C.1.l 0 r g t t h h N m t j 0 ;.M.c.q.F y p h g h h r r g q Z 9.z.x.<.e t h g g h t g k g h h t <.Z.b.6.C u 0 g r t N 6 ",
"h t < H Z.c.7.F 0 r h h h h h h m m x 0 <.z.x.j.A 9 h j t t t t e t q t <.C.M.7.k 8 h h t t t q h h l 9 B 4.b.N.1.i q N h t h l 4 ",
"h t q :.J.A.C.;.< 5 f h f w d e m q 6 k 4.C.F.2.p 9 8 w q t t t t t q 9 1.I.L.m.G , 3 h t t e e 0 h y 9 =.9.B.y.i.l : d f t t h 4 ",
"h h e C j.I.Z.q.p - r h e e 3 8 V t 9 G N.b.r.d.t e 6 3 r h h h h h r 9 T G.P.M.<.9 3 h h t w 5 0 V u 8 >.B.B.k.Y q w 5 5 r h N , ",
"h h q e T K.U.A.=.- 0 m f f - w V g 4 <.A.n.j.Y e e : a d g N l f h g d 1 :.I.P.0.D 3 i B g 6 * t V 8 e 7.OX'.d.Y 8 ; s 5 0 r B 3 ",
"h t t e y w.+XA.1.e 8 m h 6 w N Z r e t.Z.9.j.:.9 4 , 3 5 r N h f t h k 0 C t.P.V.:.4 8 g 0 w : C D 3 Z J.@XH.h.Z 8 < 2 3 8 N B , ",
"h t h e < G  XOX8.G 2 t g 5 r h q = -.J.L.n.t.j.i.F t 3 , 8 m B N r m t 0 N a.T.S.g.z = t f - d h t 4 :.I.&X'.6.a.:.A u 3 w l 0 , ",
"t h h q = i j.@X'.a.z 8 w 5 5 e > * 1.T.S.l.x.r.t.w.w.:.t 3 q g g h t e g w z t.@X|.a.4 4 e 5 : 8 , z 6.+X<X`.5.v.8.t.a.:.r - t 4 ",
"r f h w 3 2 D |.&Xy.u.6 3 ; 5 5 * r j.T.A.3.l.b.l.b.N.F.1.d 2 w h h t q s 2 > -.+X@Xt.Y 5 ; 5 5 - * n 6.$X1X1X$XB.b.l.N.t.:.= 5 6 ",
"5 r t r 5 5 0 1.&X$Xg.Y f k D G i.d.t.Z.L.4.N.A.L.L.c.l.F.>.5 w g d t SXUXIXUX6X6.*X}.h.Y s l D -.:.g.F.>X1X,X,X%X+XD.c.x.t.=.w - ",
", w m e d a m l H.>XW.a.i.d.j.t.t.7.9.l.c.r.k.e.H.T.I.C.b.7.c 9 : : ZXQ X O   4Xu..X;Xy.u.d.d.j.t.w.>.].<XoXt.k.|. X+XI.b.m.7.S O ",
"> : e h r - r q p.&X,X|.6.5.x.x.n.Z.C.0.9.j.J C J :.r.J.C.M.G.Y u f.5X/ / ../ / 5X/.<X.Xk.k.n.l.b.3.b.>X;Xr.p.c z -.1.7.Z.L.z.5.e ",
"k 3 6 r 8 4 > > a.J.:X<X@X`.`.@XXX`.b.b.k.u.; - 7 6 5 >.A. XUXIXUXf.# kXGXGXGXpX. 5XIXIXIXVX3.0.x.`.;X1XoXj.G , > 6 s e 5.I.l.r.&.",
"5.;.F l i f s 6 :.J.&X1X1X1X<X>X}.e.v.C.t.Y * : m A e 8 ^.AXo O UXR.P FXbXzXcXvXo 4XQ O o f.[.`..X#X}.oX.Xd.h * 0 V A N 6 <.S.Z.*.",
"Z.9.r.g.p.2.w.d.e.#X>X1X1X,X Xq.,.u.G.Z.y.T 8 : B A A ^.5XL  ./ Q 1 ) FXcXzXzXnX@ @ ~ /  .P AX2XW.a.u.H.{.t.c w h B V Z 4 9 4.Y.*.",
"Z.Z.OXXXoX%X&X-X-X,X,X-X}.2.Y z s z e.A.F.i.9 e p w k 9XL U JXmX!   ) FXxXxXxXvXv O pXFXJXuXR 9XB 6 n e.OXG.-.6 i f w d w > f F.*.",
"7.x.{.<X1XoX].[.].V.9.t.u.q * - - > :.A.A.w.h 5 p ^.5XU gXGXjXcXnXqXuXbXzXxXxXvX+.iXFXzXhXFX+.P 8XW t w.D.F.1.e 4 l d : 8 5 - B k ",
"S =.5.*X-X5.g.g.6.p.p.c 5 * - w : 5 Y G.C.t.C 8 g BX3XX.JXjXxXzXGXhXsXhXxXzXxXhXpXkXzXzXzXcXdX! BXf.5 i.J.S.1.1 0 B e : : e g 8 , ",
"r t >.*X%X8.p.x r d w 3 - w 6 5 : 5 z t.A.q.G 9 m NX4X| mXcXzXzXxXbXaXsXbXzXbXaXhXnXzXzXzXbXdX/ BXf., J H.S.q.C e h e w ; 8 h d > ",
"q 9 -.#X%XF.:.< * 3 ; w f k r 5 w 3 8 w.A.x.:.p j 6XDX/ pXFXcXcXhXvXsXaXbXGXxXaXhXzXjXbXbXmXiX_ KXs.2 k r.D.r.F e l t w ; w g h , ",
"t e C '.*XC.2.l e e 3 3 l Z h 5 5 < , :.N.A.1.p f.5Xf.o + ..kXbXsXqXhXaXwXaXwXaXhXsXcXhXhXqX. 1 f.6X3 z w.D.m.:.i e h g 0 e h k 4 ",
"g h m '.*XZ.t.D f t 8 3 e F V r w - 3 G r.Z.<.A DXP . L L ) pXhXGX#.@.wX#.wX@.iX#.aXvX#.$.+.v @ .  .s.f :.N.N.<.y e h h t t t h 3 ",
"r h V H.*XC.7.Z w h w - r Z Z h w - 5 l q.Z.5.5XO ! dXGXvXvXhX#.hXsXO.` gXUX#.O.o.qXiXo.qXFXmXGXpX/ CXT D m.A.<.p q h t h h h h < ",
"t m C |.*Xz.6.C q l e r w N A h w 3 w e ;.b.F.4X..bXzXzXzXzXzXzXwXwXO.gXLXKXHXwX` @.hXjXjXzXzXzXmXuX+ BXp q.C.7.C 9 h t t N C h , ",
"h e C [.$Xc.7.C e t e h r r Z N r 6 0 e H N.J.3XX.GXzXzXzXzXzXbXkX@.0XPXPXLXHXHXo.#.GXcXzXzXzXzXmXfX. eXp <.Z.F.C y h h r N Z B , ",
"t 9 Z }.$Xc.5.l e h h h h r h C t e d e F V.OX3X..mXzXzXjXcXcXcXiXO.eXIXLXLXDXLX@.qXGXzXzXzXzXzXmXgXo CXq ;.Z.N.S p e t t m Z V , ",
"t y D [.@Xc.5.i e t t h t t h N g h h y k [.@X3XX.JXbXzXjXjXGXjXO.O.^ CXUXHXUXCX^ O.$.bXGXzXjXzXmXiX  SXt -.B.B.;.l e l t m N V 4 ",
"t 9 D [.@Xl.5.6 w t r h t t h h h h J ZXSXAXAXIXO | dXxXGXzX#.o.O.#.@.~ BXUXeX~ @.#.o.o.#.sXbXnXkX/ 9X6Xq -.V.{.5.l e h h e t N 4 ",
"t 9 D [.{.n.<.e q N t t t h h h q s.5X) 3X4X) SX4XU ! 0XkXiX#.#.sXwX#.^ _ 9X_ ^ %.aX#.#.#.$.hX0X! ) AXi.e S 0.$Xr.l 9 h h e g N , ",
"t 9 S [.{.4.;.9 t t t h h h r h 8X4Xo { { ] ' $ UXUXZXR _ kXzXGXwXwXwX$.qX0XwX#.hXsXGXGXxXvXP R.BX/.m h p x 0.%XH.h 9 q l t h h 4 ",
"t e ;.].$X4.k q f t t t t t t T E.L { yX).} Q.[ L DXPX~ 0XmXbXhXwXGXaXwXxXGXhXwXzXhX$.hXbXmX.._ UX/.r k e l 9.%X'.x e t h t h N , ",
"h e S [.;X9.z 9 t t t t t i f 5XO { yX(.(.~.Q.!.  7X9X| mXcXxXhXjXjXiXjXbXzXbXhXaXhXaXhXxXxXlX/ SX6XN h 9 z V.%XV.x q h h t r h , ",
"h t V |.>XB.,.y t t h t t p s.f.{ yX} } ).).(.~.  9XCXX.JXjXzXxXGXaXsXbXjXzXzXbX$.sXGXxXxXjXJX .DXNXk l 9 =.}.%Xq.z 0 g h t h h 4 ",
"h e e <.%XXX8.h 0 t h h h 5XQ } yX).)._.W $ O ' [ L 4XQ 0XGXzXvXvX+.+.nXzXxXxXvX_ 0XFXzXjXGX .Q BXi.l e t <.&XoX1.z t r h t h h , ",
"h t y =.[.%Xx.S - w h l Z 9X  I ] ] ] M M E E U ' = R T O uXGXmX| + R.mXzXxXxXvXv % kXnXGXgXL 4X2.g p e D 9.%X X,.l h e h t h h 4 ",
"h t 9 c G.%X[.>.8 3 e h e DX@ + + v + . 4XUXUX9X  T K W m @ fXqXv    .mXzXzXxXnX@ o +.qXfX) SXVXg m p 8 =.V.;X X-.e e 5 0 r t h 3 ",
"h f q y p.#X@X7.c 5 g h u IXPXUXIXPXUXUXNX=.S MXP < Q.W [ T o O LXf.) FXxXzXvXFX. 3XU O . ) MXj d N t 8 >.+X:XW.D 0 w ; ; 0 t Z , ",
"h t g 9 T H.@XF.-.- r t t T i.d.d.s.a.h.y.oXW.5XM } ~.Q.W O L 3XUXR.+ pXmXFXmXqXL 5XBX8X8X6Xk : V B w l 5.%X-Xh.n r 5 s d r r V 4 ",
"h t g i m 6.+XS.w.8 8 h r 0 8 N k e C 8.+X,XQ.4XK ).).W Q.{ o o DX4XX ( iXfXqX! KX/.S :.1.H ; d Z m 3 -.J.;X-Xh.n d - - 5 w h V 4 ",
"h h h e < A G.U.r.Y 3 e w w 8 e f s A G.*X1XW.5X] ).).O M Q.Q.} W BXUXR   o   ) MX6.D 5 r d w w h 8 4 p.T.<X,XW.6.1.J z e 8 t h > ",
"f t t 9 6 9 d.I.A.j.F , s ; 2 , 2 6 u.I.>X1X:X4X] yX(.Q.> 1 ~.[ { ~.W 9XLXSXHXBXN.N.w.f : : 5 5 ; 3 i g.#X1X1X:XV.t.t.w.1.h 3 e > ",
"e r e r a 0 q t.U.F.a.y - ; - 8 s p g.#X1X1X,X6XQ [ ).(.M O } Q.(.(.I Q DXIXVXs.K.P.t.Y 8 * ; w 5 s n g.:X1X%X{.@XOXl.b.F.>.d 3 > ",
"r d C r a 8 < :.[.B.h.u.h S J i.d.1.k.>X1X&X.X=Xb X ~.tX(.I L (.(.(.).(.$ E /.j q.Y.A.h.Y z A Y u.a.W.oX1X%Xm.v.D.OXOXZ.b.F.:.e > ",
"2 e h t 6 w t h t.*XF.g.h.e.j.8.4.'.;X,X:X,.& p.LXE X yX(.[ i [ yXtX).).).{ 9X6XG F.L.r.h.h.w.t.e..X,X1X,XV.6.j.j.t.K.+XA.Z.r.-.> ",
"> > 9 l 3 ; : z p.#XXX3.7.7.l.B.XX;XXXXX|.z 2 3 MX9XU } rX(.T O $ I $ M ] X 7XKXC w.P.b.5.F.Z.].{.].B.-X;Xt.u.i y l Y ;.A.A.Z.F.i ",
"S w t 8 = < , = :.}.>X].x.C.XX;X%XZ.3.`.e.& 2 : a VXgXI yX).I v E E E E P P HXZXe w.U.L.4.n.S.Z.z.c.l.B.oXk.c * 3 q 8 w >.A.z.Z.*.",
"9.5.:.G Z z z l p.D.<X,X-X>X>X].F.8.J.XXq.3 ; 7 l 5XeX] yXtXM 3XKX/.NXNXMXNX/.h.Y j.I.I.A.b.l.4.x.9.6.B.}.k.x * 0 B G G < =.A.Z.*.",
"C.b.r.t.w.6.q.w.t.&X1X1X1XoXk.p.J T e.#X Xa * h l /.f.W !.!.i.f.w.3.3.<.<.<.<.1.w.r.n.A.z.n.r.w.g.J T G.OXe.n 6 f k V C < 4 <.A.*.",
"M.C.c.z.0.n.S.$X:X1X<X:XW.p.n 9 2 f j.+X[.f > 0 r j =.1.&.-.1.1.B.b.b.P.].`.{.{.S.Z.3.b.N.w.1.k e * Z k.].H.:.5 f q - : 5 - : 7.*.",
"4.b.z.C.b.B.}.:X;X}.y.w.c 6 > 2 ; - p.+X{.c 4 w N f 2 - : 3 e S <.3.3.OX,X1X:X[.V.N.F.t.1.F 6 3 4 * f j.D.A.:.e e m w d w 3 3 k e ",
"S =.5.Y.A.t.j.i.i.u.c z s - : 5 5 , G  X@X=.3 8 m h e ; d r w 8 V S ,.7.,X-Xt.a.1.1.:.-.d - 5 5 5 3 8 i.D.A.1.l e t d w w w r r , ",
"< O -.I.U.t.J < 5 3 - - 5 h r ; w , f e.OXq.r q r h 8 ; s h t 8 9 u y >.*X:Xj.c e , , 2 3 8 e w 3 5 * D F.D.q.F e r g 5 5 r h g , ",
"p u Z I.U.m.i.9 - ; 0 : h z e d 5 , e 2.].N.V u r r e 5 e f h r t e y =.+X;Xy.H 3 3 3 3 5 N V w 3 r 3 l t.D.r.-.u g h e 3 8 h h , ",
"V g V V.U.C.w.x d j 5 ; h A h w 8 5 e Y V.Z.=.< h h q h p t h g B g y c +X*XB.2.h d d ; ; V Z t - : 3 9 1.D.N.:.y t h t t e h h 3 ",
"h g C F.U.Z.r.D e r : 3 f F V w 3 a : A y.L.<.y k d p h r h k z f r m x D.*XS.6.h e t 5 : N F N w a 8 4 ;.D.A.:.y g h t h h h h , ",
"h m C N.Y.C.5.A 9 q 8 e w k F t w ; d p q.S.4.h h f h h N l h h t q u D D.@XA.6.t 9 e 8 3 h A Z d ; w 3 F r.A.5.m 9 h t h t t g 9 ",
"g t A J.Y.C.q.A r t 8 e w k D h d - w 9 ;.b.n.x q h p g h C h r h h q -.[.OXM.<.t w t r w t C A h w 3 3 p 5.c.r.Z 1 h h t N N h 4 ",
"g r A A.L.C.5.k w t q h h h V N h e e 9 ;.b.n.-.0 t t q t A Z q r t q -.D.OXM.<.h q t t t t t V N q e e p <.M.9.S y t t r C F V , ",
"g 0 D A.Z.x.q.h e e h h h h h N t e e y F 9.A.5.t e h 0 t C C t t t 9 ;.D.Z.C.<.e q h h N t t h N t e h i ;.n.N.=.t e t t t Z Z , ",
"t q F A.C.x.5.h q r t h t t h h t u h e A 4.Z.7.m 9 h t t h t N h q 9 ;.A.M.M.>.w q h t t h h t t q h t 9 =.m.C.<.l q h t q m V 3 ",
"h 9 F M.C.x.3.e 9 t t t t e t g t e g e C 3.L.7.C e h t t r h t h p u ;.A.z.N.>.8 q h t t h t t t h h t 9 -.x.Z.<.l q t t t g h 4 ",
"r < S 0.C.n.>.e p t r h t t N g t q g 0 Z 5.c.9.F 9 h h t h h h h h p ;.l.l.9.=.9 h h r m h h h r N h g t S 4.Z.5.k y q t h g h 8 ",
"m 0 ;.9.Z.n.=.p q g h t g h g h h r r r Z 5.Z.n.;.9 q g N g t g h q p <.C.Z.7.V q t g h h h t g r t r t e S 9.C.m.S q r N g V h 2 ",
"p y >.v.z.5.D q 0 t p t p p h i p p p 9 p 5.C.x.=.p 1 t p p h i t p t <.4.x.5.k 9 t l t i t t p e p e u q D 5.l.7.F h d q p l i > "
};
