/* XPM */
static char *_ef77d2216cc4febf909458185b60281YjtDqPDxej80HjA2[] = {
/* columns rows colors chars-per-pixel */
"65 65 256 2 ",
"   c #2C293C",
".  c #211E3E",
"X  c #2C1754",
"o  c #1D2344",
"O  c #1C254C",
"+  c #1B2A4B",
"@  c #172A48",
"#  c #1C314D",
"$  c #18344C",
"%  c #1D2C54",
"&  c #1D2D5B",
"*  c #182753",
"=  c #1D3255",
"-  c #1D335B",
";  c #1A3856",
":  c #232445",
">  c #252A46",
",  c #23254A",
"<  c #232B4C",
"1  c #2B294A",
"2  c #23324D",
"3  c #2D344C",
"4  c #29374A",
"5  c #31354E",
"6  c #252553",
"7  c #232C54",
"8  c #2A2D53",
"9  c #232D5B",
"0  c #2B2D5B",
"q  c #26265A",
"w  c #342958",
"e  c #243355",
"r  c #2B3454",
"t  c #263B55",
"y  c #2B3A55",
"u  c #24335B",
"i  c #2B355B",
"p  c #253A5C",
"a  c #2B3A5D",
"s  c #323454",
"d  c #333B55",
"f  c #31355A",
"g  c #313A5C",
"h  c #3A3B5C",
"j  c #302644",
"k  c #1C2E64",
"l  c #1D3362",
"z  c #1A3965",
"x  c #0E3172",
"c  c #262C63",
"v  c #243462",
"b  c #2B3562",
"n  c #253B62",
"m  c #2B3C62",
"M  c #2D356A",
"N  c #243B6A",
"B  c #2C3C6A",
"V  c #25356A",
"C  c #323564",
"Z  c #323B63",
"A  c #333B6B",
"S  c #383768",
"D  c #2A3B76",
"F  c #353C74",
"G  c #382B64",
"H  c #3B1969",
"J  c #44396A",
"K  c #453D7C",
"L  c #413E56",
"P  c #1E425E",
"I  c #25415C",
"U  c #2C425C",
"Y  c #2A4255",
"T  c #33425E",
"R  c #36435A",
"E  c #28424E",
"W  c #244263",
"Q  c #2C4164",
"!  c #2D436A",
"~  c #274A6A",
"^  c #334265",
"/  c #33436B",
"(  c #3A446B",
")  c #33496D",
"_  c #3A496A",
"`  c #39526D",
"'  c #2C4677",
"]  c #334573",
"[  c #334A73",
"{  c #33447D",
"}  c #344B7B",
"|  c #3B4C7A",
" . c #3B4676",
".. c #375577",
"X. c #2F537D",
"o. c #164362",
"O. c #42476A",
"+. c #434877",
"@. c #48547C",
"#. c #486173",
"$. c #363A89",
"%. c #21358E",
"&. c #0D39A3",
"*. c #573F9D",
"=. c #2C4C83",
"-. c #2A4787",
";. c #324C83",
":. c #344989",
">. c #2B5388",
",. c #385689",
"<. c #294797",
"1. c #354997",
"2. c #2C559B",
"3. c #2A5797",
"4. c #3B5C9B",
"5. c #365796",
"6. c #396397",
"7. c #2C6A97",
"8. c #1D58AA",
"9. c #144ABA",
"0. c #0B5ABC",
"q. c #1B5AB9",
"w. c #0A50AC",
"e. c #3248A7",
"r. c #2B5CA4",
"t. c #255CAD",
"y. c #2858AB",
"u. c #395BA5",
"i. c #245DB2",
"p. c #275AB7",
"a. c #3759B4",
"s. c #2F4AAE",
"d. c #0A64BC",
"f. c #1A65BA",
"g. c #0F72B3",
"h. c #2D63AC",
"j. c #2764A9",
"k. c #3C64AB",
"l. c #3967A8",
"z. c #3674AA",
"x. c #2461B3",
"c. c #236BBD",
"v. c #2966B9",
"b. c #3668B6",
"n. c #2879BA",
"m. c #3973BA",
"M. c #2B78AB",
"N. c #45498A",
"B. c #465788",
"V. c #565688",
"C. c #484C96",
"Z. c #475A97",
"A. c #535898",
"S. c #52488E",
"D. c #476598",
"F. c #496595",
"G. c #475AA7",
"H. c #4E56AE",
"J. c #4668A8",
"K. c #5569A6",
"L. c #4772AC",
"P. c #4368B4",
"I. c #4673B7",
"U. c #6A4794",
"Y. c #035CCD",
"T. c #095AC6",
"R. c #135CC4",
"E. c #185ACA",
"W. c #075DD4",
"Q. c #1A5BD8",
"!. c #114BC5",
"~. c #2558C7",
"^. c #3058D2",
"/. c #0C63C5",
"(. c #0D63CC",
"). c #0665C9",
"_. c #1362C4",
"`. c #1A64C4",
"'. c #1463CB",
"]. c #1C64CB",
"[. c #156ACB",
"{. c #1969C7",
"}. c #0878CD",
"|. c #1976C8",
" X c #0562D4",
".X c #0C64D2",
"XX c #0D6CD4",
"oX c #0464DB",
"OX c #0769D9",
"+X c #1667D6",
"@X c #0876D8",
"#X c #1775D9",
"$X c #2767C7",
"%X c #356AC9",
"&X c #2577C8",
"*X c #3574C7",
"=X c #2674D8",
"-X c #2B6DD8",
";X c #0769E6",
":X c #146EE5",
">X c #0774EA",
",X c #1777E8",
"<X c #0775F8",
"1X c #1476F2",
"2X c #076FF1",
"3X c #2774E9",
"4X c #095EE0",
"5X c #4365C8",
"6X c #2B82B7",
"7X c #1E9CB7",
"8X c #4585B4",
"9X c #0986CA",
"0X c #1887C9",
"qX c #0699C7",
"wX c #0B86D7",
"eX c #1787D7",
"rX c #0497DC",
"tX c #1595D9",
"yX c #1297CD",
"uX c #2486CA",
"iX c #2C90CD",
"pX c #06A7D9",
"aX c #02B3D8",
"sX c #17BADC",
"dX c #10ABD3",
"fX c #28B4D5",
"gX c #0688E6",
"hX c #1487E8",
"jX c #0598E5",
"kX c #1996EA",
"lX c #068AF6",
"zX c #0698F6",
"xX c #1590F5",
"cX c #2786E5",
"vX c #06A7E9",
"bX c #05B8E6",
"nX c #08A7F4",
"mX c #19A5F7",
"MX c #07B6F6",
"NX c #12B7F8",
"BX c #19B5E6",
"VX c #02C6DD",
"CX c #14D0D9",
"ZX c #03C7EA",
"AX c #03D7EA",
"SX c #07C7F7",
"DX c #04D9F9",
"FX c #13D3ED",
"GX c #02E6E8",
"HX c #02FBEC",
"JX c #03E6F9",
"KX c #01FEF3",
"LX c #03FEFC",
"PX c #06F9F7",
"IX c #12F4EF",
"UX c #24E5EC",
/* pixels */
"i 5 ;.~.(.`.=.z U g a g g g g m m Z g y ^ p.oX`.>.m a m g g m g g g Z 2.(. Xi./ i Z a f Z g g a Z y a m s 2._.'.r.~ z A d d f a , ",
"m y Q x. XQ.5.a t p p a a p p ! t n M t >.+X Xv.' r d g n m n p n n i } XXT.`.} i m m p m m p m B m m b a t.OX(.u.a y m p a a m , ",
"n a 4 `  XT.p.( u n m m m m m B E Q M t r.E.q.J.( r B N m m a i i U p T i.E.R.r.a u m m p Q a a m B Z a ! c.}.f.N.s 3 Q m a Q m 1 ",
"m T u X.#X+XXXX.# i b m b i b i E a b n t.W.].6.a r u v y y a a i a r y j.<XW.c.Z O a a i a r t t Z s e >.[.).v.B.p z n b a a Z : ",
"m m f ! L.:X Xr.r 7 a m p u 7 i Q I r { ].Y.v.,.t s 8 r e m m m Q m i 3 @.3X;Xf.,.+ - m b a 9 u I Q s ; y.XX|.l.+.t u 9 u a m a 1 ",
"m m y p @.#X2X].;.O e Q b i % e ! m 1 5.+Xd.L.B.i B l k l m ! m i m z v L J.1X@Xj.i 7 S W m 9 7 a ! 2 p $XwX|.K.J e c c 7 t W ! o ",
"m b y b h z.lX].5.e t I b w & U ) v r m.OXq.I. ., 3 % u v p ^ m b y m M 4 ` =X>Xn.{ 6 r P u e # / ] < | :XgXm.F.t $ e c i e W ! , ",
"m m m a r N.eXhXG.A 7 W n 9 p ! i = ] =XOX`.L.Z. .^ 7 , < p U n ! a Q m e ! k.,X|.C.7 P C e & n m m , 4.hXbXb.L.>.( 3 > + B W 4 > ",
"m a N y # C P.nX&XZ.0 i p 7 e b 4 # B.3X;X/.E.b.I.6.,.[ < e Q n W a a i m u +.-XgXm.| + f i & v r 6 J b.zXAXg.s.%XP.D.N.n e a a > ",
"i a m t e 8  .tXvXz.S.O = 9 9 q o @ J.3X+Xd.).0.T.R.-Xm.:.9 7 n m Z a y N 7 3 4.zXtXJ.C , & u 9 + o +.x.MXLXZX[.R.9.T.$XJ.W @ M 6 ",
"u u a p 8 9 e Z.NXqXG. .& & N F | 4.m.OX.Xq.R..XOXoXY.R.m.D 6 t n u a a v 7 $ ( $XMXn.K.k & e m ] ..G.&XGXKXPXPXvXwX}.T.$X6.z 9 : ",
"7 u Y C 0 x p Z cXDXj.V.@.F.J.L.J.b.x.).oXv.m.*X=X,X;X)./.a.Z t u e p W i 8 ; i 1.NXdXl.A.V.F.K.L.l.s.eXLXaXP.iXtXcXxX;XT.$X5.t . ",
"j p n Z u % ~ U C.SXAXG.u.h.~.9.0. X.Xd.d.k.@.| ,.l.=X#X).'.e.Z < - S W p 7 W p A 6XJX|.A.L.v.`. Xw.9.AXZXy.A.+.@.4.k.=XOXW.E.>.  ",
"u + 0 m n 1 > > A.#XJXFX@Xd.g.eXtXwX@XT.P.A.& , f q c a.;Xg.wX2.o & 7 f C V l # ] G.JXAXw.E.T.W.!.9XDXLX0XG. .O , c c M =X2Xw.b.c ",
"r.-.! p < 0 q % ,.Q.NXKXPXIXPXJXdXj.E.T.L.+.* - Q Q r e x.:X9XbXiX-.N m r < w < m 5XMXLXpX!. Xg.kXbXdXAXiXZ.u @ m ! Q v A [.XXT.D ",
"(.f.r.A.S.;.5.N.F.,XSXPXLXHXBXc.4.A.%X;Xz.` * P W ` ..< w v.4XXXZXFX&XG.4.,.Z.B.@.H.bXKXKXJXJXCXiXG.H.0XeXD.v - W ~ ` ] 1 [ :XOXx ",
" X(.@XeXiXsXBXsXCXHXHXGXsXz.V.F c ( L.OXc.B.8 a B u N a 1 z f.Q.9.aXPXqXq.~.~.~.f.aXLXHXPXUX7X:.^ w +.uXlXk.F 0 C b u v e > :.,Xl ",
"`..XjXKXLXZXjXpXjXwX0Xv.C.U 7 O 9 > 6.:X+XZ.e i g e u v - % A r.{.!.rXPXZX}.}.rXDXLXAXBX8X@.w 6 $ o _ *X@Xm.:.7 f a u z 7 6 e >.V ",
"=.3.y.MXAXy.s.H.a.C.C.N.C + % i & 9 B.-X.Xk.m e n i r & 9 a 0 y ' 5.<.zXPXFX7XfX6XL.u.N.G q & u u l r D.#X[.,.2 m Q e l e i - r , ",
"p m %.mXVXa.Z.{ ! n v 7 * v 9 e - q ^ b.oXh.( e N a 8 & v m p e y g S p.JXdXZ. .A m C i + e e 9 i 9 7 B.#XXXB.s n m r 9 & u m u : ",
"t t $.kXbX~.B.> @ 9 % 9 b m u 9 u 7 t k..X$X| r n a u & 7 a a p a a d <.SXMXa.C , = % + e m a e 9 9 6 } &XXXl.T i Z a - = u p m , ",
"a i Z uXMXW.6.y 0 i 7 e Z ] m 9 9 2 < 6.+X].,.a p a a u u m m a a n 3 :.NXZXp.B.9 u a 7 i ! ! u 7 v % / v.XXv. .s Z m u u i m m : ",
"p m a 0XMXW.b.] m a 7 e b ) Q u i = 7 | $XOX2.h p m a m a Q m b a i i $.nXbXR.k.V i b 7 u B [ n 8 c % b l.(.{.;.s i m a b a m m 1 ",
"p ! m &XMXY.b./ u m 9 % u ) ) p c % 9 ^ h.oXr.R i n a m g a i m U p U { kXvX).4.s p b 7 - m ..n 3 u u 7 ,.].].>.s n m a m m m m > ",
"p Q Z uXnXT.b.h t A p u u ! ) a u % v s 3.).p./ a i m m U Q m m m p E ' mXmX/.5.5 p i e t p ( / i u u 7 / $X.Xu.3 p B a m T Q p : ",
"m g g 0XnXT.x.Z i a i m p p ) Z i r - i X./.Q.} t Z m i W ) m m m a f :.MXwXR.3.e a a p a i m [ n u 7 u g j.OXp.y a m a a ! [ p : ",
"a y Z eXvXT.p.Z u g a m a p m ^ a i n f { eXXX:.r m n a p ) ^ a a Z r :.nXwXR.:.r a m a a a m ! m m a a a r.@Xp.^ f n a a ! / Q , ",
"m y ^ cXvXT.a.f a m a Q m a m Q n m n s B eXjX5.i n m g m ^ m a a m 8 5.nX}.R.1.e a m m m a a m m m m a f 2.@Xg. .f a a t y ! ! , ",
"a t / eXjXT.r.8 u m a a p m m m p m n s Z |.vXj.Z t B a m a a m a a r 3.pXXXR.{ < a m a m a i m n a m a i 1.wX9X:.s m a m t m m , ",
"a r / eXrXR.r.8 a m m a a m m i a m n 5 ^ /.nX|.Z y B t m i a m a i r j.tX(.R.] e m a a a a n p a a a a r :.9XvXe.r a a m a m m : ",
"m t ] eXrXR.2.3 a a m a a a a m p m W s ^ 8.nXeX! g A p a m m a a U f 8.tX'.q.~ t m m a a m a m m a a m y -.}.MXy.a i i Q g m B : ",
"m r -.wXpXp.A t m a i a a Q a m i m m t R y.bXhX] r n p a a a a m a g j.gX].2.Y a a a a a i m n y t n B y ( |.ZXf.g m a m a m m : ",
"b r { eXZXR.A y m a a a a m m m y a b y Z i.bX#X[ i W a a a a a a a s a.aX.X<.g W a m a a a m a i a m m 4 F jXbXy.Z p m p i a m : ",
"m a ! &XJX}.$.y a a m m a a b m U a i y { g.nXf.[ r m t m m a m m U w :.ZXrXy.^ b m m a a a a a a m B i 3 1.MXdX1.m p m m a m Q : ",
"m a a 2.ZXpXe.h p a m m m a a a Y m i i -.wXnXj./ i Z i a a m a a m p C tXbX'.X.w p a a a m m a p m S i Q y.SXtXN.m p m m a a m : ",
"b m r } tXaXE.] & e i m m m m b I m f a y.rXtX4.m m m a a m a a m a n d 2.nX@Xi.h % i b m m a a n n g e ' {.AXn.K M m u m a m m : ",
"m b 5 F 5XbX#X2.7 e m m a u e i W ! i m E.vX0XV.Z v 9 u a m m m m m a e 5.hXgX].W < p m m a 7 b z U d - -.eXAXb. .i b e u i m m : ",
"m m i y C.mXjXx.S 9 m m g 7 c z Q y u -.[.bX*XB.p p < 7 v U a g f a n t O.%XlXXX3.7 i a m m 9 7 m ~ C e y.nXFXJ.! e u % - t T ^ : ",
"m a W r O.uXzXc.:.O m u y 7 & n ) r # a.@XVXL.+.9 M u - u W W A b a W a d 6.1XOXl.B 6 a ! & 9 e / W 9 / ~.ZXCXV.Z n c V v u n ^ , ",
"m m t C Y 5.xX@Xk.7 e Q p u & ! ~ i y ^.jXIXD.O.7 6 q 9 i U ; v ! m a u Z ^ %X2Xv.,.O Z Q e % v ) t 7 ,.,XGXfXU.D & O % 9 n n ! : ",
"m Z m a 3 Z *X<Xv.@.+ Z u v r i v c ` ^.MXIXm.Z.B...! + , y Q p ! a a m r s Z.,X).l.v e p u u v m r w G.hXPXCXu.4.F.) a 8 u m B : ",
"m m a t 0 r D.,X'.J.A O v & 8 7 9 q B.,XDXLXbX[.E.p.J.F.! , r Z a i Z a e c R m.:X$X4.7 p & v 9 % 6 C b.nXPXLXZXf.p.b.J...e 7 C : ",
"i a f u l e y *X<Xv.F.1 % * % = q T G.gXIXPXKXJXSXeXE.~.l.c , a m v m g v & 1 ,.,XOXJ. .% * % * k 0 J %XDXLXdXrXvX#X0.'.v.;.% 0 : ",
"e z T m l i > ,.hX}.Z.S.u '  .@.F.Z.P.DXKXbXtXmXSXGXVX9X8.1.9 p u k n a V - 0 S *X>X$XK.C A O.@.B.N.8XsXLXpXq.^.XXzXwXY.'.v.( = : ",
"7 v a a 9 e ! b b.zXf.K.L.z.L.b.8.#XFXHXSX:.X $.e.'.mXMXrX~.-.y u u a m u u n b ..#X;Xb.K.K.l.k.6XsXPXKXCXq.k.I.k.*XcX,X(. Xh.^ o ",
"8   r A 0 = P C *.mXpX8.v.p.9.Y.pXAXpXrXiXH 7 o j c %.+XnXaXc.S w @ = Z m = - ; ^ m.>Xd.j.{.@XgXtXwX}.GXvXH.B.r Z ) _ j.3X(. Xa.  ",
"D u i 7 # < O $ >.yXDX}.!.E.rXAXvXOXw.qXM.X e ; u e j ;.+XaXZX~.} m 7 r e , O O s *X<X Xf./.@XOX0.W.9.qXfXG.B @ i u > v t.:XR.;Xz ",
"x.x.,.[ ! m S h S.,XPXGXCXJXJXwXq.5X$XvX7.6 9 f ^ `  .w :.Q.jXaX/.p.5.,.] A A S J I.1X:X].).0.p.E.f.a.gXtXG.c # t [ ;.F 4 x..X/.%.",
"(.'.c.b.J.a.b.5.G.sXLXPXHXdXP.S...#.L.mX0X% $ C A n X.; : e.].yX}.W.f.v.p.l.l.l.l.h.'.:XT.0.c.b.G...V.-XjXD.a i M B U ^ > f q.[.k ",
"(.Y.Y.T.f._.@XvXDXKXPXSXuXS.J a 6 b k.xX0Xw < I p % 9 n @ < 5.+X}._. X>X0XwXrXwX@X).0.E.`.z.B.b 8 * ` 5X@Xz.{ 7 Z u & n 7 % D $Xz ",
"x.(.R. X).}.vXFXbXtX6Xk.F C 6 , & % C.kXrXM 8 u Q b q = e e u =.t.f.R.jXHXPXZXwX[.+Xc.k.D./ 7 q 7 % ( L.>X$X..6 a t v 9 e e - ! 8 ",
"' =.t.1X+Xb.D.B.N.S. .F q * l i u O N.iXrX$.7 r I m 8 & v b e p ! ' 1.f.AXCXH.4.l.Z.5.} & * u 9 r % i D.,X{.,.b a I v 9 u a u u o ",
"r   | 1X2Xb.@.< - = % + e m - c u + C n.gXy.t y I m u & c m a 2 s s f y.SXZXA.A e > : 6 7 i v u 7 u 7 ;.=X[.6.A a n v 9 & a m u o ",
"^ 5 ^ ,X<X`.B.8 * 7 u - v ( a 9 u 6 i l.wX`.! d n i i 9 0 a a a a a d %.zXZXh.[ 6 7 e 7 u ^ Q u % v , / *XXXh. .r m a u 7 u m m : ",
"B n m &X<X).k.] V M 9 & m _ a 9 e 9 e @.#XOX' 5 m a a m g a m n W m 5 :.xXnXf.6.v v N & - ! ^ i 7 z 7 a z.@X$X_ 4 m m m a i m Q , ",
"m W Z $X<X Xc.) t p - & m [ ! e < V ; O.|.oX3.3 D u d m p m A M a a i ' kXvX Xu.i a i 7 u ! [ a e l 8 1 r.>X].` r N y m m m m m > ",
"n ! R $X1XW.h._ r i r i u B [ a l 9 u d h.@Xy.g a M g n a Q b a a p U { hXgX(.5.r r i e % a [ ^ u e 7 8 ..].'.5.s i m m m U p m , ",
"n m T +X1X Xh.^ u a e u u B [ m v % v 8 3.OXR./ t m a a ^ ( m p m a d :.xXwX`.5.u a m p p a Q ) u u 9 u / p.(.h.a 3 m a m ^ m m , ",
"n p Z #X;XT.v.a i a i a m B Q m n r a 1 >.).].} y m g p a ) ^ p a m t :.hX@X'.>.r a a a m a a ^ m i e i g i.'.x.Z y m a a ^ [ Q : ",
"n u ^ =XoXR.h.a a a a Q m m m Q m f m s } d.+X2.y u a p a ^ ^ a a a r 5.>X).'.1.r a m a g m a Q Q a a Z a r.W.f.[ i i a a Q ! Q : ",
"m e ) +X X'.t.i a p a m a a a m a d n r / f.oXt.y i a a m a m m a a y 3.,X/.[.:.< m m a a m m a a p a a r 2./.'.:.f y m a i Q Q , ",
"m y ) XXR.E.8.u s p a a a a a N a d N i / q.;Xx.R b n y a a a m a a s 3.+X0.'.-.2 m m a a m a m a a m a r 5.(..X>.a U a a a n m 1 ",
"a t ) d.(.'.3.i s m p m m a a m a y z u / t. Xx.^ i B m m m m m Q a g 3././.x.F r U Q m m m a m p n Q m a :.'. X2.f s a a m n m < ",
"T y >.f.oX`.=.g i n m a n m n m m U y p ^ i.oX].>.3 y n U n a a n a m r.W.oXt.Q a n p p m a m p a a a p p =.`.oXx.Z t Q m n ! m , ",
"f 3 :.E.E.y.[ t I g g g f a g f g g g f h y. Xp.-.y d i g g g a g f U 2.E.~.2.n t g g g a g f g a f f y f ;.q.0.6.! N u s g Z f : "
};
