/* XPM */
static char *result[] = {
/* columns rows colors chars-per-pixel */
"65 65 252 2 ",
"   c #0F111D",
".  c #1B1D26",
"X  c #231E2B",
"o  c #1B222B",
"O  c #1D212B",
"+  c #0A243D",
"@  c #1B2333",
"#  c #1B253C",
"$  c #18263E",
"%  c #28272C",
"&  c #322D2F",
"*  c #252837",
"=  c #2B2C33",
"-  c #342C33",
";  c #2C313A",
":  c #343438",
">  c #421E19",
",  c #4A2318",
"<  c #62351B",
"1  c #49312E",
"2  c #583B3B",
"3  c #5D423D",
"4  c #734C2D",
"5  c #63443E",
"6  c #6B4C3F",
"7  c #261D46",
"8  c #1E2A42",
"9  c #1B2849",
"0  c #1A304E",
"q  c #1B2652",
"w  c #1E2C54",
"e  c #1E2D5A",
"r  c #1D3355",
"t  c #1D325B",
"y  c #222D42",
"u  c #252748",
"i  c #242C4D",
"p  c #2A2C4E",
"a  c #25324B",
"s  c #2A3348",
"d  c #353646",
"f  c #292657",
"g  c #242D53",
"h  c #2A2D53",
"j  c #232D5B",
"k  c #2A2D5B",
"l  c #332D5B",
"z  c #243255",
"x  c #2B3454",
"c  c #243A56",
"v  c #2B3A55",
"b  c #24335B",
"n  c #2B355B",
"m  c #263B5C",
"M  c #2B3A5D",
"N  c #313554",
"B  c #343758",
"V  c #313A5B",
"C  c #1A3864",
"Z  c #1A3A70",
"A  c #282D62",
"S  c #233462",
"D  c #2B3562",
"F  c #263B62",
"G  c #2B3B62",
"H  c #263B69",
"J  c #2C3D69",
"K  c #363766",
"L  c #323B63",
"P  c #333B6B",
"I  c #2F3572",
"U  c #383C74",
"Y  c #451955",
"T  c #6F3D47",
"R  c #4F356C",
"E  c #623876",
"W  c #29494E",
"Q  c #28415C",
"!  c #37435C",
"~  c #144D77",
"^  c #2C4164",
"/  c #2D436B",
"(  c #284668",
")  c #334265",
"_  c #32446B",
"`  c #37476A",
"'  c #2B4777",
"]  c #334573",
"[  c #344A74",
"{  c #374979",
"}  c #2A527B",
"|  c #3B5379",
" . c #14647C",
".. c #4B4E52",
"X. c #6A4543",
"o. c #73424B",
"O. c #7A4549",
"+. c #775541",
"@. c #714551",
"#. c #434977",
"$. c #444F74",
"%. c #664879",
"&. c #685578",
"*. c #5F6B6E",
"=. c #6A7475",
"-. c #85582D",
";. c #864B4D",
":. c #8D504F",
">. c #995552",
",. c #A75C56",
"<. c #B05E5A",
"1. c #8A6644",
"2. c #956A48",
"3. c #967248",
"4. c #B46D4C",
"5. c #B56759",
"6. c #C16F5C",
"7. c #C67A5C",
"8. c #CA845A",
"9. c #D38651",
"0. c #E89D54",
"q. c #EEA655",
"w. c #CB8361",
"e. c #D58A61",
"r. c #DD9462",
"t. c #E59863",
"y. c #EEA065",
"u. c #F4A966",
"i. c #FDB86B",
"p. c #FFBB72",
"a. c #FFC36D",
"s. c #FFC475",
"d. c #1C3D91",
"f. c #2B3986",
"g. c #194989",
"h. c #125094",
"j. c #2E4B84",
"k. c #294989",
"l. c #374984",
"z. c #2B538C",
"x. c #375488",
"c. c #2B4B96",
"v. c #384F94",
"b. c #285699",
"n. c #385896",
"m. c #106F8A",
"M. c #37629C",
"N. c #1B57AA",
"B. c #0959B6",
"V. c #1A5BB9",
"C. c #2A59A6",
"Z. c #245DAC",
"A. c #3859A7",
"S. c #255CB8",
"D. c #3555B4",
"F. c #1A65BC",
"G. c #126BBD",
"H. c #2A64AA",
"J. c #3866A8",
"K. c #3376AE",
"L. c #2766B8",
"P. c #3668B5",
"I. c #2574B9",
"U. c #4A4D8B",
"Y. c #455588",
"T. c #494B96",
"R. c #445895",
"E. c #745789",
"W. c #44649C",
"Q. c #46739E",
"!. c #71758F",
"~. c #4553A6",
"^. c #4565A8",
"/. c #4A6CAD",
"(. c #095DC4",
"). c #0C5ECC",
"_. c #175CC6",
"`. c #0D59D0",
"'. c #245DC5",
"]. c #0964CA",
"[. c #1563C3",
"{. c #1B64C5",
"}. c #1264CC",
"|. c #1968C9",
" X c #0B78C9",
".X c #1978C9",
"XX c #0C64D2",
"oX c #0867D6",
"OX c #156AD6",
"+X c #0B76D9",
"@X c #1675D7",
"#X c #2467C5",
"$X c #2F6DCE",
"%X c #2775CA",
"&X c #2378D8",
"*X c #076BE4",
"=X c #0B75EB",
"-X c #1777E8",
";X c #0B75F5",
":X c #2B75E9",
">X c #846F9B",
",X c #8E7DA7",
"<X c #1386A6",
"1X c #3483B6",
"2X c #7B9090",
"3X c #4482AB",
"4X c #1785C8",
"5X c #0B90C9",
"6X c #0C89D7",
"7X c #1788D6",
"8X c #0995DA",
"9X c #1697D7",
"0X c #2688C7",
"qX c #2A8ACB",
"wX c #239DDC",
"eX c #07A7DB",
"rX c #10B1DA",
"tX c #0789E9",
"yX c #108EEF",
"uX c #0799E6",
"iX c #1598E8",
"pX c #08A6E8",
"aX c #05B6E7",
"sX c #0CB1F3",
"dX c #0ECFDB",
"fX c #08E2DF",
"gX c #06C7E8",
"hX c #0DCBEE",
"jX c #05D6F5",
"kX c #06EAEA",
"lX c #03E7F8",
"zX c #03FAF8",
"xX c #879790",
"cX c #94A39F",
"vX c #948DAA",
"bX c #A397BB",
"nX c #90A7AD",
"mX c #A3ACB4",
"MX c #B1AFC7",
"NX c #B6B8CA",
"BX c #BCC5D1",
"VX c #C4C8DA",
"CX c #C7D5D9",
"ZX c #D2D8DF",
"AX c #D4E3DC",
"SX c #CDD0E2",
"DX c #D4D9E7",
"FX c #D6E6E7",
"GX c #E7EDF2",
"HX c #EAF6F7",
"JX c #F5FCFD",
"KX c #FEFFFF",
/* pixels */
"n x { _.XX_.j.F m M M M M M M G m M V v ) _.oX|.z.G B M M v s & & - s j.].oXV.' x G G n G M n Q K M M G x j.|.oXL.[ m G M M M M i ",
"^ v ! b.oXXXn.) m m G M M M G / Q G H v z._.).L.{ x B G m c d 2 6 6 1 Q Z.].{.b.M G G G G G G Q / F G G m C.oX].A.) d Q G M Q ^ h ",
"^ M s } oX`.L.{ b b G G G G G G W M H F b.`.V.R.` x G H a ; X.4.t.8.+.; Z ).}.S.^ g M M m G M v M G L x ( L.]..Xn.V x F G M V L f ",
"F M M x.$XoXXXz.a z G G D b n b Q M k J L.oX|.^.V c h c $ o :.u.s.i.3.% $ N.B.N.L u y N p s a i a x N y ( h.h.z.` B z S D M M G p ",
"G G v ^ ^.-XoXZ.V w m G n n g b ( Q h U {.].L.x.M n h h $ % 2.p.s.0.4 .   9 0 9 o . o . .       . O X . . + + @ X % * f j m ^ ^ i ",
"G M v n $.&X;X|.j.w b Q D D w z / F x n.OX[./.Y.b n C e 8 O 3.i.p.7.2 o ; ..*.....& & & 1 ........- & % 1 ..*.*...: % A j z m ( g ",
"G M M n B J.yXOXn.n z Q D k b ( _ b D P.oX{./.x.x p i i $ @ 3.p.i.4., ; =.BXFXCXvX&.R &.cXBXAXCXcX&.R %.vXVXGXHXmX... h j n ( Q g ",
"G G L n a { qXyXP.{ g M G b b G n r { &XoX[.P.^.Y.{ G i @ . 1.u.i.4., ; nXHXKXJXZXE.E E.VXKXKXKXDX>XE >XVXJXKXHXmX..= N i b G v s ",
"M G G c z B ^.uX4XR.K h c j j j y 9 n.:X+X(._.L.P.J.J.| y o X.t.i.9.< : 2XHXKXKXSX!.E E.NXJXKXKXDX,XE >XVXKXGXcX! ] l.W.l.b r M h ",
"b D G c g f _ 0XpXI.T.k g w j k i c ^.:XOX(.(.].(.).}.S.F o 2 w.p.0.4 & !.SXJXGXBXvX,XvXMXZXGXFXVXbXvXMXDXAXxXW C B.(._.P.x.0 j k ",
"b n m M k e c n.sXrX^.#.G G ] l.Y.W.P.oXoXV.{.OX*X*XoXB.( @ 2 w.a.q.-.> B >XbXbXMXCXDXZXMXvX>XvXNXDXGXJXCX=.W <X5X8XtXoX_.P.j.b u ",
"g b Q D A C m P $XjX0XU.Y.^.^.J.J.S.F.].oXL./.P.%X&X-X(.Z @ X.t.a.0.4 . # R %.E.MXJXKXJXNX&.Y %.MXKXKXHX2X; m J.1XqX7X-XoX{.S.' y ",
"s z b G b r m M R.sXjXqXA.Z.'._.[.oXoXG.{.^.$._ $.n.S.#XZ # +.u.i.9.4   * R E E.MXJXKXJXVX&.Y %.NXKXHXxXW ( { R P l.v.P.oX*XXXC.n ",
"H g k m c p u y U.$XjXlXuX5X5XuXeX5XoX]./.U.e 9 k k j k.~ o 1.a.i.4., . R !.vXvXmXZXGXGXVXvX,XbXSXFXxXW ~ R.{ i u k A n b.-X(.L.f.",
"Z.z.[ L l D A l x.'.sXzXzXzXlXgX9XJ._.XXP.$.q t ( ` V a e @ 2.a.p.4., % =.BXHXDXNXvXvXvXNXDXGXHXCX=.s  .<X^.G 9 m ( _ ^ k b.+XoXd.",
"XX[.L.~.T.M.J.Q.1XiXjXzXzXfXwXH.Y.U.$XOXL.| a t ( ( [ x # o 1.i.p.4., & 2XHXKXJXMX%.Y %.NXJXKXHX2X= N K.iXP.U j F ( / / h x S.;Xh.",
"XXoXtXeXrXaXrXhXdXkXkXdX9XM.#.I A L J.OX|.Y.l n L b S n # . X.t.i.9.< & 2XGXKXKXNXE Y %.BXKXGXxX- @ B P.tX$Xl.l l D S S b i D #Xg.",
"S.}.uXzXzXrX7X7X6X.XF.P.U.v i q j u x.&XOXM.M b D c b b 8 O 2 w.a.0.4 & !.SXKXGXBXvX>XbXDXAXxX= . 9 G ^.@X%Xn.b x L n t r f g ( J ",
"' j.Z.sXgXC.~.D.A.T.T.U n w w b r j | $XOXJ._ z F n z e 8 O 2 w.i.q.-.% ` vXMXMXNXDXGXHXCX=.= * i j z Y.%XoXn.B b ^ c e e n m b u ",
"c M c.yXaXJ.T.K F t b g w b n g t f P P.oXL.` x F M x j 8 . X.e.a.0.4 . 7 R E >XBXKXKXGX2X% @ j b e g | %X+XJ.! m G n b e b m F u ",
"M x { iXsX#Xx.a 9 j w j D G b j t g x J.OX#Xl.M m M n w 8 o +.u.i.9.4 . 7 R E >XVXKXHXxX= * x b j j q P L.@XL.[ n L M b w z n G g ",
"n n ` 7XsXXXn.) n x g j L [ G b b i a x.OX}.n.V m F M z # o 2.i.i.4., . B !.bXMXDXFXxX= * M / F h b w D J.@XF.x.l V G m b m G J g ",
"b G J 4XpXoXH.{ D G z z M [ / b j z g { L.oXC.) v G G n 8 . 3.a.i.4., % !.BXHXGXCX=.= * 9 J | G p j e x x.[.}.b.B n G M G M G G h ",
"m ^ J .XsXoXP._ c G j g b _ _ F j w k L H.oXC.) n F M M 8 O 1.p.i.4., : nXJXKXGX2X% # g r m [ / x b S j ] #XOXC.! m H M G M G G a ",
"m M ) 0XsX`.S.) v G n b b ^ _ G b g b n z.].'.] M M G M y o 6 t.p.9.< W mXJXJXcX: @ p b m c ) ] G t g j V H.oXS.! z G G M G ) G i ",
"G V ^ 7XpX`.C.P n M M G M m _ ) n b b n } [.}.j.v L G n y O 2 e.i.0.4 3 2XCXmXW @ x M m M M M ] G b z m M n.oX#X) N G G m ^ _ ( i ",
"M v _ 7XpX`.C.L n M M L M m G ) G M m n { @X+Xz.x M F n y O 2 w.a.q.-.& ! =...F a x G M M M G G G G M M v z.oX|.' B M M M Q _ / i ",
"M N [ 7XuX).C.L n G M ^ G m G ^ M M F B P 4XuXC.L m F V y O 2 r.p.u.1.%   # Z k.b M M G G M M G G G G G n l. X Xb.B n L M Q ^ / h ",
"M v { 7XuX(.C.k m M m G M M G M F G m N L .XpXL.P v G n y O +.u.p.r.+.X + ~ h.k.z n M M M M M m G M M M n l..X8XC.V n M M M m G h ",
"m x ' 7X8X_.b.x M G M M M G G M m G G N ! F.sX7X_ x G c # O 1.i.p.7.X.% ~ G.(.' x M G M M G G G G F M Q n ' G.pXL.K v M L M G G i ",
"n v ' 7X8XV.z.x M M M G M M M G M G G v M C.pX7X' B L m 8 O 3.a.p.6.2 % ~ [.V.' v M G M M G M M F M G G M I G.aX.XJ x M G M G ^ h ",
"M B c.5XuXV._ v n M M M M G G G m M G c M C.pXtXj.x S m y O 1.i.p.8.X.%  ._.C.( c M M M M M G G m v m J V G L.aX4XI V M G M G G i ",
"G n } 7XgX_.U x M M M M M G G G Q M D v G Z.pX7X} B M m y O +.t.p.t.6 &  . XC.L m G G M M M G M m M G G N K 4XaX.XJ M M M b M G g ",
"G n / %XjX4Xf.x M M G M M M G m Q M n B { F.pX.X' n M v y O 3 e.a.u.1.=  .8XF._ l M ^ M m M G M m M K L N f.9XaXH.U m m G M G G p ",
"G n n b.aXeXD.V m n G G G M G M v Q n n c. XpXH.] n G n y . 2 7.p.i.3.= ~ eX+Xz.B n m G M G G M m G G n G b.aXaXv.K m m G M G G i ",
"G M N j.9XaX{.' g z G G D F D M Q G n F C.8X9XM._ n D x y @ 3 e.p.u.1.% c 7XtXF.P z b n G G n M F F n n J L.aX9XU.J D G M M G ^ i ",
"G G N U $XaX7Xc.z g F G n b z D G ^ n ^ V.uX9XR.L b j b 8 . +.y.p.t.+.= N %XtXOX} z b G G M z j F ( V c f..XhXqXl.M D b b m M ^ g ",
"G n M N R.iXuXS.U j G M B j j S ^ M b k.[.pXqXU.n m j i 8 O 1.i.p.7.5 % ; J.yX*Xb.b h M G D j j m ^ G z c.iXhX1X{ z b e t z M ) p ",
"G M m x #.%XyX.Xl.w F n m z e H _ n z C.tXdX3X#.j A k r # o 3.a.p.6.3 % y | -X=XL.{ g n ^ S j b J ( b L S.pXdX/.R t t A S m m / p ",
"G M M D B n.yX+XJ.x w ^ m b e ^ ( A G D.yXfXQ.#.x g f j # o 1.p.p.8.5 % u B P.=X|.x.f x ^ m w S _ Q g { |.jXdX!.R C w q f n F / g ",
"G L M n N _ $XtXI.#.g n S S x n D A { $XsXkXqXR.n.x.[ x @ O +.y.p.t.6 = y N | &XOXH.] b c b b S G x N v.-XlXkX1XA.M.{ ` n h n J p ",
"G M M M g x R.-X|.^.] 9 j j g g f k R.&XjXzXgX@X'.S.^.v.a . 5 e.p.u.1.= # f B J.-X|.J.D z t t j q j l ~.iXzXzXgX.XL.P.J.n.G w n h ",
"n n M b S z B P.;X#XR.B q q w z A ! ~.iXzXzXzXlXgXuX_.S.G O 2 7.i.i.3.& 8 e h { &X*XP.Y.b q w j A A R A.hXzXaX9XuX6X].].#Xv.F f u ",
"t F ^ M S z v x.7X@X^.U.G ' | Y.W.n.P.jXzXrX7XiXhXjXgX5XZ o 2 e.i.u.1.& y b k l J.-XOX^.#.P ` $.Y.n.3XrXzXaX{.'.@XtXtXoX].|.x.x 7 ",
"g n G n j j F L P.yX.X^./.J.P.D.Z. XhXkXhXc.l f.c._.iXuX .o 6 y.p.t.+.= 8 r C n { #X;XL.^./.J.P.K.wXkXzXkX.XA./.^.P.&X-XOXXX#Xl.u ",
"p u x L j 0 t D T.iXeXN.S._.V. XeXgXeXeX0XK 7 7 p f f.S.h.@ 1.i.p.8.X.% y z r t ! J.=X(.C.L.oX6X9X6X XgXaXP.U.V B ` ` b.@XOX].'.K ",
"H D x c a i u 0 x.9XjX6X_.|.eXgXsX+XB.5XK.f f w c x u P ~ o 3.a.p.7.2 % ; i 9 8 N J.yX*XV.[.+XoX].).`. XrX/.] 9 a m c b c.OXXXoXg.",
"V.L.n.[ _ P K ` T.@XlXkXdXlXjX6X#XD.#XeXH.j e l ) [ [ h w o 2.i.p.7.5 % z L U U R J.-X;XOX}.(.V._.F.A. XiX/.K w c / { { p z.}.oXh.",
"}.].#XP.^.P.D.J.J.rXzXzXzXrX^.T.| $.K.iXqXS 9 G K H ' r @ O 6 u.s.0.6 % ^ C.J.H.K.H.[.OX(.G.L.J.~.x.$.$XtXK.` k L J G _ a p b.oXd.",
"XX].).(.G.].+XpXjXzXlXhX0XU.R l f D ^.iX9XA u m Q g b m # o 6 e.a.u.1.& ~ 4X8X8X+XoXB._.[.P.n.P x 9 ` /.7X%Xx.f n n r t j g S S.g.",
"S.]._.oX].G.eXhXgX9XI.J.l.l i 9 e q T.iX6X' f b ( n f r # % 2 7.p.i.3.% <XfXhX7X|.OX#XP.n.{ h j g 9 B W.@XOXx.k n m b S b g z G n ",
"' j.Z.=XOXP.^.Y.Y.U.#.K f w t A b i U qXtXz.h x Q G k w # % 2 e.a.u.1.&  .dXK.R.M.n.x.l.H q j S k j n Y.@XOXM.L n M F j b n F n u ",
"p d l.-X;XP.$.x g w r q j F S j b u K I.tXN.v v m G b g 8 O 6 t.p.t.+.; m.rXJ.` n p u i j z n b g j w ] #X@XH.] n m G j w b G G 9 ",
"V s ` -X;X{.x.x q j z t b ) D b j g n M.7X|.( v m M n g # O 1.i.p.8.6 @ g.aXI.[ f w g g b G G b g t g V J.@XL.x.B G F b b z G G i ",
"J F ^ @X;XXXJ.U S D j e G ` G b w b z | .XOXk.N G n n m # o 1.a.s.8.2 . g.pX Xn.G C F e e ^ _ M z C g x n.@XOXx.v M G M M M M G i ",
"G F ) #X;XoXL./ M F t j G ] ^ c g S r ` %X*Xb.v J F V M 8 O 3.a.i.8.3 o ~ uX+XA.L n M j z ( [ M b t j p z.@XOXx.N m G M G G G G x ",
"G ^ ) #X;XXXZ.` x v z j b / [ G b e b V H.+XN.G W r a 0 ; X.4.t.r.7.2.X.( m.B.' x x M z z M [ _ b e z g ] L.OXC.! x G G M G M F h ",
"F ^ ) OX-XXXH._ b M n b b G _ L S w j x z.]._./ s @ o * X.4.8.5.<.5.7.5...s 8 8 s z M b c M ) ` G b g b V C.XXS._ p M G M ^ ^ ^ h ",
"F m ) OX*X`.Z.L n M M M G G / ^ G n x x j.].N.( ; : 3 3 3.7.5.,.>.<.7.7.3.X.1 1 ; a M G M M M / ^ M x n V b.}.F.' N M M m ) [ / i ",
"F c ] &XXX`.H.G M M M M G G G ^ G n M N { F.g.s 5 :.>.,.<.5.<.,.>.,.5.5.5.,.,.:.X.= y M G G M M M M M M V c.}.{.j.M M M M m _ ) i ",
"M z [ OXXX}.C.M n m M G G M m G M ! m n ) g.M 5 >.<.<.,.,.,.>.:.:.>.,.,.<.<.<.5.>.2 : s n M G M M M M Q x j.{.XXb.L v ^ M v ^ ^ g ",
"G x [ }.`.}.N.m v m M M M M G F n V F x s N X.>.,.:.;.:.>.,.>.O.T ;.:.,.>.:.;.>.,.>.X.= s M M G M G G M x l.[.oXb.L v M M M F G h ",
"m v } G.}.[.b.n B M G M M M G F M M m z s & ;.,.,.T T T :.:.;.T T o.;.:.:.O.@.O.>.<.+.- ; M m G F F G G n ' V.oXZ.P N v G F F G h ",
"! c k.F.oX_.j.n M G F M F G G G M m m a s & T >.:.O.T T O.;.O.O.T T O.;.O.T T o.;.>.o.= ; m G M Q M M m M ' V.oX{.' v M G G ^ ^ i ",
"v N k.'.`.Z.] Q v n V M V V M V V B V x ; = 2 ;.;.T @.T @.@.T @.T T o.@.@.@.@.O.;.;.2 = p N V n V n V n B ] Z.B.L.{ F S x n L L p "
};
