/* XPM */
static char *_e483cda9b4a4e0893424ff8c776c6bfYInYr6s0jgyN7DiN[] = {
/* columns rows colors chars-per-pixel */
"65 65 245 2 ",
"   c #002664",
".  c #032D6C",
"X  c #04316E",
"o  c #063474",
"O  c #073979",
"+  c #083879",
"@  c #093C7C",
"#  c #0B3D83",
"$  c #0B4483",
"%  c #08478C",
"&  c #0D4B8B",
"*  c #11468C",
"=  c #0D518A",
"-  c #1B558A",
";  c #094D94",
":  c #154F9C",
">  c #0B5596",
",  c #0D5494",
"<  c #105593",
"1  c #115A95",
"2  c #13539D",
"3  c #135D9C",
"4  c #14609E",
"5  c #0F5AA1",
"6  c #1857A7",
"7  c #145DA2",
"8  c #225FBA",
"9  c #1561A2",
"0  c #1763AA",
"q  c #1A65AD",
"w  c #1C65B3",
"e  c #176BB4",
"r  c #1B6AB5",
"t  c #1E6ABA",
"y  c #1A71B5",
"u  c #1B74BC",
"i  c #2471AB",
"p  c #206BBD",
"a  c #0B5EDA",
"s  c #1A5DD4",
"d  c #1C7BC4",
"f  c #1C7AC6",
"g  c #1C63D7",
"h  c #1764D9",
"j  c #236DC3",
"k  c #256ECA",
"l  c #2371C5",
"z  c #2573CB",
"x  c #2577CC",
"c  c #2365D4",
"v  c #266AD6",
"b  c #2B6CD5",
"n  c #256DD9",
"m  c #296EDB",
"M  c #306ED9",
"N  c #2B74D5",
"B  c #267BD3",
"V  c #2779D5",
"C  c #2671DB",
"Z  c #2C74DA",
"A  c #2D79DD",
"S  c #3178DC",
"D  c #1C7BE4",
"F  c #2874E1",
"G  c #2D7DE2",
"H  c #317BE4",
"J  c #327AE6",
"K  c #2D82B4",
"L  c #3389B7",
"P  c #6192B9",
"I  c #7DA0B6",
"U  c #1F83CC",
"Y  c #1D85D7",
"T  c #3391CF",
"R  c #2584DB",
"E  c #2388D9",
"W  c #3583DC",
"Q  c #1D8BE5",
"!  c #1F94ED",
"~  c #1D8EF4",
"^  c #0897FF",
"/  c #1394FE",
"(  c #1E96F9",
")  c #149CFF",
"_  c #1C9CFF",
"`  c #2C83E5",
"'  c #2485EB",
"]  c #2986E9",
"[  c #2589E8",
"{  c #2C8CEC",
"}  c #3485E6",
"|  c #398BE3",
" . c #2493E6",
".. c #2B98E7",
"X. c #2495EB",
"o. c #2B91EF",
"O. c #2599EE",
"+. c #3897E9",
"@. c #228CF3",
"#. c #298EF0",
"$. c #2693F4",
"%. c #2B94F2",
"&. c #269CF3",
"*. c #2B9AF6",
"=. c #239EFE",
"-. c #299DFA",
";. c #329AF2",
":. c #0AA0FF",
">. c #1DA3FF",
",. c #18A5FF",
"<. c #37A6EA",
"1. c #28A1F4",
"2. c #24A3FF",
"3. c #2AA5FE",
"4. c #26A9FF",
"5. c #2BABFF",
"6. c #37A7F9",
"7. c #34ACFD",
"8. c #3BACFB",
"9. c #2CB2FF",
"0. c #2EBAFF",
"q. c #34B2FF",
"w. c #39B7FB",
"e. c #3BB5FF",
"r. c #3DBBFF",
"t. c #508FD6",
"y. c #739AD7",
"u. c #52B2D1",
"i. c #7AA3D9",
"p. c #4195E4",
"a. c #4C97E5",
"s. c #449DE5",
"d. c #4A9EE5",
"f. c #449CE9",
"g. c #4BA3E6",
"h. c #4BA6E8",
"j. c #4CA4EA",
"k. c #53AAE8",
"l. c #4AB2EF",
"z. c #54B4EC",
"x. c #5BB3ED",
"c. c #5CBCEE",
"v. c #46ABF6",
"b. c #49B4F7",
"n. c #43BCFF",
"m. c #4BBDFC",
"M. c #5BB7F5",
"N. c #55B9F5",
"B. c #66B6EC",
"V. c #78B9E9",
"C. c #65B9F2",
"Z. c #64BBF4",
"A. c #6ACADF",
"S. c #5EC1EA",
"D. c #45C3FF",
"F. c #4AC4FF",
"G. c #4DCAFF",
"H. c #58C5F5",
"J. c #54CBFE",
"K. c #5ACCFB",
"L. c #5CD4FF",
"P. c #59D8FF",
"I. c #66CCE8",
"U. c #7AC4ED",
"Y. c #69D2E9",
"T. c #73DDE9",
"R. c #6CC4F3",
"E. c #62C9F5",
"W. c #6BCBF2",
"Q. c #73C4F2",
"!. c #78C7F3",
"~. c #69D4F7",
"^. c #64DCFF",
"/. c #6ADBFB",
"(. c #73D9F5",
"). c #65E3FF",
"_. c #6CE4FF",
"`. c #6EE9FF",
"'. c #76EBF3",
"]. c #73E4FE",
"[. c #78E4F8",
"{. c #74EBFF",
"}. c #7BEBFD",
"|. c #74F3FF",
" X c #7BF3FF",
".X c #7CFDFF",
"XX c #87A9D8",
"oX c #8DB3DC",
"OX c #A4B9D8",
"+X c #85B5E1",
"@X c #9DC1DE",
"#X c #A0C6DF",
"$X c #B9CADA",
"%X c #85C6EC",
"&X c #89C7ED",
"*X c #99CDE9",
"=X c #97D5EC",
"-X c #84D1F2",
";X c #A3C5E0",
":X c #A7D5E8",
">X c #B7D9E4",
",X c #85E9F9",
"<X c #96EAF3",
"1X c #83F6F4",
"2X c #83F3FE",
"3X c #8BF4FC",
"4X c #84FDFF",
"5X c #8CFEFF",
"6X c #96F4F9",
"7X c #93FFFF",
"8X c #9BFFFE",
"9X c #ADE9ED",
"0X c #B7E9E9",
"qX c #AEF0EE",
"wX c #B8F4EE",
"eX c #A8FBF6",
"rX c #ACFBF4",
"tX c #A2FFFD",
"yX c #B7FCF1",
"uX c #C1C9D5",
"iX c #CAD8DC",
"pX c #D8DAD6",
"aX c #D9E6DE",
"sX c #FFF0CE",
"dX c #E2E6DD",
"fX c #E2EADE",
"gX c #EAEADA",
"hX c #FFEED7",
"jX c #F4EED9",
"kX c #F9EFD8",
"lX c #E6F2DF",
"zX c #ECF1DD",
"xX c #FFF3D6",
"cX c #FFFCD4",
"vX c #F4F4DB",
"bX c #FAF2D9",
"nX c #FEFCDA",
"mX c #C5DDE2",
"MX c #C5E4E3",
"NX c #CDE1E1",
"BX c #D9EEE2",
"VX c #C8F8EB",
"CX c #DBF3E3",
"ZX c #D8FBE8",
"AX c #E4F8E2",
/* pixels */
"gX6.>.2X7Xe.2.3.2._.4XVXxXU.) 3.3.3._ G.7X5X7X].) N.bXvXbXbXkXkXxXgX8.>. X7Xr.2.3.2._.4XVXxXU.) 3.3.3._ F.7X5X7X].) N.vXvXbXbXkXkX",
"fXv.7. X5Xe.=.3.=.].7XZXxX%X>.3.3.3.3.J.5X4X5X_.>.M.bXjXgXgXzXzXvXfXv.3.}.5Xe.=.3.=.].7XVXxX%X>.3.3.3.3.G.5X4X5X_.2.M.bXkXgXgXzXzX",
"8XaXdXb.4.` A A D $XnXvXxXqX.Xz.c z.5X^.3.5.3.D..X6XxXaX6.n.7X8X7X8XBXdXb.5.` A A C $XnXvXxXqX.Xz.c z.5X^.3.5.3.D..X6XxXaX6.n.7X8X",
"5XvXbXb.>.` Z S Z $XnXjXjXwX7Xx.g x.8X^.-.3.=.m.5XeXxXNX2.9.4X4X4X5XvXxXb.>.` Z S Z $XnXjXjXwX7Xc.g x.8X/.-.3.=.m.5XeXxXNX2.5..X4X",
"n.fXbX3X|.8.( >XgXrX8XE.3.:XnX%X/ J.4XrXdXfXdXfXzXCX8X7X4X{.q.7.7.e.fXxX6X X8.( :XgXrX8XE.3.:XnX%X/ J.5XrXdXfXdXfXzXCX8X7X4X}.e.7.",
"6.dXbX8X5Xr.2.NXcXeX4XD.^ *XcX&X) L.5XyXxXbXbXbXhXCX4X4X7X X3.=.=.3.aXbXtX5Xr.>.MXcXeX4XD.^ *XcX&X) K.5XyXxXbXbXbXhXCX4X4X7X2X3.=.",
"} 3X8XCXlX6X|.CXxXR.5.5.=./.8XwXaXfXvX:X8.v.6.Q.xXNXq.q.q.6.` G G } 3X8XCXzX6X|.CXxXQ.5.5.=./.8XwXaXfXvX:X8.v.8.V.xXNXq.q.q.6.` G ",
"S  X5XlXhXeX4XCXxXC.) 3.=.^.4XVXxXbXxX:X) 2.) M.xXmX=.2.2.*.Z Z Z S  X5XlXhXeX4XCXxXZ.) 3.=.P.4XVXxXbXxX:X) 2.) M.xXmX2.2.2.-.A Z ",
"W 2X5X8X8XCXzXR.8.7.=.L. XwXvX=X6.~.tX3X X X|.6XxXmX2.-.G G A A N S 2X5X8X8XCXzXQ.8.7.=.L. XwXvX=X6.~.tX7X X X|.6XxXmX2.-.` G A A ",
"W 2X5X4X4XlXxXN.) 2.=./.5XVXxX&X^ G.5X5X7X7X5XrXxXmX2.-.Z Z A A N S 2X5X4X4XAXxXN.) 2.=./.5XVXxX&X^ G.5X5X7X7X5XeXxXmX2.-.Z Z A A ",
"-.q.e.MXlXZ.v.>XaXNXmXBXAXzXhXqX|.L.q.e.e.e.9.Q.xXBX X/.A Z Z A *.-.q.e.MXlXR.v.:XaXNXNXBXAXzXhXqX|.L.e.e.e.e.9.R.xXBX X/.A Z A A ",
"3._ 2.dXxXv.^ NXcXxXxXhXhXkXhXwX5XL._ 2.2.2.) M.xXCX7X[.A Z Z A 3.3._ 2.aXxXb.^ mXcXxXxXxXhXkXhXVX5XL._ 2.2.2.) M.xXAX7X}.A N A A ",
"}.MXNXeX8Xn.2.b.N.,XrXW.v.,XtXVXvX-X>.%.G ` G j.tXrXAX>XZ Z N W _.}.MXNXeX8Xn.=.b.N.,XrXW.v.,XtXVXvX&X>.%.G ` G g.tXrXAXmXA Z A A ",
"7XvXxX8X.Xe.=._ ) ).7XD./ P.4XVXxX*X,.%.N Z v s.4XeXxXpXN C Z W 2X7XvXxX8X.Xe.=._ ) ).7XD.^ P.4XVXxX*X) %.Z Z v s.4X8XxXpXZ C Z Z ",
"BXZ.N.2X5X{.{.{.{.J.r.;.G | +.#XxX0X|.N.n A Z } w.R.xXaX[.~.*.6.BXCXZ.N.2X5X}.{.{.{.J.r.;.G | +.@XxX0X|.c.Z A Z } w.R.xXfX[.~.*.*.",
"jX7.)  X7X7X7X7X8Xn./ ` b m h oXcXVX7XW.n Z Z ` ) N.hXlX7X X2.6.kXbX7.)  X7X7X7X7X8Xn./ ` b m h oXcXVX7XW.n Z Z ` ) b.hXlX7X X5.2.",
"M.3.3.r.n.n.n.n.n.^.{.].[.g.v f.M.(.7X~.$.*.$.8.`.}.eXrXCXVX{._.Z.M.3.3.r.n.n.n.n.n.^.{.].[.g.v f.M.(.7X^.$.*.$.8.{.}.eXrXCXVX{.`.",
"_ 2.2.=.=.=.=.2._ ].8X7X8Xk.c ' ^ G.7XP.=.2._ n.7X5X4X8XxXvX8X3X2.) 2.2.=.=.=.=.2._ ].8X7X8Xx.v ' ^ G.7X^.2.2._ r.7X5X4X8XxXvX8X7X",
"_.]._.7.2.3.3.{ ` p.d.b.D.K.(./.).<XAXqX).,XmX9X5X Xn.m.Z.C.n.F._.].]._.7.2.3.3.{ ` +.d.b.D.6.@.m.`.<XAX=X) M.mX9X5X Xn.m.Z.C.n.n.",
"7X8X7X7._ 3.5.` Z Z v @./ ^.8X7X5XVXsXZX.XyXcXAX7X{.=.=.>.>._ 3.5X8X8X7X7._ 3.5.` N Z v @._ =._ L.7XVXcX:X^ Z.cXAX7X{.=.2.>.>.2.2.",
"m.h.g./._.+.` A Z A Z N.`. X7X^.n.N.C.=XAX9XZ.C.g.j.3.3.3.3.3.3.n.F.D.F.^._.+.` A Z A Z N.{._._.L.D.x.y.+X>X*XZ.C.g.s.` ` ` ` ` ` ",
"=.C m ,X8X| g Z Z C h W.tX7X8XJ._ >.^ Q.cX>X^ ~ v G 5.3.5.5.5.5.=.=.=.2.2X8X| g Z Z C h W.tX7XtXK._ ' a i.cX>X^ ~ n m Z Z Z Z Z Z ",
"3.A Z g.k.@X$Xj.~ +X$XR.D.l.k.+.` %.2.j.y.B.`.H.Z A { { { ` d d 3.3.{ ` g.k.@X$Xj.~ +X$XQ.D.l.k.+.` { $.f.y.B.`.H.N A A A A N t t ",
"3.A Z n n aXcXN.^ 0XcXQ.) ' m Z b { 9.$.s s.7X(.m Z Z Z H N 1 9 3.5.A N n n aXcXN.^ 0XcXQ.) ' m Z b { 9.$.s s.7X(.Z Z A A H Z 3 3 ",
"{ %.%.A Z B.!.*X:X%XQ.f.] x q R *.{ ] { ~ B.AX=X$.{ A N t w 3 9 ` { %.%.A Z B.!.*X:X%XQ.f.] x q B *.{ ] { ~ x.ZX:X$.{ A N t t 9 4 ",
"G 5.5.A Z / ^ MXcXN.^ ` S w = U 0.%.M { ,.Q.cXmX,.$.Z z 3 3 3 9 Z H 3.5.A Z / ^ MXcXM.^ ' S w = U 0.o.M { ,.R.cXMX,.&.Z z 3 3 9 9 ",
"t ` { %.%.&X:X+Xi.W.).f.m R E U d d w E 4.v.XXV.).J.%.[ 9 3 4 9 t t ` { %.%.&X:X+Xi.W.).f.m R E U d u w E 4.v.XXV.).J.%.[ 9 7 9 9 ",
"4 N H =.2.aXcXt.a ~.7Xh.c ;.0.U < 3 1 d 5.$.h p.tX}.2.! 3 3 9 9 3 3 N H =.2.aXcXt.a ~.8Xk.c o.0.U < 3 1 d 5.$.h +.tX,X2.! 3 3 9 9 ",
"9 w p H.^.V.XXp.n *XZXB.@.E d e 3 9 3 d 5.%.Z | J.J.^.H.l t 9 4 4 9 w p H.^.V.XXp.n *XZXB.@.E d e 3 9 3 d 5.%.Z | J.J.^.H.l t 9 4 ",
"3 ; > ,XtX} h Z C uXcXQ.,.d = 3 9 9 1 d 9.%.b ` _ e.8X,XH N 3 3 3 3 ; , ,XtX| h Z C $XcXU.,.d = 3 9 9 3 d 9.*.b ` _ e.8X,XH N 3 3 ",
"l u.u.K.L.;.{ o.#.=XVXx.' B p q 3 3 3 u %.{ o.{ ' v.7X}.A N j p j l u.u.K.L.;.{ o.#.=XVXB.' B p q 3 9 3 u %.{ o.{ ' v.7X}.A N j p ",
"H 6X8X7._ 5.5.5.4._.7Xd.s Z H p 1 3 1 w b ` 9.*.v p.7X[.n v m m n F 6X8X7._ 4.5.5.4._.7Xg.s Z H p 1 3 1 w b ` 9.*.v p.7X}.n v m m ",
"c.c.c.7.3.%.{ { { m.P.H.c.p.Z z p p p B %.%.5.*.n p.5X2Xc.c.c.c.c.c.c.c.7.2.%.{ { { m.P.H.c.p.Z z p p p B %.%.5.*.n p.5X2Xc.c.c.c.",
"6XZ s 3.5.` Z Z Z @./ ^.8Xk.v G H H Z { 9.5.5.*.v p.4X4X8X8X8X8X8X6XZ s -.5.` Z Z Z @./ ^.7Xz.v G H H Z { 9.5.5.*.v | 4X4X8X8X8X8X",
"L.c.z.;.{ z p j p l.P.<XVXB.' B t B { { o.o.o.{ ' j.VXqXc.H.L.L.L.L.c.z.;.#.z p j t l.P.<XVXB.' B t B { { o.o.o.{ ' j.VXqXS.H.L.L.",
"5.5X7XW v 9 1 > ; I.8XZXcXU.) d = d 9.o.c v g D :.b.cXpXv n 2.2._ 2.4X7XW v 9 1 > ; A.8XZXcX%X) d = d 9.o.c v g D :.b.cXpXv n 2.2.",
";.2X5X+.' l w P I I.P.&XOXQ.P.+.6 E 4.8.z.B.XX+X%X&X:X%X{ { %.%.#.;.2X5X+.] l w P I I.P.%XOXQ.P.+.6 E 4.8.z.B.XX+X%X&X:X&X{ { %.%.",
"} 3X7X7._ G Z iXnXC.) ' h R.tXx.g ] _ G.8XyXnXnXcXNX,.>.5.3.A Z Z H 3X7Xq._ G m iXnXZ.) ' h R.tXx.g ] _ F.8XyXnXnXcXNX,.,.5.3.A Z ",
"z K.^.J.J.;.' :XZXx.~ ` m l._.H.k.N.G.K.E.U.OX$XxXiX$.%.%.{ j j j l K.^.J.J.;.' :XZXx.~ ` m l._.H.k.N.G.K.E.U.OX$XxXiX%.%.%.{ j j ",
"9 ( 2.3X8Xq.) `.7Xd.v Z N #._ ^.tX8XtXR.c v a t.cXiXZ Z H N 3 3 3 9 ( 2.3XtXq.^ _.7Xd.v Z N ' / K.tX8XtXR.c v a t.cXiXZ Z H N 3 3 ",
"9 &.5.L.).Q.V.W.~.| Z ` { *.2.b.W.~._.m.] { ' k.ZX:XZ N l j 9 4 3 9 &.5.L.).Q.V.W.~.| Z ` ] 8.G.K.W.~._.N.] { ' k.ZX:XZ N l j 9 4 ",
"9 1.5._ _ aXcXt.h n v @.2.2.5.] c ' 2.2.5.5.2.D.7X(.Z z 4 4 9 9 3 9 1.5.) / NXcXt.h n v @._ ^.tXx.s ' 2.2.5.5.2.D.5X].Z z 3 3 9 9 ",
"t o.*.n.F.*X$Xa.' f.k.b.G.e.2.%.` { %.%.%.%.$.8.`.K.{ B , , 4 9 w t { *.C.Q.;X$Xa.' f.k.b.F.L.{.l.` { *.o.E E Y <.7X[.{ R 9 3 , , ",
"Z v m ,X8X| g *.4.].8X7X8XJ.=.2.2.{ N Z Z Z Z ` 2.2.5. .o o 4 0 Z Z v b dXcXt.h *.4.].8X7X8XJ._ 2.5.%.H j 3 3 , L 8X}.5.&.9 3 o o ",
"] s.h./._.| Z { %.K.{./.(.m.=.e.G.+.Z N k z j B 3.3.5. .o o & 2 ` { s.h.:X>Xt.C { %.K.{./.(.m.2.3.5.[ k w = < % i {.L.5.O.9 3 o o ",
"7.5X8X7._ G Z Z N %.4.] m %.4.^.tXZ.m j 4 9 3 u 5.3.2.Q . . . @ &.7.3X8Xq._ G Z Z b %.4.] m %.9.5.5.U 1 & o o . , 4.2.2.X.3 < o o ",
"5.I.Y.7.2.{ ` ` ` [  .x 8 x Y l. XN.] l = < & q -.6.F.<.2 , o # &.5.I.Y.7.2.{ ` ` ` [  .x 8 x Y X.5. .u 7 o o X ;  ...F.w.u e + o ",
"3.5 > &.5.5.5.5.5.y 1 @   .   e 5.3.9.d   o . * Z p.8X2X4.! . o 3.5.7 > O.5.5.5.5.9.u 1 @   .   e 9.5.9.d . o X @ , i 8X2X4.! o . ",
"%.r q E X. . . .X.u q 2 * # . q O.&.5.d O # @ 2 Z | {.).D.8.2 2 %.*.t q E X. . . .X.d q 2 * # . q O.&.5.d O $ @ & 6 U {.).D.8.2 , ",
"Z Z Z 9 1 3 3 3 3 N H H } 2   $ < d 4.Y 3 3 , 0 Z ` 2.e.8X3X9.3.Z N Z Z 9 1 3 3 3 3 z H H } 6   $ < d 4.Y 3 3 , 0 Z ` 2.e.8X3X5.5.",
"` ` ` t 0 9 4 3 < w k k N 6 # 7 e T D...7 i L T ` `  .<.T.Y.*.%.` ` ` ` t 0 9 4 3 < w k k N 6 # 7 e T D...7 i L T ` `  .<.T.Y.*.*.",
"5.5.5.G Z q 9 @ o o o & 1 j H o.2.L.tXR.s j.tX].5.O.3 3 3 7 Z G 3.5.5.5.G Z q 9 $ o o . & 1 j H o.2.L.tXW.s g.tX}.5.O.3 3 3 7 Z H ",
"*.O.X.` ` 7 < @ o o o 3 y B ` o.*.b.'.S.| z.,XE.X.E 3 3 3 9 z N *.-.O.X.` ` 0 < @ o o o 3 y x ` { *.b.'.S.| k.}.E.O.E 3 3 3 9 z N ",
"N 9 4 1.5.%   . X .   d 9.5.5.o.H j ; t.tXW.n k 3 3 9 9 9 9 4 9 Z Z 9 3 1.5.%   . X .   d 9.5.5.o.H j ; t.tX(.n k 3 3 9 9 9 9 9 9 ",
"N 9 4  .&.9 - * # - - E 3.*.O.R N p 5 T 1XS.G x 3 4 9 9 9 3 < 3 Z A 9 4  .&.9 - * # - - E 3.*.O.R N j 5 T 1XS.G x 3 4 9 9 9 3 3 3 ",
"Z 9 3 3 3 T.8Xp.g (.8Xk.F t 4 4 1 t H j , u 4. .3 3 9 9 9 3 o @ Z A 9 3 3 3 T.8Xp.g (.8Xk.F p 4 4 1 t H j , u 4. .3 3 9 9 9 3 o o ",
"z q 0 3 3 Y.2Xh.} ~.4Xs.v w < 7 9 p Z j 7 x r...9 9 9 3 3 < o @ z N q 0 7 3 Y.2Xh.W W.4Xg.v w < 7 9 p Z j 7 x r...0 0 9 4 3 < o o ",
"9 Z G 9 3 k Z (.8Xd.m w 4 $   6 } j 3 t m h.8X(.Z z 4 < o o o + 3 9 Z A 9 3 k C (.8Xg.m t 4 $   6 } l 3 t C h.8X(.Z z 4 1 o o o o ",
"3 N N q 9 W | Y.1Xs.F t 4 & + 6 Z w , w F s.1XI.G V 0 3 o o o + < 3 z N q 9 W | Y.1Xs.F t 4 & + 6 Z w , w Z s.1XI.G V 0 3 o o o o ",
"+ 3 9 N Z [.7XL >  .5.d 1 j } 6 X o X 2 H z 3 u 5.*.A k o o o o o + 3 9 N Z [.7XL >  .5.d 1 j } 6 X o X : H z 3 u 5.*.A k o o o o ",
"o < 3 V G (.4XK , ..r.x 3 j A 6 . o . : H j > y 3.*.` z O + o o o o < 3 N G (.4XK ; ..r.x 3 j A 6 . o . : H k > e 3.*.` z O + o o ",
"o X o X.5.y 4 4 > Y.8Xk.F 6 X o o o X 2 } z 1 w G ` 5.X.9 < o o o o o o X.5.y 4 4 > I.8Xk.F 6 X o o o X : H z 1 q A ` 3.O.9 1 o o ",
"@ @ $ X.3.e 3 9 7 I.7Xg.n 2 X o o o X : G j 4 w N ` 5.&.9 3 + + + + @ $ X.5.e 3 9 7 I.7Xg.C 6 X o o o X : G z 9 w N R 5.&.9 3 O + ",
"N *.3.G A Z N N N *.q.d 3 7 9 & o o o $ 9 t G z 3 y 5.&.9 3 3 3 3 9 O.3.` A A Z Z N *.q.d 3 7 9 & o o o $ 9 t A z 3 y 5.&.9 3 3 3 ",
"G 3.5.G Z A A A Z %.5.d 1 9 9 & o o o $ 4 t H z 1 e 5.O.9 3 9 9 3 9 1.5.G Z A A A Z %.5.d 1 9 9 & o o o $ 4 w H z 1 e 5.&.9 3 9 9 "
};
