/* XPM */
static char *_068499138c44496dab38dd48b69dbf0SkAu6NcKZmX7Ycnz[] = {
/* columns rows colors chars-per-pixel */
"65 65 216 2 ",
"   c black",
".  c #2C293C",
"X  c #211E3E",
"o  c #5B2536",
"O  c #1B2749",
"+  c #1B324D",
"@  c #1D2C54",
"#  c #1D2D5A",
"$  c #182754",
"%  c #1D3255",
"&  c #1D325A",
"*  c #1A3654",
"=  c #232446",
"-  c #252A46",
";  c #23254A",
":  c #242B4C",
">  c #2B284A",
",  c #2C344C",
"<  c #26354B",
"1  c #343B45",
"2  c #232C54",
"3  c #2A2E53",
"4  c #232D5B",
"5  c #2B2D5B",
"6  c #262658",
"7  c #3C2155",
"8  c #322C5C",
"9  c #243355",
"0  c #2B3454",
"q  c #253C55",
"w  c #2C3A55",
"e  c #24335B",
"r  c #2B355B",
"t  c #253A5C",
"y  c #2B3A5D",
"u  c #323553",
"i  c #31365A",
"p  c #313A5C",
"a  c #363B57",
"s  c #302644",
"d  c #1D2E64",
"f  c #1A3664",
"g  c #0E3172",
"h  c #262C63",
"j  c #243462",
"k  c #2B3563",
"l  c #263B62",
"z  c #2B3C62",
"x  c #2C3C6A",
"c  c #28386A",
"v  c #323562",
"b  c #323C63",
"n  c #343B6B",
"m  c #3A3864",
"M  c #2A3B75",
"N  c #353D75",
"B  c #752847",
"V  c #4C2372",
"C  c #443B6F",
"Z  c #413E56",
"A  c #1E425E",
"S  c #28415B",
"D  c #32415D",
"F  c #28424E",
"G  c #244163",
"H  c #2C4264",
"J  c #2D436B",
"K  c #28496C",
"L  c #334365",
"P  c #33436B",
"I  c #33496D",
"U  c #3A466B",
"Y  c #2C4675",
"T  c #334473",
"R  c #344B7B",
"E  c #384876",
"W  c #385578",
"Q  c #335372",
"!  c gray37",
"~  c #444677",
"^  c #49527C",
"/  c #42476C",
"(  c #862136",
")  c #BE2633",
"_  c #B14869",
"`  c #1C399A",
"'  c #573F9D",
"]  c #2B4986",
"[  c #324C83",
"{  c #344989",
"}  c #2B5388",
"|  c #375689",
" . c #3F4191",
".. c #344A99",
"X. c #2C559B",
"o. c #2A5798",
"O. c #385896",
"+. c #2D4493",
"@. c #396399",
"#. c #144ABA",
"$. c #0B5BBD",
"%. c #1C5AB9",
"&. c #1855AB",
"*. c #2859AA",
"=. c #3A5BA4",
"-. c #255BB4",
";. c #3758B5",
":. c #3149AF",
">. c #0A64BC",
",. c #1A65BB",
"<. c #0F75B6",
"1. c #2A63AA",
"2. c #3967A9",
"3. c #2461B3",
"4. c #2967BA",
"5. c #3668B6",
"6. c #3873B9",
"7. c #2F75B0",
"8. c #45498A",
"9. c #465788",
"0. c #565688",
"q. c #4A4D97",
"w. c #495997",
"e. c #534D8F",
"r. c #476698",
"t. c #4C6396",
"y. c #475AA7",
"u. c #544CA4",
"i. c #4668A9",
"p. c #5569A6",
"a. c #4671AE",
"s. c #4468B5",
"d. c #4974B5",
"f. c #6B7BBB",
"g. c #6A4794",
"h. c #085BC8",
"j. c #165CC8",
"k. c #075DD3",
"l. c #1853CB",
"z. c #245AC8",
"x. c #3759D2",
"c. c #0D63CD",
"v. c #0866C9",
"b. c #1463C4",
"n. c #1A64C4",
"m. c #1463CB",
"M. c #1868CB",
"N. c #0877CD",
"B. c #1776CB",
"V. c #0562D4",
"C. c #0D64D2",
"Z. c #0D6CD4",
"A. c #0464DB",
"S. c #0669D9",
"D. c #1568D7",
"F. c #0876D8",
"G. c #1775D9",
"H. c #2766C7",
"J. c #3769C9",
"K. c #2477C8",
"L. c #3572C7",
"P. c #2474D9",
"I. c #3573DA",
"U. c #0769E7",
"Y. c #156FE4",
"T. c #0675EA",
"R. c #1776E6",
"E. c #0775F8",
"W. c #0F73F2",
"Q. c #2774E9",
"!. c #446DCB",
"~. c #A657A9",
"^. c #2981B9",
"/. c #4580B0",
"(. c #0987CA",
"). c #0A83D7",
"_. c #1787D9",
"`. c #039ADE",
"'. c #1697D8",
"]. c #128EC9",
"[. c #2486CA",
"{. c #2B8AD0",
"}. c #06A6D9",
"|. c #17BADC",
" X c #0BADD2",
".X c #28B8D7",
"XX c #0689E6",
"oX c #039AE2",
"OX c #0499F5",
"+X c #1289F1",
"@X c #2786E5",
"#X c #05A7E8",
"$X c #05B7E6",
"%X c #08A3F5",
"&X c #05B6F8",
"*X c #17B3F2",
"=X c #10CBDA",
"-X c #02C9E8",
";X c #04D8E9",
":X c #07C7F8",
">X c #03DAF8",
",X c #14CBEF",
"<X c #02E6E9",
"1X c #01E6F7",
"2X c #01FEF3",
"3X c #02FEFD",
"4X c #06F9F6",
"5X c #06F4EE",
"6X c #9D9D9D",
"7X c #B1B1B1",
"8X c #EE9191",
"9X c #8190C5",
"0X c #B2DCEF",
"qX c #DDDDDD",
"wX c #F9D7C5",
"eX c white",
/* pixels */
"r u [ j.j.M.[ f S p p p p p p z y b p w L -.A.n.} z r z p p p p p r b X.c.c.-.J y p r i b p a z n w p z u o.n.m.*.K l x a a y r = ",
"z w b 1.V.C.O.y t t t t t y y x t z c q { D.k.3.R 0 a b l l z l l l r R Z.h.n.R r z z l z l t l c t z k t -.S.c.O.D w l t y y y ; ",
"l y < Q V.h.-.E t r l z z z z x F z c q *.j.%.i.L 0 z c t y y y t y e D 3.j.j.*.y e b l t z q D z z b t K ,.Z.,.8.u w G z y H b ; ",
"l L e W Y.C.Z.W + e z b z r k e F y 5 z 1.V.M.@.p 9 e l w y y y y p w w 1.W.U.3.b O y z y p r 0 y z i 0 } M.v.4.9.z & c k y y z > ",
"z y i J i.Y.k.o.0 9 z p e 2 e e H S 3 ] n.v.4.O.w r 3 3 9 z z z l t q , ^ Q.U.,.| O 9 z b t 4 e S z 0 * *.Z.<.i.~ q e 6 e y y y = ",
"z b w t ^ _.E.H.R O 9 H z v @ 9 I l > O.D.>.a.9.e x d d 7 7 7 7 7 7 7 7 a r.W.F.3.e # m l r 4 2 t J , l H.XX[.y.m 9 h h 4 q G J O ",
"z r y k m 2.+XM.O.4 e A k 8 @ H I e 0 5.A.%.s.E - 0 7 7  . . . .8. . . .7 7 7 T.7.R 2 p G & e % P T O E P.oX6.t.t * e 4 r 9 G J = ",
"z z z y , { _.+Xy.n : G z 4 t H y * T P.U.4.a.w.E 7 8. . . . . . .) ) ) ) ) ) 7 7 q.2 * b e @ l L z : O.+X#X5.a.[ U , - @ z H < > ",
"z z c 0 + v s.%XK.w.6 r e 4 9 k < + w.Q.S.v.j.5.7  . . . . . . .) ) ) ) ) ) ) ) ) 7 7 : r e @ k 0 2 m 2.OX>X<.:.J.i.i.9.j 4 y q - ",
"r y z q 9 3 E '.}.7.e.O e 4 4 6 X + i.Q.D.$.v.7  . . . . . . .) ) )  . . . . . . .)  .7 6 # e 4 O X 8.4.$X2X-XZ.l.h.>.H.i.S O n 3 ",
"e e y t 5 4 9 w.&X].y.E & & c T E @.6.S.S.#.b.7  . . . . . .)  . . . . . . . . . . . . .7 # 9 k T W y.B.<X4X4X4X}.).F.h.H.@.f 4 - ",
"2 e S r h f t b @X>X7.0.^ t.p.2.i.5.*.v.A.5.7  . . . . . . . . . . . . . . . .wX_  . . .8.7 t.p.a.2.:._.3X Xs.{.'.@X+XU.h.H.X.q X ",
"s e z z e $ K q y.:X;Xy.=.1.z.#.$.k.C.>.>.i.7  . . . . . . . . . . . . . . .wXwX8X_  . . . .7 j.V.#.$.;X-X*.w.~ 9.O.2.P.Z.A.j.| X ",
"e + 5 z z > - < e.P.1X;XF.>.<._.'.'.S.v.s.7  . . . . . . . . . . . . . .8XwXwXwXwX_  . . . . .7 #.(.>X3X].y.E ; ; h h k P.U.&.4.h ",
"*.] J t ; 5 4 # | D.*X3X4X5X4X>X X&.j.k.s.7  . . . . . . . . . . . .8X8XwXwXwXwXwX8X_  . . . . .7 $X'.;X[.0.& O z P L e x Z.S.h.M ",
"c.3.1.q.e.] O.e.9.R.:X4X3X4X|.4.w.w.J.U.7 8. . . . . . . . . .7 7 8XwXwXwXwXwXwXwX8X_  . . . . .7 =.u.]._.i.j % H K Q T s Y Y.D.g ",
"v.C.F._.{.|.|..X=X5X2X<X$X7.e.N h U 6.Z.7  . . . . . . . ._ 8X7 7 7 8XwXwXwXwXwX8X7 _  . . . . .8.7 ~ [.OXy.N h v k e j 0 : { R.d ",
"n.D.oX2X3X-X`.#X#X).^.7.q.a : : 4 - @.Y.7  . . ._ _  . ._ 8X_ _ _ 7 7 wXwXwXwX7 7 7 _  . . . . . .7 U J.F.6.] 2 u v e f 2 6 % } c ",
"] o.*.&X;X*.:.y.;.q.q.8.v O @ e & 4 9.J.7  . . ._ _  . ._ _       o o wXwXwX8Xo o o _ 7  .7 7  . . .7 r.G.M.| < l H 0 & 2 r t 9 : ",
"t t +.OX=X;.y.N J j j @ $ e e 4 & 6 n 6.7  . . ._ _  . ._ o 0X0X      wXwXwXo 0X    7 7 7 7 9 7 7 7 3 9.G.D.| w l z e 4 % e z e X ",
"q 9 { '.&X-.9.O O 4 2 4 r z e 4 e 2 w 5.7  . . ._ _  . .8X8X0X0X      wXwXwX0X0X    7 7 7  .7 4 e 4 2 R K.Z.2.p r b e & @ e z z = ",
"y r v _.&Xh.@.b e r 2 9 b T z 4 4 < : O.D.7  . .7 _  . .8X8XeXeXo     wXwXwXeXeXo   _ 7 7 7  .7 2 j 2 x 4.Z.4.E u b z e e r z z > ",
"t z r [.&Xk.5.T k z 2 4 z I H 4 e 2 2 W H.7  .7 7 7  . .8X8XeXeXeXo eXwXwXwXwX8XeXo _ 7 7 7 7  .7 h $ r 2.m.n.[ u k z z z y l z ; ",
"t J z [.%Xk.5.P e z 9 @ e I I l 4 % 4 D 1.A.7 7 7 7 7  ._ 8XwXwXwXwXwXwXwXwXwX8XwXwX8X7 7 7 7  .8.7 h 9 | M.m.| u l z p z y z z - ",
"t D b [.*Xh.-.D w n e e e H I z 4 2 j i o.v.7 7 7 7 7  . ._ 8XwXwXwXwX_ _ _ wXwXwXwX_ 7 7 7 7 7  .8.7 7 I H.Z.*., t z z z L l t ; ",
"b y w _.%Xh.3.m e y y z y t U b r e 9 r | b.m.7 7 7 7 7  . ._ 8XwXwXwX8X8X8XwXwXwX_ 7 7 7 7 7 7 7 7 7 e p 1.S.;.w p z y t L I l ; ",
"t y L {.#Xh.;.p t y y b t t H L t y l r R G.F.{ 7 7 7 7 7 8._ _ 8XwXwXwXwXwXwXwX_ 7 7 7 7 7 7 7  .k y y y *.F.3.L i t y t L I H ; ",
"z 0 P _.#Xj.-.i r y y H z t z z z y t i n _.`...r ! ! ! ! ! ! ! 8X8X8X_ _ _ _ 7 7 7 7 7 k 7 7 7 7 z y y p X.F.,.E r z p t y H J = ",
"y 0 P _.oXh.*.u e z y t y z z z z z S u b B.#X-.! ~.~.6X6XqXqX! f.8X_ _ _ _ 7 7 7 7 7 7 7 t 7 7 7  .t y r ..N.(.{ 0 b y y y t z = ",
"t w P ).`.j.*.> y z z y y z b y t z l u L b.$X! ~.~.~.6X6X7XqX! f._ _ _ _ _ 7 7 7 7 7 7 7  .t z 7 7 y y 0 { (.#X..0 r y b y l z = ",
"z 0 T _.`.%.X.0 y z y y y y y y e z G 0 L &.&X! ~.~.6X6X7XqX! f.f._ 8X8X8X8X_ _ _  . .7 7 8.z t y y y z w ] (.&X-.p r y b y z P = ",
"z 0 +.].`.-.P q b t t y y z z z y y z w D *.#X! ~.~.6X6X7XqX! f._ 8X8X8X8X8X8X_ _ _ _  . . . .z w y l x p P B.$X,.b t p l y z z = ",
"z r R _.-X%.n w y y y y y z z k y y k w L -.$X! ~.~.6X6X7XqX! f._ 8X8X8X8X8X_ _ _ _ _ _ l t z t y V V z w N '.$X*.y y y l y t b = ",
"z r x K.>XN. .w t z z t y t z z S y r w T <.! F 1 ! ! ! ! ! f.f.8X8X8X8X8X8X_ _ _ _ 8X8X_ t y y V V V r u +.&X}...b t l z y t z = ",
"k y r o.-X}.:.p t y z b z y z y S y i r +.! F o 1 1 1 ! ! ! f._ _ _ _ 8X8X_ _ _ _ _ _ _ 8X8X_ V V V V r y *.:X'.8.b t l z p z z = ",
"z y w Y '.$Xj.T 2 e t b z k z t S z r l *.! ~.! F . 1 ~.6X7XqX! V V V V V _ _ _ _ _ _ _ _ _ V V V V i e Y B.>X7.N n k t z y l b = ",
"z z , N !.$X)...3 2 z z e e e r S J r y 3.! ~.! ! 1 ! ~.6X6X7X! V V V V V V V V _ _ _ _ _ V V V V D a & +.].;Xs.E r k 9 e r z z = ",
"z r y p q.%XoX1.n 4 z z a 2 h j H y e ] H.! ~.6X! 1 ! ~.~.6X7XqX! V V V V V V V V _ _ _ _ V V 2 z H z 9 *.OX,Xi.H 9 e # * w H L = ",
"z y l 0 / P.OX4.{ $ z e y 9 # c I i + ;.! ~.~.6X7X! 1 ! ~.6X6X7X! V V V V V V V 2.9X9X_ _ _ _ e P G e n H.-X=X0.n l j h e e y L = ",
"z y t v D @.+XB.2.2 9 H t & % H J e q x.! ~.6X6X7X! 1 ! ~.6X6X7XqX! V V V V V V 9X9X9XV V V V V I t 2 | Y.<X.Xg.n # $ @ 4 c l J - ",
"z b y z , L I.T.4.^ O b j j 5 r l 6 I x.! ~.6X7X! ! B B B B B B B B V V V V V 9X9X9X9X9XV V V V V 0 8 y.+X3X=Xy.=.| I y 9 0 z z = ",
"z y k w 5 0 r.R.b.i.x O j 4 2 , h 4 w.Q.! 6X7X! ! B B B B B B B B B B V V V 9X9X9X9X9X9Xt V V V V V v 5.%X4X3X=X,.5.5.i.W e @ v = ",
"r r p t h 9 w 6.W.4.w.> $ $ $ + 6 L y.XX! ! ! ! B B ! ! ! ! ! ! ! ! ! V V ! ! 9X9X9Xi.E @ $ V V V V / J.>X3X XoX#XG.$.b.5.[ @ 5 - ",
"e f D t f e < | +XN.p.^ e Y ~ 9.r.9.5.! ! ! 1 F f.! ~.6X6X6X7X7X7XqX! ! ! 7XqX! K.W.H.p.b b / ^ 8.8.d.|.2X}.j.z.F.OXT.h.j.H.P 9 X ",
"2 k y r 4 e H k 5.OX%.p.p.2.i.5.*.B.! ! ! ! ! ! f.! ~.~.6X6X6X7X7X7XqX! ! 6X7X! ! P.U.5.p.p.2.5.^.|.4X2X;X%.2.d.2.L.Q.+Xv.C.1.U X ",
": . 0 n 4 @ A v ' *X}.&.4.j.#.v.}.! ~.~.6XqX! ! f.f.! ~.~.6X6X6X7X7X7XqX! ~.6X7X! 6.T.,.1.n.v.XX'.].N.<X#Xy.0.> L U U 1.R.C.k.;.. ",
"M e 0 9 + : ; + } '.>XN.#.M.`.;X! ~.~.6X6XqX! ( ( ) ! ! ~.6X6X6X6X7X7XqX! ~.~.6X! ) E.V.,.b.F.S.$.k.#.`..Xu.x O e e - j *.Y.j.A.f ",
"3.3.O.I x b n p e.R.5X5X$X4X<X! ~.~.6X7XqX! ( ( ) ) ) ) ! ~.6X6X6X! ! ! ) ! ! ! ! ) ) U.m.v.h.-.M.,.;.).'.y.h + q I [ T , 3.C.v.` ",
"C.c.H.5.s.=.5.=.y.|.4X4X2X X) ! ~.6X7XqX! ( ) ) ) ) ) ( ( ( ! ! ! ( ) ) ) ) ( ! ! ( ) ) h.>.4.5.y.W 0.I.oXr.i 5 c n H L - i %.Z.d ",
"c.v.h.h.,.v.F.oX>X2X4X:X[.e.) ! 6X7X! ! 8X8X8X8X8X8X( ( ( ( ( ( ( ( ) 8X8X8X( ( ( ( ) ) ) a.| z 3 $ I !.F.7.R 2 z e @ l 2 @ M H.f ",
"-.Z.j.V.v.<.#X,X$X'.^.2.E 8 ; ! ! ! ! 8X8X) ) ) ) 8X6 & ( ( ( ( 8X8X8X8X8X8X8X8X( ( ( 5.O.I 2 6 3 $ b a.T.H.Q 6 y q j 4 e 9 9 P 3 ",
"Y Y 1.W.D.5.i.9.8.e.~ N 6 @ & 5 j O E ) ) ) ! ! ! ) 3 & j z 9 8X8X8XB B B B B B ( ( O.R 4 $ e 4 3 2 e r.R.M.| k y S j 4 e t e e = ",
"9 1 R R.E.5.^ < % % + $ 4 z e 4 e ; f.f.f.f.! ! ! ) r # 5 z q 0 0 B B B B ! ! ! 3 - = 3 2 r e e 2 e 2 | P.c.O.b r H j 4 @ t z r O ",
"y , U R.E.n.9.3 $ 4 e & j P z 4 e f.f.f.f.! ! ! ! e e # 5 k y l y p f.f.f.! ! ! 6 @ 2 2 e P l r 2 f O n L.B.5.E 0 z t e 2 e z z = ",
"x c H K.E.k.2.P c c 4 # z U y 4 ) ) ) ) ) ! ! ! x t p z p y z l z l f.f.! ! ! ! j j z # # J J 0 2 f : i 5.F.H.W 0 l y y r y z H ; ",
"z l y H.E.V.4.I 0 t % e c I J 9 ) ) ) ) ) ) ) , M t a z t z n k t B B B ! ! ! y.e y e 2 e J Q y 9 f 3 , o.XXj.U < x y z z z z z : ",
"l H D H.W.C.1.P 0 y e 5 e J I ) ) ) ) ) ) ) -.y z k p l l b b y y B B B B B m.O.0 0 r 9 @ z E L e e 2 2 W M.m.o.p 0 z t z y t l ; ",
"l J D M.W.k.1.L e y 0 e e z T ) f.f.) ) ) S.%.n q z y t L L z t B B B B B XXj.O.r y y t e y L I e e 4 e P -.C.1.p , z y b L H z = ",
"c t m G.Y.h.5.l e y y y z z ) f.f.f.f.) } v.n.[ q z y y y U L t B B B B XXF.j.| 0 y z y z t t L y r 0 r p -.C.3.b 0 y y t U I z = ",
"l e P G.V.j.1.y y y y z z l ) f.f.f.f.u R >.D.X.w r y t z L L y B B B B R.S.m.{ 9 y z y D z y b L t y p p *.j.,.Y y y z y y I J = ",
"y 9 I D.j.c.3.y w y y y z ) ) ) f.f.) u I %.A.*.w r z y y z y B B f.f.f.Y.v.M.] < z z t t L y y y y y y e ..c.n.[ y q b y w l H ; ",
"H 0 I Z.j.m.&.e 0 l y z y ) ) ) ) ) ) ) n ,.U.*.D r l p y y z B B f.f.f.D.h.m.[ < y z r y y z b t y z t 0 O.c.Z.| p y y y y l z > ",
"y q I >.c.m.X.i i l z y z ) ) ) ) ) ) ) I *.k.,.L 0 z l z z H B B B B B B h.3.N 0 H z l z z y z t l H z y [ m.V.X.i w y l y z z - ",
"D q } ,.A.m.Y p y z y l y ) ) ) ) ) ) ) P 3.A.M.} , p l l t t B B B B B B S.*.z y l y y l y l y y y t t t ] n.A.-.z w H y c J z ; ",
"p , { z.l.*.Y S S y p i p p p i p p p 0 a *.k.-.{ y a y p y i p p i y o.j.z.X.l w y p p p i y p p r p p 0 [ -.$.X.I l e i p b i = "
};
