/* XPM */
static char *result[] = {
/* columns rows colors chars-per-pixel */
"65 65 222 2 ",
"   c black",
".  c #2F283B",
"X  c #211E3E",
"o  c #5B2536",
"O  c #1B2749",
"+  c #1A324C",
"@  c #1D2C54",
"#  c #1D2D5A",
"$  c #1A2753",
"%  c #1D3255",
"&  c #1E325A",
"*  c #1A3654",
"=  c #232446",
"-  c #252946",
";  c #24254A",
":  c #242B4C",
">  c #2B294B",
",  c #2C344C",
"<  c #26344A",
"1  c #343A46",
"2  c #232C54",
"3  c #2A2E53",
"4  c #232D5B",
"5  c #2B2D5B",
"6  c #262758",
"7  c #3C2155",
"8  c #322C5A",
"9  c #243355",
"0  c #2B3454",
"q  c #253B55",
"w  c #2C3A54",
"e  c #24335B",
"r  c #2B355B",
"t  c #253A5D",
"y  c #2B3A5D",
"u  c #323553",
"i  c #333B54",
"p  c #31365A",
"a  c #313A5C",
"s  c #3B3B5D",
"d  c #302644",
"f  c #1A3563",
"g  c #182F6A",
"h  c #262C62",
"j  c #243462",
"k  c #2B3663",
"l  c #263B62",
"z  c #2B3C62",
"x  c #2C3C6A",
"c  c #28386A",
"v  c #333563",
"b  c #323C63",
"n  c #343B6B",
"m  c #3A3766",
"M  c #2A3B75",
"N  c #353D75",
"B  c #382B64",
"V  c #2E1E5D",
"C  c #752847",
"Z  c #4C2372",
"A  c #423A70",
"S  c #1E425E",
"D  c #29415A",
"F  c #33425C",
"G  c #28424E",
"H  c #244163",
"J  c #2C4164",
"K  c #2D436B",
"L  c #28496C",
"P  c #324365",
"I  c #33436B",
"U  c #33496D",
"Y  c #3A476A",
"T  c #2C4777",
"R  c #324473",
"E  c #344B7C",
"W  c #374877",
"Q  c #385478",
"!  c #305475",
"~  c gray37",
"^  c #50575E",
"/  c #464976",
"(  c #474D70",
")  c #862136",
"_  c #9F2436",
"`  c #BE2633",
"'  c #B14869",
"]  c #CF7179",
"[  c #1C399A",
"{  c #573F9D",
"}  c #2C4B83",
"|  c #2B498A",
" . c #324C82",
".. c #354A89",
"X. c #2A5388",
"o. c #375689",
"O. c #3F4191",
"+. c #344A9A",
"@. c #2B559B",
"#. c #295797",
"$. c #375897",
"%. c #2F4096",
"&. c #396299",
"*. c #095BBC",
"=. c #1C5BB9",
"-. c #1351B2",
";. c #2B5BA4",
":. c #2759AB",
">. c #3B5CA5",
",. c #255BB5",
"<. c #3650B2",
"1. c #1A64BB",
"2. c #0C72BA",
"3. c #2A63AA",
"4. c #3A67A9",
"5. c #2461B3",
"6. c #2867B9",
"7. c #3668B5",
"8. c #3872BB",
"9. c #2C75B3",
"0. c #45498A",
"q. c #455689",
"w. c #484C96",
"e. c #495999",
"r. c #525899",
"t. c #555188",
"y. c #476599",
"u. c #4C6396",
"i. c #465AA6",
"p. c #4B56B3",
"a. c #4668A8",
"s. c #496EB0",
"d. c #6B7BBB",
"f. c #6A4794",
"g. c #0B5CCC",
"h. c #0659C6",
"j. c #165BC9",
"k. c #075DD4",
"l. c #1450CB",
"z. c #245AC8",
"x. c #0D63CC",
"c. c #0766C9",
"v. c #1A64C4",
"b. c #1463CB",
"n. c #1B64CA",
"m. c #1668C9",
"M. c #0976CC",
"N. c #1A77C6",
"B. c #0562D4",
"V. c #0D64D2",
"C. c #0869D8",
"Z. c #1667D6",
"A. c #0876D8",
"S. c #1874DA",
"D. c #2866C7",
"F. c #3668C9",
"G. c #2477C8",
"H. c #3572C7",
"J. c #2474D9",
"K. c #3573DA",
"L. c #076AE7",
"P. c #146FE5",
"I. c #0675EA",
"U. c #1777E8",
"Y. c #0775F8",
"T. c #1476F2",
"R. c #076FF1",
"E. c #2573E4",
"W. c #446DCB",
"Q. c #A657A9",
"!. c #AE5FB1",
"~. c #2B82B7",
"^. c #2EA8B2",
"/. c #4585B4",
"(. c #1A88C8",
"). c #0A84D8",
"_. c #1887D8",
"`. c #039CDE",
"'. c #1697D8",
"]. c #078EC9",
"[. c #2287CC",
"{. c #2D8DCE",
"}. c #08A7D8",
"|. c #10B3D7",
" X c #28B8D7",
".X c #0688E6",
"XX c #1287EB",
"oX c #0498E2",
"OX c #068AF6",
"+X c #0599F5",
"@X c #188BF1",
"#X c #2786E5",
"$X c #06A6E7",
"%X c #05B7E6",
"&X c #08A3F5",
"*X c #05B6F7",
"=X c #13B4F9",
"-X c #1AB1E9",
";X c #11CCDA",
":X c #02C9E8",
">X c #04D7EA",
",X c #03DAF9",
"<X c #0BC8F6",
"1X c #03E4E7",
"2X c #02FBED",
"3X c #02E5FA",
"4X c #01FEF3",
"5X c #03FFFD",
"6X c #06F9F6",
"7X c #11EFEF",
"8X c #24E5EC",
"9X c #9D9D9D",
"0X c #B1B1B1",
"qX c #EE9191",
"wX c #D48D96",
"eX c #8190C5",
"rX c #B2DCEF",
"tX c gray77",
"yX c #D0D0D0",
"uX c #DCDCDC",
"iX c #F9D7C5",
"pX c white",
/* pixels */
"r u  .j.b.j. .f D a p a a z a a b b p w P ,.C.v.| z y z a z a a b p b @.b.B.,.K r P p r b a a a n i D x 0 #.m.b.;.L f n a i p y - ",
"z w b 3.k.V.$.z t t t t t D l x q z c q X.Z.k.5.T 0 i b z z l t t l w  .V.g.v.E 9 x z t z z t z c t z k t :.C.x.$.a w z t D y J ; ",
"J z < ! C.h.,.W t t z z z z z x G J c q ;.V.=.a.Y 9 z c y y t t t y t a 5.j.j.;.p e z z t J y t z z b r L D.M.v.0.u w H z y y b > ",
"z y r Q S.V.Z.! + r k b k k r t G y h x :.k.n.y.a 7 7 7 7 7 7 7 7 y w w 3.Y.B.6.P O r z r y w 0 t z u q X.m.c.6.q.l & c v y z z ; ",
"z y p I s.P.k.;.0 2 y z r 2 9 e J D 0 T n.h.7 7 7 O.O.O.O.O.O.O.O.7 7 , ( E.I.6.o.; % z k y 9 4 t P u & :.M.N.a./ q 9 4 9 y l y = ",
"z z w e / _.R.n.E O 9 J t v @ 9 K z > $.` ` ` ` O.O.O.O.O.O.O.O.O.O.0.7 7 4.T.C.5.4 2 n H c 4 2 t J < t D..X(.r.m e h h e q H K O ",
"z r y z s 4.OXD.$.r 9 S z 8 # J U j 0 ` ` ` ` ` ` ` O.O.O.O.O.O.O.O.O.O.O.7 E.I.9. .3 i H e 4 * I R ; E E.oX8.u.t * e 5 e 9 H K ; ",
"z z z r 0 ..'.XX>.n 2 J z 4 t z t % R ` ` ` ` ` ` ` ` O.O.O.O.O.O.O.O.O.O.7 4.U.N.w.2 * b % & l P z : $.T.%X3.s. .P , - @ z J < - ",
"z t c 0 + v a.&XG.e.6 r e 9 # k < + _ 7 0.O.O.O.O._ ` ` O.O.O.O.O.O.O.O.O.O.7 J..Xs. .O p k @ j 0 3 A 7.+X,X2.<.F.s.y.q.z 2 y t - ",
"y z z q 9 3 W '.$X4.t.; e 2 4 6 O + 7 ( qXqXO.O.O.O._ _ O.O.O.O.O.O.O.O.O.O.7 >.+X'.e.n ; # e 2 O O A 5.%X4X:Xx.l.*.h.D.a.H O n 6 ",
"e e y q 6 4 9 e.=X].a.R & & c R / 7 ( ' iXqXqXO.O.O.O.O.O.O.O.O.O.O.O.O.O.O.O.7 D.*X9.s.h # 9 b R Q i.N.1X6X6X6X}.).A.h.D.&.f 4 O ",
"2 e D b h g t b #X,X9.t.q.u.a.a.a.7 ( qXiXiXqXqXO.O.O.O.O.O.O.O.O.O.O.O.O.O.O.7 +.=X|.4.u.t.y.a.s.4.<._.4X%X7.{.'.#X@XL.h.D.$.t . ",
"d e z z e @ L y w.<X>Xp.$.3.z.-.*.7 ' qXiXiXiXqXqXO.O.O.O.O.O.O.O.O.O.O.O.O.O.7 n ~.3XG.r.8.6.1.c.-.-.:X>X:.e./ 0.$.4.J.C.B.z.X.X ",
"e + 5 z l > - < r.S.3X>XA.2.M.S.'.7 ' qXqXiXiXiXqXqXO.O.O.O.O.O.O.O.O.O.O.O.O.O.7 i.3X>X-.j.*.j.l.].,X5X(.r.R ; > h h v S.R.-.7.h ",
";.} K t 6 6 6 @ o.n.=X4X6X7X6X,X}.7 7 7 qXiXiXiXiXqX7 7 O.O.O.O.O.O.O.O.O.O.O.O.7 W.*X5X}.l.c.2.-X$X}.>X{.e.* O z K P t x m.M.g.M ",
"g.1.;.r.t. .$.0.y.U.<X6X5X6X|.9.$.7 7 7 7 iXiXqX7 7 7 7 7 O.O.O.O.O.O.O.O.O.O.O.7 p.%X6X2X3X3X;X{.i.r.(._.i.l 9 H L ! R > T P.k.g ",
"B.x.A._.[.|.-X X;X2X2X1X|.8.t.N h 7 ' ' qXiXiX7 7 ' ' ' ' O.O.O.O.O.O.7 7 O.O.O.7 |.5X2X5X8X^...z 8 / [.+Xi.N h b k e j 0 : } U.g ",
"v.Z.oX4X5X:X`.$X$X).(.9.w.y : $ #     o ' iXiXiX' o o     O.O.O.O.O.' ' 7 7 O.O.7 5X>X-X/./ V 6 + $ Y F.A.8...2 p k j & 2 6 2 X.c ",
"} #.:.*X>X:.<.<.<.w.w.0.p O @ r & 6     o iXiXiXo       rX  O.O.O.O.qXqX' 7 7 O.O.7 >.0.B 2 # 9 e f 0 u.S.m. .< z J 3 f 3 t t 9 ; ",
"q l %.+X:X>.r.W K j c # @ r 4 e & h     pXiXiXiXiX      pXpX' O.O.O.qXiX' 7 7 7 7 7 k r @ 3 9 2 r # 3 q.S.C.q.i l D r & # e z e X ",
"t 9 W @X%Xz.q.- O # 2 2 k z e 4 e 2     pXiXiXiXiX      pXpX' O.O.iXiXiX' 7 7 7 7 7 7 $ 9 y t e 9 4 2 R J.C.&.P r b e & @ e l z ; ",
"y y b (.*Xg.&.D r 0 2 9 b U l 4 4 <   pXqXiXiXiXiXiX    pXiXqXO.qXiXiXiX' 7 7 7 7 7 O.7 j n K y 3 j @ n 8.x.6.W u b z e e r z z - ",
"y z r [.*Xk.7.R c y 9 2 k U K e h + ' qXiXiXiXiXiXiXiXiXiXiXqXqXqXqX' ' 7 7 7 7 7 7 O.7 & K E j 3 h @ t &.m.m...u k z z y y z z ; ",
"q K z G.*Xk.7.I 9 x 4 2 9 U U e h % ' qXiXiXiXiXiXiXiXiXiXqXqXqX' 7 7 7 7 7 7 7 7 7 7 O.7 D Q z 3 e # r o.Z.m.X.i j z a z z y z - ",
"t J b [.$Xg.7.b w n t e e J U z r @ j ' qXiXwXqXiXiXiXiXiXqXqXqX~ ~ 7 7 7 7 7 7 7 7 7 O.7 e U I r # 4 0 U 6.rXeXeXt z y z P J t - ",
"z y a (.&Xg.,.b e y r z y t U b 9 r e ' qXqXiXiXiXiXiXiXqXqXqX' ~ ~ ~ 7 7 7 7 7 7 7 7 O.O.7 z R z e % e a rXrXeXeXr z z t P U l = ",
"t w b _.$Xg.,.b t z t P y t J P y y j r ' ' ' qXqXiXqXqXqX' ' ~ 9X^ ~ 7 7 7 7 O.7 7 7 0.O.7 z K z z y y rXrXeXeXeXa k y t P U z ; ",
"z w P #X$Xg.>.v t a y z y t z z z y l u I _.~ ~ ' ' ' ' ' ~ ~ 0X9X^ ~ ~ ~ 7 7 7 7 z z 7 7 7 y z z z J rXrXeXeXeXW p y y y t K K ; ",
"y w I _.oXh.;.0 t k y y y z b z l z l u ~ ~ tX9X~ ~ ' ' ~ yX0X9X^ ~ !.!.~ 7 7 7 7 y y y y y y l l y rXrXeXeXeXeX..u b y t y t P = ",
"t 0 I _.`.j.@.3 y y z y y y z y t y z ~ uXQ.~ 9X!.~ ' qX~ yX9X~ ~ yX0X9X9XQ.~ L 9 J y y z z y z t y rXrXeXeXeX$X+.0 r y a t z z = ",
"z w R ).`.=.#.0 y y z y z z y b z z H ~ yX!.~ ~ Q.~ qXqX~ tX~ ~ ~ yX9X9X9X9XQ.~ w z z y y z z e z rXrXeXeXeXM.*X,.y t y z y z x = ",
"z 0 | _.`.,.n q v t t y y y t z r t z ~ ^ ~ ~ ~ ~ ~ ~ ~ ~ ~ ~ 1 1 yXyX9X9X9XQ.~ ~ y y y t r z z rXrXeXeXeXeXN.:X1.p y a z y z z = ",
"z r T _.:X=.n w y z r t y z z eXeXZ Z ~ ~ ~ uXtXtX9X9XQ.Q.~ . Y d.~ yXtX9X9X~ d.d.y z t y z z y rXrXeXeXeXN '.%X:.z t z z r t z = ",
"z t n G.3XM.O., y z z y t z eXeXZ Z Z ~ ~ ~ yX9X9X9X9X9XQ.!.~ 1 Y d.~ ~ ~ ~ d.d.qX' z t r y z rXrXeXeXeXeX%.*X}.+.b q z z r z J = ",
"k y r @.:X}.<.p y t b z z eXeXZ Z Z Z d.~ yXyX0X9X9X9X9X9XQ.~ ~ 1 1 /.d.d.d.d.] qXqX' D y t rXrXeXeXeXeXz ,.<X'.O.b t t b y y z - ",
"z z 0 T '.%Xj.T 2 9 t z z eXeXZ Z Z Z d.d.yXyX0X9X9X9X9X9XQ.Q.~ . G ^ d.d.d.' qXqXqXqXZ Z z rXrXeXeXeXe T N.:X[./ k c t z y z z = ",
"z z , N H.%XS.+.3 2 z z eXeXZ Z Z Z Z Z d.~ uX0X0X9X9X9X9X9XQ.Q.~ < Y 9 d.d.I.' qXqXqXZ Z rXrXeXeXeXeX& | _.>Xs.W e k 9 e r z z ; ",
"z r y i r.&XoX3.n 4 z z eXeXZ Z Z Z Z Z ' ~ ~ yX0X0X9X9X9X9XQ.Q.Q.C o q ^ F.Y.' ' qXqXZ Z Z rXeXeXeXb 9 :.+X;Xa.I q 4 @ & q D P X ",
"z y l 0 ( J.+X6...$ c eXeXZ Z Z Z Z Z Z ' d.~ C C C C C C C C C C C C r i &.T.A.' qXqX' Z Z eXeXeXH 9 n D.:X;Xt.b l h j j e z P - ",
"z z t v D $.@XM.4.3 9 eXeXZ Z Z Z Z Z ' ~ /.~ ~ C C C C C C C C ~ ~ d.l v P H.R.6.' ' qXZ Z Z eXeXq 4 o.P.1X Xf.M # $ # 4 z l K = ",
"z b z r , P K.I.8./ $ eXeXZ Z ' ' ' Z ' ~ ~ d.d.d.d.d.d.d.d.d.d./.d.~ ~ p u q.U.m.' ' ' ' Z Z Z Z Z p <.XX6X;X>.$.u.Y r 3 9 z n = ",
"k y z q 5 0 u.U.m.a.eXeXZ Z Z ' ' ' Z ' ~ ~ ~ ~ ~ ~ ~ ~ ~ ~ ~ ~ ~ ~ ~ ~ ~ 5 P H.P.1.' ' qX' ' Z Z Z Z 7.&X6X5X;X1.6.7.a.Q & 2 z = ",
"t t p e h 9 G H.R.6.eXeXZ Z Z ' ' ' ~ ~ uXuXyXyX0X9X9X9XQ.Q.Q.~ ~ 9X9X!.Q.~ d q.U.C.' qXqXqXqX' Z Z Z 7.,X5X}.`.oXS.*.b.7.E @ 0 = ",
"9 j P y g 0 < o.XXA.eXeXZ Z Z ' ' ' ~ tXtX0X9X9X9X9X9X9X9XQ.Q.~ ~ 0X9X9XQ.Q.~ B H.Y.' ' qXqX' ' q.0./.-X5X}.l.F.A.+X.Xh.g.D.R 2 O ",
"2 c z y 4 e J k 7.+XeXeXZ Z Z Z Z ~ ~ ~ tX9X9X9X9X9X9X9X9X9XQ.~ ) ~ 0X9X9XQ.Q.~ Q S.L.3.' ' 4.4.~. X6X4X>X=.4.s.7.H.#XXXx.V.3.I X ",
": . 0 n 5 % S v { -XeXeXZ Z Z Z Z ) ) ) ~ ~ 9X9X9X9X9X9X9X9XQ.~ ) _ ~ 0X9XQ.Q.Q.~ 8.I.1.3.m.C..X'.).M.1X$Xp.q.> m U Y 3.U.b.C.<.. ",
"M e 0 9 + : O O o._.eXeXZ Z Z Z Z ) ) ) ) ) ~ ~ ~ ~ ~ 9X9XQ.~ ) ) ) _ ~ 0X9XQ.Q.~ H.Y.C.1.m.A.C.h.k.-.`. Xr.x O 0 e - & :.P.j.C.q ",
"5.5.o.W x b n F t.J.eXeXZ Z Z Z Z ) ) ) ) ) ) ) ) ) ) ~ ~ ~ ~ ) ) ) ) _ ~ ~ ~ ~ ) s.T.L.n.c.*.,.j.6.:.).'.i.h + q U ..N , 5.V.c.[ ",
"x.x.6.7.a.4.7.>.e.%XeXeXZ Z Z Z Z ) qXqXqXqXqXqX) ) ) ) ) ) _ ) ) ) ) ) _ _ _ _ ) 6.m.Z.h.*.6.7.i.Q ( K..Xy.y r z x J P - r 1.m.g ",
"x.c.k.h.*.m.A.oX,X4XeXeXeXZ Z Z Z C C C C qXqXqXqXqX) ) ) _ _ ) ) ) ) qXqXqXqXqXA.c.*.j.1.8.q.c 5 $ ( W.).9.W @ b e % j 3 $ M D.g ",
"5.x.j.B.c.M.$X<X<X'.~.eXeXeXZ Z C C C C C C C qXqXqX) ) ) _ qXqXqXqXqXqXqXqXqXqXqXZ.6.7.y.I 2 2 0 $ U s.I.D.Q 2 z D # 4 e 9 e K 3 ",
"T } 3.R.Z.s.y.q.0.0.A A eXeXZ C C C C C C C C C qXqXqX& j y 9 qXqXqXqXqX_ _ _ _ _ $.$.E # $ 4 e 3 2 y &.P.n.o.k y y j e 9 t j e X ",
"0 1 E T.R.7.Q , & % $ + 2 eX~ ~ ~ C C C C C C C C z 0 # h z y 9 _ _ ~ ~ ~ ~ d.d.d.d.= > 3 e j e 2 & 2  .J.m.$.n r l c 4 @ y z j O ",
"y 3 P U.Y.v.q.3 $ 2 e & l ~ ~ ~ ~ C C C C C C F y t r # 5 z z t y _ ~ ~ ~ ~ d.d.d.d.d.9 9 I z e 2 j : I H.M.7.Y w z y 9 2 e z z = ",
"x l J G.Y.g.4.R c c 4 # c ~ ~ ~ ~ d.d.C C V.T , x r w k a y l z H z ~ ~ ~ ~ d._ _ _ _ # # K I w # f 2 0 7.A.D.Q , z y y y r z J ; ",
"t z b D.Y.C.6.U w t e @ k ~ ~ ~ d.d.d.d.N.C.#., M r a J t z n k y y w ~ ~ _ _ _ _ _ _ _ e L U y e & 0 3 ;.A.n.Y w c y z z y z z : ",
"l K F D.T.g.3.Y 9 r 0 5 j C C C C C C C 3.A.,.y z z y J y z k t z q F W XXoX_ _ _ _ _ _ _ z W P e 4 2 r Q n.V.$.w 0 z y z D t z ; ",
"l J F Z.R.k.7.I e y 9 9 e x C C C C C C C C.=.n q z p t P Y z y z z i ..OX).j._ _ _ _ _ _ t P U e e 2 9 Y ,.V.3.y 0 J r z P J z = ",
"j t a S.L.g.3.z t a y z z z K J C C C C C c.b. .w z y r y Y P y y z w ..XXA.b.o._ _ _ _ _ _ y I z t 9 r a ,.x.:.b w y r t P U z = ",
"l q I S.V.j.3.y r y y z z z z J C C C C C C Z.@.r e y t z P P y y y 0 @.U.c.b.+.9 _ _ _ _ _ r D b y y a y ;.x.1.R r y z y z U K = ",
"z 9 Y S.g.g.5.r y t y b z r t z r d.d.C C C V.3.D r y w y t z z y y w #.P.c.m. .3 z d.d._ _ _ y y t t a 0 @.x.b. .r w z y y z J ; ",
"z w I C.j.b.5.9 0 t y y y y y c t d.d.C C C C 5.F r z y z y z y D t i #.Z.h.b.} < d.d.d._ _ _ _ y z z y 0 $.x.V.o.y y z y y l z > ",
"t 9 U 2.g.b.#.r u z J t t z D d.d.C C C C C C 1.I 0 z z z z z z z b p #.x.h.,.N _ _ _ _ _ _ _ _ l z J y y  .b.B.@.r i y t z l z > ",
"P q | 1.C.v.} a r z t z z z C C C C C C C C C n.| 0 w l D z t t J r z ;.B.C.:.J _ _ _ _ _ _ _ _ t t y t r | m.B.,.b w J z z K z ; ",
"i u ..j.j.:.R w q a a a y a v a a i p y s :.k.,.| u i y p y a a a p D @.j.z.@.l w a y a a a p y a p y p i  .=.*.@.I l z u y b p = "
};
