/* XPM */
static char *_7972d4952424589a6237719aca3321fGz2q1COwDADZbA4F[] = {
/* columns rows colors chars-per-pixel */
"65 65 230 2 ",
"   c #2C293C",
".  c #211E3E",
"X  c #1C254C",
"o  c #1A2747",
"O  c #1A324C",
"+  c #1D2B54",
"@  c #1D2D5A",
"#  c #192754",
"$  c #1D3255",
"%  c #1E325B",
"&  c #1A3654",
"*  c #232446",
"=  c #252A46",
"-  c #23254A",
";  c #242B4C",
":  c #2B284A",
">  c #2C344C",
",  c #26354B",
"<  c #353C43",
"1  c #30334E",
"2  c #232D54",
"3  c #2A2E53",
"4  c #232D5B",
"5  c #292959",
"6  c #3C2155",
"7  c #332C5C",
"8  c #243355",
"9  c #2B3454",
"0  c #253C55",
"q  c #2C3A55",
"w  c #24335B",
"e  c #2B355B",
"r  c #253A5D",
"t  c #2B3A5D",
"y  c #323553",
"u  c #31365A",
"i  c #313A5C",
"p  c #353B57",
"a  c #302644",
"s  c #1D2E64",
"d  c #1B3664",
"f  c #0E3172",
"g  c #262C62",
"h  c #243462",
"j  c #2B3562",
"k  c #253B62",
"l  c #2B3C62",
"z  c #2B3C6A",
"x  c #27376A",
"c  c #323663",
"v  c #323C63",
"b  c #343C6C",
"n  c #3A3864",
"m  c #353D75",
"M  c #283A76",
"N  c #2E1E5D",
"B  c #752847",
"V  c #44396A",
"C  c #4C2372",
"Z  c #453D7C",
"A  c #413E56",
"S  c #1E425E",
"D  c #29415B",
"F  c #32415C",
"G  c #28424E",
"H  c #244163",
"J  c #2C4264",
"K  c #2D436A",
"L  c #28496C",
"P  c #334365",
"I  c #32436B",
"U  c #3A446B",
"Y  c #33496D",
"T  c #3A496A",
"R  c #39536D",
"E  c #2C4676",
"W  c #324573",
"Q  c #344A73",
"!  c #344B7B",
"~  c #3A4778",
"^  c #395479",
"/  c #2F537D",
"(  c gray37",
")  c #434877",
"_  c #48547C",
"`  c #42476C",
"'  c #862136",
"]  c #BE2633",
"[  c #B14869",
"{  c #1C399A",
"}  c #6A3A81",
"|  c #573F9D",
" . c #2C4B83",
".. c #2B488A",
"X. c #324C82",
"o. c #354A89",
"O. c #2A5388",
"+. c #38568A",
"@. c #3F4191",
"#. c #344A99",
"$. c #2C559B",
"%. c #295897",
"&. c #385896",
"*. c #2C4197",
"=. c #386397",
"-. c #0B5CBC",
";. c #1C5AB9",
":. c #1450B1",
">. c #2A5BA4",
",. c #2759AB",
"<. c #3A5BA4",
"1. c #245DB3",
"2. c #295BB6",
"3. c #3959B4",
"4. c #3248B2",
"5. c #0A64BC",
"6. c #1A65BB",
"7. c #0F75B7",
"8. c #2A62AA",
"9. c #3B65A4",
"0. c #3A67A9",
"q. c #2461B3",
"w. c #2867B9",
"e. c #3668B6",
"r. c #2A78BA",
"t. c #3874B9",
"y. c #3271AC",
"u. c #45498A",
"i. c #455687",
"p. c #494C98",
"a. c #485A99",
"s. c #535898",
"d. c #534D8C",
"f. c #476598",
"g. c #4C6396",
"h. c #475AA7",
"j. c #5551A3",
"k. c #4668A8",
"l. c #4566BF",
"z. c #4469B4",
"x. c #4A6FB0",
"c. c #6B7BBB",
"v. c #6A4794",
"b. c #0B5CCC",
"n. c #075AC6",
"m. c #145CCC",
"M. c #165BC6",
"N. c #075DD3",
"B. c #154EC9",
"V. c #245AC8",
"C. c #0D62CC",
"Z. c #0665C9",
"A. c #1463C4",
"S. c #1A64C4",
"D. c #1463CB",
"F. c #1B64CA",
"G. c #166ACA",
"H. c #0877CD",
"J. c #1877C8",
"K. c #0562D4",
"L. c #0D64D2",
"P. c #0D6CD4",
"I. c #0464DB",
"U. c #0669D9",
"Y. c #1567D6",
"T. c #0876D8",
"R. c #1775D9",
"E. c #2866C7",
"W. c #3769C9",
"Q. c #2478C9",
"!. c #3472C8",
"~. c #2674D9",
"^. c #3B77D8",
"/. c #0669E6",
"(. c #156FE4",
"). c #0576EA",
"_. c #1777E7",
"`. c #0774F7",
"'. c #0F73F2",
"]. c #2774E9",
"[. c #A657A9",
"{. c #2B82B7",
"}. c #2EA8B2",
"|. c #4580B0",
" X c #0987CA",
".X c #1A88C8",
"XX c #0C84D7",
"oX c #1788D8",
"OX c #039CDE",
"+X c #1697D8",
"@X c #0298CC",
"#X c #2486CA",
"$X c #2D8DCE",
"%X c #07A7D8",
"&X c #17BADC",
"*X c #0BADD2",
"=X c #28B8D7",
"-X c #0688E6",
";X c #1488EA",
":X c #0498E2",
">X c #068AF6",
",X c #0698F6",
"<X c #178EF3",
"1X c #2786E5",
"2X c #05A7E8",
"3X c #05B7E6",
"4X c #08A3F5",
"5X c #05B6F8",
"6X c #17B0F1",
"7X c #04C7DE",
"8X c #18D0D8",
"9X c #03C8E9",
"0X c #04D7E9",
"qX c #06C6F9",
"wX c #03DAF8",
"eX c #14CBEF",
"rX c #02E6E9",
"tX c #02F9ED",
"yX c #02E6F9",
"uX c #01FEF3",
"iX c #03FEFD",
"pX c #06F9F6",
"aX c #11EFEF",
"sX c #24E5EC",
"dX c #9D9D9D",
"fX c #B1B1B1",
"gX c #EE9191",
"hX c #8190C5",
"jX c #DDDDDD",
"kX c #F9D7C5",
/* pixels */
"e 1 X.V.m.S. .d H p q v i i t v t v i q P 2./.A.O.l e l i i t t i i n $.C.b.1.K e i t e i i t t v q p z q %.S.C.>.L d b F i p e - ",
"l q F q.I.m.&.t 0 r r t t r r z 0 k x 0 o.Y.N.w.E 9 p l k t l k k k 9 / P.b.F.! e z z r l l t k z l l h e ;.U.G.&.i q t 0 t t J - ",
"l l , R I.n.2.U r j l l l l l z G K x 0 >.m.;.f.P q z x t t t t e t 0 v q.M.M.>.q w K l t J t t l z v t K w.H.6.u.p 0 H l t t l : ",
"k J 0 X.R.Y.L./ O w l l l w j e G t 7 K q.N.G.f.i 8 w w t t t t t t q q 8.'.I.6.v o e t e t q 9 0 l y 9 O.G.Z.w.u.l % x c t l l * ",
"l t q I z.(.b.8.> 8 t l e w 2 e H D 3 M S.Z.w.=.q e 9 > w t l l l t e 1 _ ]./.6.O.; @ z l t w w D l y % ,.H.G.k.` 0 w 5 w t k t - ",
"v l q w _ oX).F.! X w J j e + 8 K l 3 &.Y.-.x.i.e z s s h l v l t K d w A 9.'.T.8.w 2 n k e 4 + r K , k V.-X#Xk.V 8 g g 8 0 H K o ",
"l e t l n 9.>XG.&.w 9 S j 7 + H Y h y t.I.;.x.~ = 9 ; w h k J l j t t x > R ~.).r.~ 2 p H % 4 8 I W o ~ ~.:Xt.g.r & 8 g w 8 H K - ",
"l l l e > o.1X;Xh.b 2 H k 3 r K t $ W ~.U.6.z.f.~ v 2 X ; 0 H l K q z z 0 K k._.J.p.2 & v w $ h P l ; &.<X2X8.x.X.I > = + l J , : ",
"l t z 9 8 u x.4XQ.a.5 e w 4 $ j , O a.].U.Z.M.e.z.=.&.! ; 9 D d H t t t k w ) ~.-Xl.! ; u j $ h 9 2 n 0.,XrX5.4.W.z.k.i.j % e t - ",
"w t z 0 8 5 ~ +X%Xy.d.- w 2 4 4 . O k.].Y.-.n.-.A.A.E.e.+.4 8 6 6 6 6 6 x 2 1 &.,X+Xf.v - % w 4 o . u.w.5XuX7XH.B.-.-.E.k.r o z : ",
"w e e 0 5 4 8 &.5X Xk.~ % % x m ^ &.z.U.P.;.M.L.U.I.n.6 6 6 6 @.@.@.u.@.6 6 O I ~.5Xr.k.g @ w b W ^ h.Q.rXuXpXpX3XXXH.n.E.=.d 4 - ",
"2 w D j g d 0 v 1XwXy.d._ g.k.k.k.e.q.Z.I.w.t.!.R.6 6 @.@.@.@.@.@.@.@.@.@.@.6 e p.6X*X9.s.i.g.g.z.0.4.XXiX*Xl.$X#X<X<X/.n.E.&.0 . ",
"a r k l w # L t <.qX0Xh.<.8.V.:.-.n.L.5.-.k._ ^ 6 @.@.@.@.@.@.@.@.@.@.@.@.@.@.6 b {.yXQ.s.t.w.A.Z.:.-.0X9X>.a.) i.&.0.~.U.N.m.+.  ",
"r o 3 z r 3 = , d.~.yX0XT.5.7.oX+XoXU.Z.l.s.# 6 p.@.@.@.@.@.@.@.@.@.@.@.@.@.@.6 6 3.yX0X:.M.n.b.B. XwXiX.Xh.~ - - g g z ~.).:.w.g ",
">. .K r + w g # +.F.6XiXpXaXyXyX*X7.M.N.x.~ 6 @.@.@.@.@.@.@.@.@.@.@.@.@.@.@.@.@.u.6 5XiX%XB.Z.7.6X3X@X0X$Xa.% o t I K w b G.Z.m.M ",
"N.6.>.s.}  .&.d.f._.qXuXiXyX&Xr.a.s.W.U.y.R 6 @.@.@.@.@.@.@.@.@.@.@.@.@.@.@.@.@.@.] 6 tXtXyXyX8X$Xh.j..XoXa.k % H L R W : E (.I.f ",
"C.L.T.oX#X&X&X=X8XtXtXrX&Xy.d.W g ` z.U.E.6 @.@.@.@.@.@.@.@.@.@.@.@.@.@.@.@.@.@.] ] ] 6 iXsX}.o.v 7 ` #X>X0.m g c j w j 8 = .._.d ",
"S.Y.:XuXiX9XOX2X2XXX7.!.p.D 2 X @ = =.(.Y.6 @.@.@.@.@.@.@.@.@.@.@.@.@.@.@.@.@.@.] ] ] @.6 ) N 5 O X T W.T.t.o.3 u e w d 2 5 ; O.j ",
" .%.,.5X0X,.4.4.3.p.p.u.c X + 9 @ 4 i.E.6 6 @.@.@.@.@.@.@.@.@.@.@.@.@.@.@.@.@.@.] ] @.@.6 3 # w w d e g.R.G.+., l J 8 d 2 j h 9 - ",
"r r *.,X7X3.s.~ K h h 2 # w w w % 4 n t.6 6 @.@.@.@.@.@.@.@.@.@.@.@.@.@.@.@.@.@.@.@.@.u.6 2 8 4 w 4 2 i.R.Y.+.> k l 9 4 @ 0 k w * ",
"e 0 ~ ;X3XE.+.= X w @ w j l w 4 % 2 w 0.6 6 6 @.@.@.@.@.@.@.@.@.@.@.@.@.@.@.@.@.@.@.@.@.6 t l 8 e 4 ; ! Q.P.9.P e v t $ + w r l - ",
"t q v oX5Xm.=.i 9 8 2 2 l U k 4 w , ; a.6 6 6 @.@.@.@.@.@.@.@.6 6 6 @.@.@.@.@.@.@.@.@.@.6 K K w 3 h 2 z t.P.w.U y l l w w e z l * ",
"r z 9 #X5XN.e.W j t 8 2 l U K w g O 2 ^ 6 6 6 6 @.@.@.@.@.@.6 6 6 [ [ @.@.@.@.@.@.@.@.6 8 K ! w 2 4 + j <.C.S.O.y j z t l t l l - ",
"0 K l Q.5XN.e.I 8 z 4 + w Q Y r g $ w F 6 6 6 6 6 @.@.@.@.6 6 6 [ [ [ @.@.@.@.@.@.[ 6 @ $ H ^ z 1 g 4 w o.Y.G.+.q h l i l t t l = ",
"r J i #X6Xn.2.v q b 0 w w J Y l w 2 g e =.6 6 6 6 6 @.@.6 6 6 [ [ [ @.@.@.@.@.@.gX[ t 8 w 0 Y K e w 4 8 W w.P.<.> t l q l P K w * ",
"l t p oX2Xb.2.v e t e l r r Y v e 9 w e X.6 6 6 6 6 6 6 6 6 6 [ [ @.@.6 6 6 6 gXkX[ 6 t t t t U k 8 8 w t >./.2.> i z l r P Q r * ",
"t q P oX2Xb.2.v e t t l t r l P l q r e ! T.6 6 6 6 6 6 6 6 @.@.@.6 6 6 c gXgXkX[ 6 6 t l t l K l l l e t >.T.2.P u t t t D Y K - ",
"t q P 1X2Xm.,.c w t l P t t l J k l k y b +X6 6 6 6 6 6 6 6 6 6 6 6 6 gXgXgXkXkX[ 6 6 6 l t t z l l l t u $.T.7.! i t t r t J K : ",
"t 9 I oX:Xm.>.9 r l t r t l l l l l k y v J.2X6 6 6 6 6 6 6 6 6 6 @.@.gXgXkXkXgX[ 6 6 6 t t r l k t t t 9 #.T. X#.y i l t t k l * ",
"t 0 I XXOXM.$.3 t l l t t t l t r l k 1 P A.6 @.6 6 6 6 6 6 6 6 6 @.@.gXkXkX[ [ 6 t 6 6 l l t l l e t t 9 o. X2X#.9 t t l q k b * ",
"t 9 W oXOX;.%.3 t t l t l l t t r l k y P 6 @.@.@.@.6 6 6 6 6 6 6 @.@.[ [ [ 6 6 6 J l t t l l r l t t l q .. X5X,.q w t v t l K * ",
"l 9 ..XXOX2.K 0 l t e t t t t z q l z 0 F ( ( ( 6 6 6 6 6 6 6 6 @.@.@.6 6 6 6 6 6 t t t t e l k q 0 h K i I J.3X6.v l q l t t l * ",
"l e ! oX9X;.b q t t t t t l t z hXhXC C ( ( ( ( ( ( 6 6 ( ( ( ( ( @.6 6 6 6 6 6 6 6 l t t t l t e t z l > E +X3X,.v J l t w t l * ",
"l e z Q.wXH.@.q t l l t r t t hXhXC C C ( ( ( ( ( ( ( ( ( [.[.fXjXjX( 6 6 6 6 6 6 6 l t e t t t 0 l b e > #.5X%X#.v & l l t l l * ",
"l e t $.9X%X4.p r t l l l l l hXhXC C C C < < < ( ( ( ( [.[.[.dXfXjXjX6 6 6 6 6 6 6 l t t t t t k k v e i ,.9X+X@.v r l l t l l * ",
"l t 9 E +X3XM.E % 8 e l l l hXhXC C C C ( ( ( ( < ( ( < [.[.dXdXfXfXjX( 6 6 6 6 6 6 w l z l l t k t u w E G.wXr.Z l l w l t l l * ",
"l l 1 m W.3XR.$.3 + l l h w hXhXC C C C ( [.[.jX( < < ( [.[.dXdXfXfXjX( 6 6 6 6 6 6 w l l t 2 j k D p % ..XX0Xz.~ e j $ e w l l * ",
"l j q q s.4X:X8.b 4 k v p hXhXC C C C C ( [.[.jX( < < ( [.[.dXdXdXfXjX( C C >X6 6 4 w t z k 4 2 l L c w ,.4XeXk.P & e @ & q P P * ",
"l t k 9 ` ~.,Xr.o.X z 8 p hXhXC C C C C ( [.dXfXjX( < < ( [.[.dXdXfX( ( c.C C /.0.z 2 t K % 4 8 z D w z E.9X8Xi.b k h g j w r K * ",
"l l r c q &.<XT.9.; 8 K h hXhXC C C C ( [.[.dXfXjX( < < ( ( [.dX( ( c.c.c.C C C q.i.X i l 8 2 h Y D 2 +.(.rX=Xv.z @ X # 4 l k K * ",
"l v t e > v ^.).r._ X v w hXhXC C C C ( [.[.dXfXjX( < < dX( ( ( c.c.c.gX[ C C C b.9.h 8 0 j % h z 9 5 h.;XiX8Xk.<.i.T t 2 w l K * ",
"l t j 0 e 9 f._.A.k.b X h hXhXC C C C ( [.dXfXfXfX( < < dXdXc.c.c.gXgXgXgX[ [ [ [ E.a.+ t s h 4 # 2 n e.4XpXpX7X6.w.e.k.^ w + u * ",
"e e i r g 2 0 !.`.w.g.a # hXhXC C C C ( [.dXfXfX( < < < B B B B gXgXgXgXgXgX[ gXgX[ k.C C # # X 4 g ` W.wXiX%X:X2XR.-.A.e.X.+ 9 * ",
"8 d P t d 9 , +.;XJ.h._ w hXhXC C C C ( ( ( ( ( ( B B B B B B B C gXgXgXgXgX[ [ gX[ C C C C ` _ i.u.x.&XiX%XV.V.T.,X).n.b.E.U 4 o ",
"2 j l q 4 8 K j z.,X;.k.x.hXhXC C C C B B B B B B B B B ( ( ( ( ( C gXgXgXgX[ [ gX[ C C C C 0.e.{.&XpXuX0X;.0.x.e.!.1X;XC.L.8.P . ",
"; a 9 b 5 $ S c | 6X%X:.w.;.hXhXC c.c.( ( [.[.dXfXjX( ( ( [.dXfXjX( ( [ gXgX[ [ [ C C C C G.H.-X+XXXH.aX2Xh.i.: v I U 8._.D.K.3.  ",
"M w 9 2 O 2 o O O.+XwX X:.m.hXhXC c.c.( [.[.dXdXdXfXfXjX( ( [.dXdXfXjX( [ [ [ [ [ C C hXhXhXT.P.n.N.:.@X=Xj.M o 9 w ; w 1.(.M./.h ",
"q.q.&.Q l v n v d._.yXrXeXyXyXXX] ] c.c.( ( [.[.dXdXfXfX( ( ( [.[.dXdX( [ [ C C C C l.l.hXhXhXhXhXw.,.-X+Xh.4 , 0 Q X.b > q.D.Z.{ ",
"C.C.w.e.k.3.e.<.h.3XiXpXuX*Xh.j.] ] ] ] ' ' ( ( [.[.dXfX( ' ' ( ( [.dX( w.C C C C 8.l.l.l.l.l.hXhXhXhXhX:Xf.v 7 z z K P = e S.G.s ",
"C.Z.N.n.6.-.H.:XwXpXiXqX#Xd.V ] ] ] ] ' ' ' ] ( ( ( ( ( ( ' ' ' ' ( ( ( ] C C C T.Z.5.m.l.l.l.l.l.l.hXhXhXhXhX2 l 8 + k 2 X M E.d ",
"q.C.M.K.Z. X2XeXeX+X{.9.~ 7 - - % ' ' ' ' ' ] ] ' ( ( ] ] } ' ' ' ' ] ] ] ] qX.XG.Y.w.e.=.b 3 l.l.l.l.l.l.hXhXhXhXr h w 8 8 8 z 3 ",
"E  .8.'.Y.e.k.i.u.u.Z n 5 @ % g % X ' ' ' ] ] ' ' ' ' ] ] ] } ' ' ' ' ] ] ] h.&.0.a.&.! s X w 4 2 + 5 l.l.l.l.l.hXhXhX4 w e r w o ",
"8 < ^ '.'.e.^ > & + + O 4 k 4 4 w - v t.-X] ' ' ' ' ' ] c.( ( } ( ( ' ] qX9Xj.b 8 : * 2 2 9 w w 2 w 2 X.~.G.&.b l.l.l.4 @ t l r . ",
"t 3 P _.`.S.i.3 # 4 w % j I t 4 4 2 e 9.-XM.] ] c.c.c.c.( ( ( c.( ( ( *.,X9X8.T - + 2 2 w I z w 2 h X I !.P.e.T 9 z t w + w l l o ",
"z k J Q.`.C.0.I x x 4 @ z T t 8 % 4 8 _ ] ] ] ] c.c.c.c.( ( ( c.( ( ( ..,X6X5.=.h d z @ s K P e 4 d 2 u y.T.E.~ , z t t t e l v - ",
"l k v E.`.K.w.W q r $ 4 h Q K w + h $ ] ] ] ] ] ] ] ] ] ] ( B B B B B E ;X2XL.h.e t w 3 8 L Q t % % 3 > >.T.F.R > x t l l l l l ; ",
"r K P E.'.L.8.U e 9 9 w w z Q t w ] ] ] ] ] ] ] ] ] ] ] B B B B B B D ~ ;X:XD.&.> e e 2 8 z Q P w 8 2 3 ^ G.L.&.q q l t t t 0 z = ",
"k K F F.'.N.e.P w t 8 w w z Y v ] ] ] ] ] ] ] ] ] ] i B B B B B B B p o.>XXXM.&.w t t 0 w t P Y w w 4 w U 2.C.8.q 9 z e J P J l - ",
"h k F R./.b.8.K e t t l t z K ] ] ] ] ] ] ] ] ] 0 l i B B B B B B l 9 o.-XT.m.+.9 t t t t t t P l e 8 e t 1.m.q.v 9 l t t T Y z * ",
"k 0 P R.K.M.8.e e t t l l l ] ] ] ] ] ] ] ] Y.$.0 e D B B B B B B t 9 $._.P.D...8 l l t J t t l J t t v u >.C.6.W t t l t D J K * ",
"l 8 T Y.b.D.q.w 9 r t t t t ] c.c.c.c.] ] 6.I.>.t 9 l B B B B B t e 9 %.(.Z.F.o.8 t l t t v l t t r t t 9 $.D.D.X.i t l t e J K - ",
"l 9 Y P.M.m.1.8 q k t l t ] ] c.c.c.c.] b ;./.1.F e k B B B c.c.c.t p %.Y.n.D. ., t t t t l t l t t l t 9 $.C.L.o.t q t t e r l : ",
"l 0 L 5.C.D.%.e u l l t t ] ] ] c.c.] ] P q.N.6.I 9 B B B B B B B B p %.C.-.6.m 9 z l t J t r l r l J l q o.D.K.$.i q t r l k k : ",
"F q O.6.I.S. .i e l r l l ] ] ] ] ] ] ] P q.I.F.O.1 B B B B B B B B l >.K.U.,.l q H r l k t l r t r t r e O.S.I.q.l q J l l K l - ",
"i 1 o.V.m.,.E q 0 t i i i e v i i p i e p ,.N.2...y p e t i i i i i t %.M.V.$.k q t i i v u t u i q i q u X.1.-.>.I h j 9 i v u * "
};
