/* XPM */
static char *result[] = {
/* columns rows colors chars-per-pixel */
"65 65 224 2 ",
"   c black",
".  c #2F283B",
"X  c #211E3E",
"o  c #5B2536",
"O  c #1A2A4C",
"+  c #1B2647",
"@  c #1A324C",
"#  c #1D2C54",
"$  c #1D2D5A",
"%  c #172853",
"&  c #1C3255",
"*  c #1D335A",
"=  c #1A3454",
"-  c #232446",
";  c #252A46",
":  c #23254A",
">  c #242B4C",
",  c #2B294B",
"<  c #28354B",
"1  c #343947",
"2  c #232D53",
"3  c #2A2D53",
"4  c #232D5B",
"5  c #282857",
"6  c #3C2155",
"7  c #33295B",
"8  c #233355",
"9  c #2B3454",
"0  c #253C55",
"q  c #2C3A55",
"w  c #24335B",
"e  c #2B355B",
"r  c #253A5C",
"t  c #2B3A5D",
"y  c #323553",
"u  c #333B55",
"i  c #31365A",
"p  c #313A5C",
"a  c #3B3B5D",
"s  c #302644",
"d  c #1D2E64",
"f  c #1B3664",
"g  c #0E3172",
"h  c #262C63",
"j  c #243462",
"k  c #2B3563",
"l  c #263B62",
"z  c #2B3C62",
"x  c #2B3C69",
"c  c #28376A",
"v  c #323563",
"b  c #323C63",
"n  c #333B6B",
"m  c #3B3B64",
"M  c #353C74",
"N  c #283A76",
"B  c #33155A",
"V  c #752847",
"C  c #4C2372",
"Z  c #42396F",
"A  c #1E425E",
"S  c #27415B",
"D  c #32415C",
"F  c #28424E",
"G  c #2C4164",
"H  c #2D436A",
"J  c #274668",
"K  c #334264",
"L  c #33446B",
"P  c #33496D",
"I  c #3B496B",
"U  c #3A446A",
"Y  c #2C4575",
"T  c #324573",
"R  c #384878",
"E  c #385578",
"W  c #345372",
"Q  c gray37",
"!  c #50575E",
"~  c #464975",
"^  c #464F74",
"/  c #486173",
"(  c #862136",
")  c #9F2436",
"_  c #BE2633",
"`  c #B14869",
"'  c #CF7179",
"]  c #363687",
"[  c #0F388A",
"{  c #573F9D",
"}  c #2C4B83",
"|  c #2B4687",
" . c #324C82",
".. c #344989",
"X. c #2A5388",
"o. c #37578A",
"O. c #3F4191",
"+. c #334998",
"@. c #2A5699",
"#. c #375896",
"$. c #2C4394",
"%. c #386397",
"&. c #2C6A97",
"*. c #144ABA",
"=. c #0C5BBC",
"-. c #1C59B9",
";. c #1352AC",
":. c #2A5BA4",
">. c #2759AB",
",. c #3B5BA3",
"<. c #255CB4",
"1. c #3559B6",
"2. c #3049AF",
"3. c #0A64BC",
"4. c #1A66BB",
"5. c #0F75B6",
"6. c #2E63AD",
"7. c #2861A8",
"8. c #3966A7",
"9. c #2865B8",
"0. c #3568B6",
"q. c #3874B9",
"w. c #2E77B1",
"e. c #45498A",
"r. c #465786",
"t. c #4A4C97",
"y. c #485997",
"u. c #53508F",
"i. c #466598",
"p. c #486292",
"a. c #465AA7",
"s. c #5551A3",
"d. c #4668A9",
"f. c #4368B4",
"g. c #4A70B0",
"h. c #6B7BBB",
"j. c #6A4794",
"k. c #035CCD",
"l. c #0A5BC6",
"z. c #165BC8",
"x. c #085ED3",
"c. c #184FC8",
"v. c #245AC8",
"b. c #0E62CD",
"n. c #0666CA",
"m. c #1463C4",
"M. c #1A64C4",
"N. c #1463CB",
"B. c #1B64CA",
"V. c #166ACA",
"C. c #0877CD",
"Z. c #1976C9",
"A. c #0561D4",
"S. c #0D64D2",
"D. c #0D6CD4",
"F. c #0565DA",
"G. c #0768DA",
"H. c #1568D6",
"J. c #0977D8",
"K. c #1675D8",
"L. c #2866C5",
"P. c #396BCA",
"I. c #2478C9",
"U. c #3472C8",
"Y. c #2475D9",
"T. c #2F71D7",
"R. c #086AE7",
"E. c #156FE4",
"W. c #1776E6",
"Q. c #0675F9",
"!. c #0C74F0",
"~. c #2874EA",
"^. c #415CC4",
"/. c #A657A9",
"(. c #AE5FB1",
"). c #2080BB",
"_. c #0987CA",
"`. c #1887C9",
"'. c #0C84D8",
"]. c #1787D8",
"[. c #0499DD",
"{. c #1696D8",
"}. c #0B95C7",
"|. c #2486CA",
" X c #2A8DCF",
".X c #06A5D9",
"XX c #0DB1D5",
"oX c #2CBFD5",
"OX c #0686E6",
"+X c #1487E8",
"@X c #0497E2",
"#X c #068DF6",
"$X c #0699F7",
"%X c #1890F2",
"&X c #2786E5",
"*X c #05A8E9",
"=X c #05B7E6",
"-X c #07A3F5",
";X c #06B6F7",
":X c #18ADF2",
">X c #04C7DE",
",X c #17CFD8",
"<X c #03C8E9",
"1X c #03D8EB",
"2X c #08C7F8",
"3X c #05D9F9",
"4X c #14CBEF",
"5X c #01E5E8",
"6X c #01E7F7",
"7X c #01FEF3",
"8X c #02FEFD",
"9X c #06F9F5",
"0X c #06F4EE",
"qX c #9D9D9D",
"wX c #B1B1B1",
"eX c #EE9191",
"rX c #D48D96",
"tX c #8190C5",
"yX c #B2DCEF",
"uX c gray77",
"iX c #D0D0D0",
"pX c #DCDCDC",
"aX c #F9D7C5",
"sX c white",
/* pixels */
"e y  .z.N.z. .f S p p p p t p t p b a q b L.F.M.X.z e z p t p p b i n @.b.k.<.H e b e p p p t t b q p c y @.V.N.:.J f n u u p e : ",
"z q b 6.x.S.#.z 0 t r z r z z x 0 l c 0 } H.A.9.Y e u b l l l r r l q R S.b.M.R e z z r l z t S x z z k t >.G.b.#.D q r r t t G : ",
"z t < W A.l.<.T r e z z z z z x F G c 0 @.z.-.i.U 9 z x t D t r r z 8 K 7.z.l.7.t w G z z z t t z z b r H 4.C.4.e.y q G z t G z , ",
"l G 8 E K.S.H.E @ w z z k e k w F t h J -.A.L.8.t 8 w l e p t e 6 6 6 6 6 6 6 6 K + e b e t e q r b y 9 X.V.n.9.r.l f c v r t b , ",
"z z e L g.E.k.7.9 2 z z t 8 4 e G S 3 M M.k.0.o.9 r 9 3 0 z 6 6 O.O.O.O.O.O.O.O.6 6 6 H z t w w S G y & >.C.Z.d.~ 0 w 5 w t z t - ",
"b z q 8 ^ ].!.B.R O 8 S e k # 8 H l 3 #.H.3.q.r.e z d d 6 6 O.O.O.O.O.O.O.O.O.O.] _ _ _ _ k 4 > 0 H 3 r L.OX`.s.m 0 h h 2 0 G J + ",
"z k t z Z 8.#XV.#.w r A k 7 # S P r 9 q.G.<.g.R : 9 > 6 O.O.O.O.O.O.O.O.O.O.O._ _ _ _ _ _ _ 4 8 L T O E Y.@Xq.i.8 = 4 h w 0 J x : ",
"z t z e <  .&X+Xa.n > G z 4 r H t & Y T.F.M.f.p.R b 2 6 O.O.O.O.O.O.O.O.O.O._ _ _ _ _ _ _ _ $ l n z : #.!.=X0.g. .U < ; O l G < ; ",
"z t x 9 @ v g.-XI.y.5 9 r 2 2 c < @ #.~.G.l.z.0.f.%.6 O.O.O.O.O.O.O.O.O.O._ _ ) O.O.O.O.e.6 ) j 9 2 m f.$X6X5.2.P.f.y.r.c # t e - ",
"e t x 0 8 5 ~ {.*X8.u.: 8 4 4 5 + @ d.~.H.3.l.=.m.m.6 O.O.O.O.O.O.O.O.O.O.) ) O.O.O.O.eXeX^ 6 5 + X e.<.=X8X>XD.z.*.=.L.d.J + x 3 ",
"w r t 0 5 4 8 #.;X}.d.M $ w c Y R p.q.R.H.-.l.H.F.6 O.O.O.O.O.O.O.O.O.O.O.O.O.O.O.O.eXeXaX` ^ 6 Y E d.I.1X7X8X9X=X'.C.l.L.8.f 4 : ",
"2 w S k h f r b &X3Xw.u.r.p.d.d.d.0.>.n.F.9.q.U.K.6 O.O.O.O.O.O.O.O.O.O.O.O.O.O.O.eXeXaXaXeX^ 6 f.8.2.'.8XXXf. X].%X%XR.l.L.#.0 X ",
"s w l b w # J t t.2X1Xd.#.6.v.*.=.k.S.3.=.f.r.E r.6 O.O.O.O.O.O.O.O.O.O.O.O.O.O.eXeXaXaXaXeX` 6 n.;.*.1X1X>.y.Z e.#.d.Y.n.x.z.o.. ",
"w O 5 z r 3 ; < u.K.9X4XJ.3.5.].{.{.n.n.f.u.$ : 6 e.O.O.O.O.O.O.O.O.O.O.O.O.O.eXeXaXaXaXeXeX` 6 c._.3X8X`.s.R - : h h c K.!.;.L.h ",
":.} H r , 5 h % o.H.:X8X9X0X9X3XXX7.z.l.g.~ % * 6 O.O.O.O.O.O.O.O.O.O.O.O.6 6 eXaXaXaXaXeX6 6 6 :X=X.X1X Xy.* O t H K r n C.n.z.N ",
"b.M.7.u.u. .+.u.p.E.2X9X8X9X*Xw.#.s.P.F.w.W % l 6 O.O.O.O.O.O.O.O.O.O.O.6 6 6 6 6 eXaXaX6 6 6 6  Xa.s.`.].i.l & J J W M s Y E.F.g ",
"A.b.'.].`.XX:XoX,X0X7X5X=Xw.u.M h Z q.G.9.r.3 t 6 O.O.O.6 6 O.O.O.O.O.O.` ` ` ` 6 6 aXaXeX` ` 6 p 7 ~ |.#Xf.M 7 k k w k 8 ; | W.d ",
"M.H.@X8X8X<X[.*X*X'.5.q.u.u 2 O $ ; %.E.H.y.4 w 6 O.O.6 6 ` ` O.O.O.O.O.    o o ` aXaXaX` o     @ + K P.J.0...2 i e j * 2 5 8 X.c ",
"} @.>.;X1X>.2.a.1.t.t.e.v O # e * 4 ^ P.S.8.p 6 O.O.6 6 ` eXeXO.O.O.O.  yX      o aXaXaXo     w j j 9 i.K.V.o.< G G 8 f w e r 8 : ",
"r r ] -X>X,.a.R H l j 2 # j 4 8 = 4 U U.F.6.I 6 6 6 6 6 ` aXeXO.O.O.` sXsX      aXaXaXaXsX    4 e * 3 r.K.G.r.u l z 9 $ $ 8 k r X ",
"t 8 T %X;Xv.r.+ O w $ 4 w b w 4 w 2 9 0.H.9.6 6 6 6 6 6 ` aXaXaXO.O.` sXsX      aXaXaXaXsX    4 4 $ : R Y.D.%.K e b e w # 8 l z : ",
"t 0 m ].;Xl.%.D 5 9 2 2 b T l 4 w < > #.H.6 ] 6 6 6 6 6 ` aXaXaXeXO.eXaXsX    aXaXaXaXaXeXsX  r 3 w # L q.D.9.R y z z 8 8 e z x ; ",
"r z e |.;Xk.0.T x z 8 4 k P G w h @ 2 E L.6 t.6 6 6 6 6 6 ` ` eXeXeXeXaXaXaXaXaXaXaXaXaXaXeX` k 3 w $ k #.S.M. .y k z z z t z z - ",
"r H b I.;Xk.0.L 8 z 2 # e P P r h & h U 6 ] 6 6 6 6 6 6 6 6 6 6 ` eXeXeXaXaXaXaXaXaXaXaXaXeX` l 9 4 4 2 o.H.V.X.y l l p z t z z > ",
"r D z |.*Xl.1.p tXtXyXe 8 L P t 4 2 j e 6 O.6 6 6 6 6 6 6 6 6 Q Q eXeXeXaXaXaXaXaXeXrXaXeX` P L e w 4 e T 9.S.@.q t z z z K G r ; ",
"z t u ].-Xx.9.b tXtXyXyXr r P b e 9 w 6 O.O.6 6 6 6 6 6 6 6 Q Q Q ` eXeXeXaXaXaXaXaXaXeXeX` t T l w # 8 p 7.R.1.q e z t r K P l - ",
"t q K ].*Xl.1.v tXtXtXyXyXr G b r e r 6 O.O.6 6 6 O.6 6 6 6 Q ! qXQ ` ` eXeXeXaXeXeX` ` ` t z H z t t t t :.G.9.D p k z t G P G : ",
"t q K &X*Xl.6.i r tXtXtXyXyXz G l z l 6 6 6 [.+.6 6 6 6 Q Q Q ! qXwXQ Q ` ` ` ` ` Q Q z z t z z z z z t p @.J.5.R i e t r t H z : ",
"t 0 L ].@Xl.:.i r tXtXtXtXyXyXz t z z y n Z.*X>.6 6 6 6 Q (.(.Q ! qXwXiXQ ` ` Q Q qXuXQ Q t r z l t t t e +.'._...y b z t t r G - ",
"t 9 L '.[.z.@.3 t z tXtXtXyXyXt r z l y K m.;XZ.n 9 Q /.qXqXwXiXQ Q qXiXQ eX` Q (.qXQ /.pXQ e z z t t t 9 .._.*X+.q e t z t r n - ",
"z q T ]..Xz.@.< t z t tXtXtXyXyXt z l y D -.*X].z Q /.qXqXqXqXiXQ Q Q uXQ eXeXQ /.Q Q (.iXQ z r z t t z q | _.;X<.t 8 t z t z G - ",
"z 9 | '.[.<.n 0 k t t tXtXtXtXyXyXz l 0 S :.=X+XQ Q /.qXqXqXiXiX1 1 Q Q Q Q Q Q Q Q Q Q ! Q z l q 0 l x p L Z.=X4.v z p z t z z - ",
"z e Y ].<Xz.n q z t t t tXtXtXyXyXz z q H 7.*XK.h.h.Q qXqXuXuXQ h.I 1 Q /./.qXqXuXuXpXQ Q Q C C tXtXD t q M {.=X>.t r z l e t z - ",
"z e n I.6XC.] y t z z t tXtXtXtXyXyXi q Y 4.*X` eXh.h.Q Q Q Q h.I . Q /./.qXqXqXqXqXiXQ Q Q C C C tXtXu y $.=X*X+.b 0 z z r z z - ",
"z t e @.<X.X2.a r t z t z tXtXtXtXyXyXt $._.` eXeX' h.h.h.h.h.. F Q Q /.qXqXqXqXqXwXiXiXQ h.C C C C tXtXz >.<X{.e.n r l z t z z - ",
"z z e E {.XXz.Y # w k z z t tXtXtXyXyXG C C eXeXeXeX` h.h.h.^ 1 1 Q (./.qXqXqXqXqXwXiXiXh.h.C C C C tXtXR V.1XI.Z x z r z t z b - ",
"z z < M P.=XJ.@.3 & z z r w tXtXtXtXyXyXC C eXeXeX` q h.h.t I 1 Q /./.qXqXqXqXqXwXwXiXQ h.C C C C C C tXtX].1Xf.R e k 8 8 r z z - ",
"z k r u t.:X@X6.n 4 j b u 2 h tXtXtXyXC C C eXeX` ` 2 < j G . V /././.qXqXqXqXwXwXiXQ Q ` C C C C C C tXtX-X4Xi.H w w $ * q D K - ",
"z e l 9 ~ Y.$X9...% z 0 t 8 $ l tXtXtXC C ` eXeX` h 4 * j S V V V V V V V V V V V V Q h.` C C C C C C C tXtX,Xr.n r h h j r l K - ",
"z z 0 v F #.%XK.8.> w G r w $ L tXtXC C C eX` ` 8 5 4 4 8 0 h.Q Q V V V V V V V V Q Q h.Q ` C C C C C C tXtXoXj.x $ O # 4 j l H - ",
"b z z z < U T.!.q.~ % z j j e C C C C C ` ` ` ` p.E J 3 > Q Q h.h.h.h.h.h.h.h.h.h.h.h.Q Q ` C ` ` ` C C tXtX,Xd.,.p.U e 2 9 z x - ",
"z z e 0 5 q p.W.V.d.n + j 4 C C C C ` ` eX` ` B.c.1.d.o.Q Q Q Q Q Q Q Q Q Q Q Q Q Q Q Q Q ` C ` ` ` C C C tXtX<X4.6.0.d.E w # v - ",
"e e e r h 2 F U.!.9.p.y % % C C C ` eXeXeXeX` 6X<X].c.Q /./.qXqXQ Q /././.qXqXqXwXiXiXpXpXQ Q ` ` ` C C C tXtX@X*XK.=.m.0...# 9 - ",
"w j D z f e < o.%XC.s.^ w T R r.i.` ` eXeX` ` :X3X6XQ /./.qXqXwXQ Q /./.qXqXqXqXqXqXqXwXuXuXQ ` ` ` C C C tXtXv.G.$XOXk.l.L.U 8 - ",
"5 j z t 4 w G k 0.$X-.d.g.w.g.1.>.Z.<X` ` +.7 ] 2.Q /./.qXqXwXQ ( Q /.qXqXqXqXqXqXqXqXqXuXQ Q Q C C C C C tXtXg.f.T.&X+XS.S.7.L - ",
"> . 9 b 5 = A v { :X.X;.9.-.*.n..X1X.X.X XB 3 + Q /././.qXwXQ ) ( Q /.qXqXqXqXqXqXqXqXQ Q ( ( ( C C C C C tXtX3 a L I 7.W.N.S.1.. ",
"Y w 9 8 O > : @ X.{.6XC.*.v.[.1X=XG.*.}.&.B & = Q /./.qXwXQ ) ( ( ( Q /.qXqXQ Q Q Q Q ( ( ( ( ( C C C C C tXtX+ 8 w ; w <.E.l.G.j ",
"9.<.#.P H b n p u.Y.6X0X=X9X6X'.-.^.K.*X&.5 * 7 ( Q Q Q Q ) ( ( ( ( Q Q Q Q ( ( ( ( ( ( ( ( ( ( C C C C C tXtX@ 0 P  .M < >.H.n.[ ",
"l.b.9.0.d.1.0.,.a.XX8X9X7XXXa.s.E / f.-X).# % b ( ) ) ) ) ( ( ( ( ( ) ( ( ( ( ( ( eXeXeXeXeXeX( C C C C C tXtX9 n x H K ; p z.V.d ",
"S.n.k.k.4.=.C.@X3X8X8X2X|.u.Z 9 5 k f.%X}.6 > 0 S eXeXeXeXeX( ( ( ( ) ) ( ( ( eXeXeXeXeXV V V V C C C C tXtXtX2 z w # l 2 O c L.d ",
"<.H.l.S.n._.*X4X4X{.).8.~ 7 : : $ # y.%X{.c 5 w eXeXeXeXeXeXeXeXeXeXeX) ( ( ( eXeXeXV V V V V V V C C tXtXtXW 5 z 0 j 4 w 8 8 L 3 ",
"Y } :.!.H.0.d.r.e.e.Z Z 5 # f 4 j O R  X@X| 3 e ) ) ) ) ) eXeXeXeXeXO.4.5X,XeXeXeXV V V V V V V V V C tXtXV.o.k e S j 4 8 r j j + ",
"0 . E !.!.0.^ < 8 & # # $ l w h w : v q.OX:.e h.h.h.h.Q Q Q Q ) ) i 9 >.2X<Xs.n V V V V V V V V Q Q Q tXY.V.#.n q l r 4 2 z z j + ",
"t y U W.Q.M.r.3 # # w * j L e 4 w 2 w 8.OXM.h.h.h.h.h.Q Q Q Q ) z p y $.%X<X6.P : 2 V V V V V V Q Q Q Q U.S.0.P 9 z k e # 8 z z - ",
"x l z I.Q.x.8.T c c 4 $ z P t w 2 4 3  .].S.) ) ) ) h.Q Q Q Q x x z y | $X;XM.%.j c c $ V V h.h.Q Q Q Q 0.J.L.R 9 l t z t r z K : ",
"z G z L.Q.A.9.P 0 r # 4 x P H 8 # c # ! Z.) ) ) ) ) ) ) Q Q x k t r q Y +X*XD.#.w t w 2 w h.h.h.h.Q Q Q @.'.B.I q l e z z t z z > ",
"l G D L.!.S.0.L 9 e 9 w j x R t d 4 * y ) ) ) ) ) ) ) z z z z t t 0 D R +X@Xz.#.9 e r 8 2 V V V V V V V E V.H.@.9 e z z z p r z : ",
"l H D H.!.x.7.L w t 8 w e l P z j # w 9 ) ) ) ) ) ) t z K K z t z z u ..#X'.z.#.8 e t e V V V V V V V 4 m <.b.6.a < z r z K G z - ",
"l l m K.E.l.6.z r t t e z z H z l 9 e ) ) ) ) ) ) k t r z U K r t z q ..+XJ.N.X.9 z t t V V V V V 9 0 e b <.z.7.z y z t t K P z - ",
"l w U K.x.l.6.e e t t z z z z K z i z ) ) ) ) ) 0 e z 0 t K K t t t 9 @.!.n.B.+.0 t t V V V V V V t t b e :.x.4.T r t z t G H H - ",
"t 9 P D.x.l.6.0 e r t z z t t l t u ) ) ) h.h.>.q e z e t t G z t r < @.K.n.B.| 8 t G V V V h.h.t t t t e @.N.N. .e t z t r G z : ",
"z 9 P D.z.N.-.9 q r t z t t t c t ) ) ) ) h.h.h.D e G p t t t z t D u @.H.l.B.| > z V V V V h.h.r z z t i X.b.S.o.t q t t t r G , ",
"z 9 P 3.b.N.@.9 y z t t z t G l t ) ) ) ) ) ) ) ) i l z z l z t z z p @.b.=.4.M 9 z V V V V V V h.h.G l t ..N.A.@.i u t z z l z , ",
"D 0 X.4.F.M.| p r z z l t l t z z ) ) ) ) ) ) ) ) < q l z z r G t t z :.A.G.>.G q z V V V V V V V V V r e X.m.F.<.b q z z l H z : ",
"p y | v.z.>.Y 0 S p p i t p p i a p q e a >.x.-.| u u e p p p p p p D @.z.z.@.z 9 p p t p v p e p p q p u  .-.=.@.L l k y t b i - "
};
